<svg xmlns="http://www.w3.org/2000/svg" width="612" height="792" viewBox="0 0 612 792"><defs><style>.cls-1,.cls-17,.cls-18{fill:#fff;}.cls-2,.cls-3{fill:#f4ead7;}.cls-3{stroke:#fff;}.cls-17,.cls-18,.cls-3{stroke-miterlimit:10;}.cls-4{font-size:19px;}.cls-4,.cls-8{fill:#040404;}.cls-19,.cls-20,.cls-4{font-family:ArialRoundedMTBold, Arial Rounded MT Bold;}.cls-5{letter-spacing:-0.0381em;}.cls-6{letter-spacing:-0.0249em;}.cls-7{letter-spacing:-0.0132em;}.cls-9{letter-spacing:-0.0132em;}.cls-10{letter-spacing:-0.0132em;}.cls-11{letter-spacing:-0.0249em;}.cls-12{letter-spacing:-0.0249em;}.cls-13{letter-spacing:-0.0001em;}.cls-14{letter-spacing:-0.0259em;}.cls-15{letter-spacing:0.0122em;}.cls-16{letter-spacing:0.0498em;}.cls-17{stroke:#494742;}.cls-17,.cls-18{stroke-width:2px;}.cls-18{stroke:#96878b;}.cls-19{font-size:24px;fill:#030302;}.cls-20{font-size:34px;fill:#494742;}.cls-21{fill:#d9d6c1;}.cls-22{fill:#b4b29f;}.cls-23{fill:#a4a191;}.cls-24{fill:#b3b19e;}.cls-25{fill:#ab5034;}.cls-26{fill:#6f3e28;}.cls-27{fill:#8e482f;}.cls-28{fill:#dac69c;}.cls-29{fill:#e6d8b4;}.cls-30{fill:#c9ad80;}.cls-31{fill:#a4a39d;}.cls-32{fill:#91938f;}.cls-33{fill:#484742;}</style></defs><g id="Layer_3" data-name="Layer 3"><rect class="cls-1" width="612" height="792"/></g><g id="Layer_2" data-name="Layer 2"><rect class="cls-2" x="121.4747" y="173.8196" width="179.1431" height="111.8055"/><rect class="cls-3" x="21.5898" y="70.902" width="184.4924" height="102.9818"/><text/><rect class="cls-2" x="336.2803" y="70.902" width="251.239" height="115.5398"/><rect class="cls-2" x="32.1732" y="413.9154" width="128.1383" height="126.1716"/><text class="cls-4" transform="translate(49.381 455.6023)">“<tspan class="cls-5" x="8.7021" y="0">P</tspan><tspan class="cls-6" x="20.6514" y="0">a</tspan><tspan x="31.4688" y="0">tienc</tspan><tspan class="cls-5" x="77.4009" y="0">e</tspan><tspan x="87.9678" y="0">,</tspan><tspan x="-0.6445" y="22.7998">I’m almost </tspan><tspan x="19.5479" y="45.5996">done”</tspan></text><rect class="cls-2" x="419.8196" y="402.3451" width="179.5556" height="100.0885"/><text class="cls-4" transform="translate(433.4405 428.566)"><tspan class="cls-6">R</tspan><tspan x="13.1924" y="0">ot</tspan><tspan class="cls-6" x="31.3945" y="0">a</tspan><tspan x="42.2119" y="0">tes the knob </tspan><tspan x="11.2764" y="26">th</tspan><tspan class="cls-5" x="29.4785" y="26">r</tspan><tspan x="37.0767" y="26">ough all the </tspan><tspan class="cls-7" x="5.9883" y="52">w</tspan><tspan x="21.1846" y="52">ashing modes</tspan></text><path class="cls-8" d="M28.7832,98.6475V87.9326a1.8056,1.8056,0,0,1,.38-1.2529,1.2682,1.2682,0,0,1,.9834-.417,1.3143,1.3143,0,0,1,1.0063.4121,1.7886,1.7886,0,0,1,.3853,1.2578V98.6475a1.8059,1.8059,0,0,1-.3853,1.2617,1.3052,1.3052,0,0,1-1.0063.4179,1.2684,1.2684,0,0,1-.979-.4228A1.81,1.81,0,0,1,28.7832,98.6475Z"/><path class="cls-8" d="M40.77,91.6064l1.6514,5.6582,1.5029-5.26q.2411-.8262.357-1.127a1.4674,1.4674,0,0,1,.4365-.5752,1.3035,1.3035,0,0,1,.8765-.2744,1.3221,1.3221,0,0,1,.8862.2744,1.5688,1.5688,0,0,1,.45.5938q.13.3193.3618,1.1084l1.5029,5.26,1.67-5.6582q.1669-.6123.269-.8867a1.183,1.183,0,0,1,.3433-.4824,1.0349,1.0349,0,0,1,.6958-.209,1.109,1.109,0,0,1,.7885.3164.9875.9875,0,0,1,.334.7422,3.8689,3.8689,0,0,1-.2876,1.1777L50.5386,98.332q-.27.7706-.4175,1.1133a1.6712,1.6712,0,0,1-.4683.6123,1.5626,1.5626,0,0,1-1.7812-.0185,1.73,1.73,0,0,1-.4873-.7051q-.1583-.4175-.3433-1.085l-1.4472-4.9355L44.1929,98.249a6.0758,6.0758,0,0,1-.6031,1.5537,1.2361,1.2361,0,0,1-1.1411.5244,1.4422,1.4422,0,0,1-.71-.163A1.3616,1.3616,0,0,1,41.252,99.7a3.4428,3.4428,0,0,1-.3433-.7139q-.1486-.4131-.2319-.6543l-2.05-6.0674a4.3013,4.3013,0,0,1-.3062-1.1777,1.0117,1.0117,0,0,1,.3247-.7334,1.0835,1.0835,0,0,1,.7979-.3252.9291.9291,0,0,1,.8535.3574A5.2909,5.2909,0,0,1,40.77,91.6064Z"/><path class="cls-8" d="M63.87,95.1777a5.9865,5.9865,0,0,1-.3525,2.0869,4.614,4.614,0,0,1-1.02,1.6426A4.503,4.503,0,0,1,60.9014,99.96a5.6473,5.6473,0,0,1-2.0874.3671,5.488,5.488,0,0,1-2.0689-.371,4.5664,4.5664,0,0,1-2.6118-2.6954,6.4407,6.4407,0,0,1,.0049-4.1894,4.5839,4.5839,0,0,1,1.0112-1.6328,4.4535,4.4535,0,0,1,1.5957-1.043,6.0341,6.0341,0,0,1,4.1563.0039,4.4937,4.4937,0,0,1,2.6206,2.6914A5.9955,5.9955,0,0,1,63.87,95.1777Zm-2.542,0a3.7971,3.7971,0,0,0-.6821-2.4121,2.2133,2.2133,0,0,0-1.832-.8623,2.266,2.266,0,0,0-1.3081.3848,2.4348,2.4348,0,0,0-.8721,1.1367,5.1554,5.1554,0,0,0-.0044,3.4883,2.4865,2.4865,0,0,0,.8623,1.1357,2.2364,2.2364,0,0,0,1.3223.3946,2.21,2.21,0,0,0,1.832-.8672A3.7857,3.7857,0,0,0,61.3281,95.1777Z"/><path class="cls-8" d="M68.1655,91.43v.3057a4.4364,4.4364,0,0,1,1.4615-1.294,3.8993,3.8993,0,0,1,1.8227-.4131,3.6348,3.6348,0,0,1,1.79.4365,2.777,2.777,0,0,1,1.1783,1.2334,2.9483,2.9483,0,0,1,.3247,1.002,10.42,10.42,0,0,1,.0742,1.373v4.7129a1.6787,1.6787,0,0,1-.3477,1.15,1.2495,1.2495,0,0,1-1.8232-.0088,1.6675,1.6675,0,0,1-.3526-1.1416V94.5654a4.228,4.228,0,0,0-.3476-1.916,1.4193,1.4193,0,0,0-1.3872-.6631,2.0568,2.0568,0,0,0-1.2339.4033,2.3185,2.3185,0,0,0-.8164,1.1094,7.9184,7.9184,0,0,0-.1856,2.1153v3.1718a1.6436,1.6436,0,0,1-.3574,1.1553,1.2015,1.2015,0,0,1-.9228.3857,1.1477,1.1477,0,0,1-.9-.3994,1.6675,1.6675,0,0,1-.3526-1.1416V91.4668a1.5939,1.5939,0,0,1,.3155-1.0811,1.0937,1.0937,0,0,1,.8628-.3574,1.1689,1.1689,0,0,1,.603.1582,1.13,1.13,0,0,1,.4311.4727A1.67,1.67,0,0,1,68.1655,91.43Z"/><path class="cls-8" d="M84.28,98.88v-.251a6.4529,6.4529,0,0,1-1.0064.9512,3.8035,3.8035,0,0,1-1.0761.5566,4.0691,4.0691,0,0,1-1.2666.19,3.7263,3.7263,0,0,1-1.6836-.3857,3.9238,3.9238,0,0,1-1.3409-1.0986,5.0245,5.0245,0,0,1-.8584-1.68,7.19,7.19,0,0,1-.292-2.0879,5.439,5.439,0,0,1,1.16-3.7012,3.8561,3.8561,0,0,1,3.0523-1.3261,4.108,4.108,0,0,1,1.8462.375A5.1619,5.1619,0,0,1,84.28,91.5781V87.8389a1.8884,1.8884,0,0,1,.311-1.1778,1.0566,1.0566,0,0,1,.8858-.3984,1.0974,1.0974,0,0,1,.8857.3662,1.6308,1.6308,0,0,1,.311,1.0811V98.88a1.55,1.55,0,0,1-.334,1.0849,1.1206,1.1206,0,0,1-.8627.3623,1.1071,1.1071,0,0,1-.8584-.3759A1.5493,1.5493,0,0,1,84.28,98.88Zm-4.982-3.7207a4.315,4.315,0,0,0,.32,1.7539,2.4368,2.4368,0,0,0,.8764,1.09,2.1658,2.1658,0,0,0,1.2153.3662,2.2448,2.2448,0,0,0,1.22-.3476,2.3959,2.3959,0,0,0,.8818-1.0674,4.311,4.311,0,0,0,.3291-1.7949A4.2029,4.2029,0,0,0,83.812,93.42a2.6193,2.6193,0,0,0-.8906-1.1133,2.1289,2.1289,0,0,0-1.23-.3857,2.075,2.075,0,0,0-1.2432.3945A2.534,2.534,0,0,0,79.6,93.4473,4.4984,4.4984,0,0,0,79.2983,95.1592Z"/><path class="cls-8" d="M96.2852,95.8H91.3311a3.3581,3.3581,0,0,0,.3481,1.5215,2.3274,2.3274,0,0,0,2.1382,1.3262,3.033,3.033,0,0,0,.8305-.1065,2.7251,2.7251,0,0,0,.7281-.334,5.6137,5.6137,0,0,0,.6494-.4873q.2965-.2592.77-.7051a.8312.8312,0,0,1,.5567-.1669.9159.9159,0,0,1,.6308.2138.7612.7612,0,0,1,.2412.6026,1.6522,1.6522,0,0,1-.269.8027,3.1873,3.1873,0,0,1-.812.8809,4.6035,4.6035,0,0,1-1.3633.7,5.88,5.88,0,0,1-1.8882.2792,5.05,5.05,0,0,1-3.7944-1.3925,5.1789,5.1789,0,0,1-1.3545-3.7754,6.3023,6.3023,0,0,1,.334-2.083,4.596,4.596,0,0,1,.9741-1.6465,4.214,4.214,0,0,1,1.5771-1.0527,5.663,5.663,0,0,1,2.0782-.3663,4.923,4.923,0,0,1,2.5463.626,4.1182,4.1182,0,0,1,1.5914,1.6182,4.2588,4.2588,0,0,1,.5288,2.0234q0,.9551-.5474,1.2383A3.4137,3.4137,0,0,1,96.2852,95.8Zm-4.9541-1.4385h4.5922a3.0786,3.0786,0,0,0-.7-1.9433,2.0986,2.0986,0,0,0-1.6-.6455,2.0279,2.0279,0,0,0-1.5538.6543A3.2537,3.2537,0,0,0,91.3311,94.3613Z"/><path class="cls-8" d="M103.0205,96.6709v2.1152a1.6306,1.6306,0,0,1-.3618,1.1553,1.2059,1.2059,0,0,1-.9185.3857,1.16,1.16,0,0,1-.9-.3906,1.66,1.66,0,0,1-.3525-1.15V91.7354q0-1.7065,1.2339-1.7071a1.0313,1.0313,0,0,1,.9092.3994,2.202,2.202,0,0,1,.3061,1.1787,4.4293,4.4293,0,0,1,.9321-1.1787,1.9293,1.9293,0,0,1,1.2759-.3994,3.27,3.27,0,0,1,1.5493.3994,1.1909,1.1909,0,0,1,.7515,1.0577,1.0078,1.0078,0,0,1-.32.7656.9939.9939,0,0,1-.6914.3008,3.1833,3.1833,0,0,1-.6729-.1709,3.131,3.131,0,0,0-.9414-.1719,1.3793,1.3793,0,0,0-.9092.292,1.8781,1.8781,0,0,0-.5473.8672,6.0485,6.0485,0,0,0-.2691,1.3691Q103.02,95.53,103.0205,96.6709Z"/><path class="cls-8" d="M115.1553,91.6064l1.6513,5.6582,1.503-5.26q.2409-.8262.3569-1.127a1.4684,1.4684,0,0,1,.4365-.5752,1.3035,1.3035,0,0,1,.8765-.2744,1.3219,1.3219,0,0,1,.8862.2744,1.5688,1.5688,0,0,1,.45.5938q.13.3193.3618,1.1084l1.503,5.26,1.67-5.6582q.1669-.6123.269-.8867a1.184,1.184,0,0,1,.3433-.4824,1.0351,1.0351,0,0,1,.6958-.209,1.1094,1.1094,0,0,1,.7886.3164.9878.9878,0,0,1,.334.7422,3.8689,3.8689,0,0,1-.2876,1.1777l-2.0689,6.0674q-.27.7706-.4175,1.1133a1.6709,1.6709,0,0,1-.4682.6123,1.5627,1.5627,0,0,1-1.7813-.0185,1.73,1.73,0,0,1-.4873-.7051q-.1581-.4175-.3432-1.085L119.98,93.3135l-1.4009,4.9355a6.0762,6.0762,0,0,1-.603,1.5537,1.2362,1.2362,0,0,1-1.1411.5244,1.4426,1.4426,0,0,1-.71-.163,1.3632,1.3632,0,0,1-.4868-.4639,3.4479,3.4479,0,0,1-.3433-.7139q-.1486-.4131-.2319-.6543l-2.05-6.0674a4.3,4.3,0,0,1-.3061-1.1777,1.0117,1.0117,0,0,1,.3247-.7334,1.0834,1.0834,0,0,1,.7978-.3252.929.929,0,0,1,.8535.3574A5.2854,5.2854,0,0,1,115.1553,91.6064Z"/><path class="cls-8" d="M131.502,87.8018V91.56a5.3838,5.3838,0,0,1,.9414-.8809,3.3928,3.3928,0,0,1,1.0161-.4873,4.25,4.25,0,0,1,1.1967-.1631,3.52,3.52,0,0,1,1.712.4082,3.17,3.17,0,0,1,1.5351,2.2041,8.0508,8.0508,0,0,1,.0928,1.294v4.8515a1.6787,1.6787,0,0,1-.3477,1.15,1.1791,1.1791,0,0,1-.9233.3906q-1.2525,0-1.2524-1.541V94.51a3.9172,3.9172,0,0,0-.3619-1.8692,1.4266,1.4266,0,0,0-1.373-.6543,2.0647,2.0647,0,0,0-1.22.3848,2.3209,2.3209,0,0,0-.8115,1.0537,6.7255,6.7255,0,0,0-.2041,2.0127v3.3486a1.71,1.71,0,0,1-.3389,1.1465,1.1751,1.1751,0,0,1-.9414.3945q-1.2525,0-1.2525-1.541V87.8018a1.7375,1.7375,0,0,1,.33-1.1543,1.1472,1.1472,0,0,1,.9229-.3848,1.18,1.18,0,0,1,.9414.3887A1.7074,1.7074,0,0,1,131.502,87.8018Z"/><path class="cls-8" d="M146.9023,98.8975a7.8419,7.8419,0,0,1-1.7768,1.0722,4.98,4.98,0,0,1-1.9248.3574,3.6481,3.6481,0,0,1-1.7119-.3857,2.8115,2.8115,0,0,1-1.1363-1.0439,2.7036,2.7036,0,0,1-.3989-1.4278,2.5558,2.5558,0,0,1,.6587-1.7724,3.2944,3.2944,0,0,1,1.8091-.9834q.2409-.0556,1.1968-.25.955-.1963,1.6372-.3575t1.48-.3945a2.6438,2.6438,0,0,0-.4039-1.4707,1.8063,1.8063,0,0,0-1.4794-.4687,3.08,3.08,0,0,0-1.4522.27,2.37,2.37,0,0,0-.835.8066,8.4034,8.4034,0,0,1-.4912.71.8045.8045,0,0,1-.6172.1719,1.0774,1.0774,0,0,1-.7373-.2735.8907.8907,0,0,1-.311-.7,2.141,2.141,0,0,1,.4731-1.2988,3.3765,3.3765,0,0,1,1.4751-1.0391,6.64,6.64,0,0,1,2.4957-.4082,7.0688,7.0688,0,0,1,2.6254.3936,2.4449,2.4449,0,0,1,1.35,1.248,5.46,5.46,0,0,1,.3941,2.2637q0,.8907-.0044,1.5127t-.0142,1.3818A5.078,5.078,0,0,0,149.44,98.3a4.7239,4.7239,0,0,1,.2364.9971.9347.9347,0,0,1-.3662.71,1.2323,1.2323,0,0,1-.8306.32,1.1214,1.1214,0,0,1-.77-.3671A5.3853,5.3853,0,0,1,146.9023,98.8975Zm-.1669-3.6641a12.7732,12.7732,0,0,1-1.6187.4316q-1.0628.2271-1.4707.334a2.0005,2.0005,0,0,0-.7793.417,1.0716,1.0716,0,0,0-.3711.8682,1.2847,1.2847,0,0,0,.436.9785,1.6151,1.6151,0,0,0,1.1412.4033,2.9657,2.9657,0,0,0,1.3867-.3291,2.2,2.2,0,0,0,.9326-.85,3.8781,3.8781,0,0,0,.3433-1.8926Z"/><path class="cls-8" d="M151.4575,90.251h.2783V88.73c0-.4082.0108-.7275.0323-.96a1.4276,1.4276,0,0,1,.1811-.5986,1.142,1.142,0,0,1,.4268-.4219,1.2183,1.2183,0,0,1,.6216-.1621,1.2551,1.2551,0,0,1,.872.3613,1.0719,1.0719,0,0,1,.3291.59,5.2931,5.2931,0,0,1,.07.9883V90.251h.9277a1.1877,1.1877,0,0,1,.8208.2558.84.84,0,0,1,.2832.6543.7322.7322,0,0,1-.4033.7139,2.6272,2.6272,0,0,1-1.1553.2041h-.4731v4.6572a7.6742,7.6742,0,0,0,.0415.9141.938.938,0,0,0,.2226.5195.763.763,0,0,0,.5894.1992,3.1387,3.1387,0,0,0,.603-.0791,3.1863,3.1863,0,0,1,.5937-.0781.7644.7644,0,0,1,.5518.2451.8253.8253,0,0,1,.2461.6084,1.0167,1.0167,0,0,1-.668.9366,4.5083,4.5083,0,0,1-1.92.3251,3.3188,3.3188,0,0,1-1.8-.3994,1.8475,1.8475,0,0,1-.8022-1.1045,7.4728,7.4728,0,0,1-.19-1.8828V92.0791h-.3339a1.206,1.206,0,0,1-.835-.26.8471.8471,0,0,1-.2876-.6582.8184.8184,0,0,1,.3013-.6543A1.3248,1.3248,0,0,1,151.4575,90.251Z"/><path class="cls-8" d="M162.9336,90.251h.2783V88.73c0-.4082.0108-.7275.0322-.96a1.4291,1.4291,0,0,1,.1812-.5986,1.1412,1.1412,0,0,1,.4268-.4219,1.218,1.218,0,0,1,.6215-.1621,1.2553,1.2553,0,0,1,.8721.3613,1.0719,1.0719,0,0,1,.3291.59,5.2947,5.2947,0,0,1,.07.9883V90.251h.9278a1.1877,1.1877,0,0,1,.8208.2558.84.84,0,0,1,.2832.6543.7321.7321,0,0,1-.4034.7139,2.6264,2.6264,0,0,1-1.1552.2041h-.4732v4.6572a7.6957,7.6957,0,0,0,.0415.9141.9388.9388,0,0,0,.2227.5195.7629.7629,0,0,0,.5893.1992,3.1387,3.1387,0,0,0,.6031-.0791,3.1853,3.1853,0,0,1,.5937-.0781.7644.7644,0,0,1,.5518.2451.8257.8257,0,0,1,.2461.6084,1.0167,1.0167,0,0,1-.668.9366,4.5083,4.5083,0,0,1-1.92.3251,3.3188,3.3188,0,0,1-1.8-.3994,1.8481,1.8481,0,0,1-.8023-1.1045,7.4781,7.4781,0,0,1-.19-1.8828V92.0791h-.334a1.2059,1.2059,0,0,1-.8349-.26.8471.8471,0,0,1-.2876-.6582.8186.8186,0,0,1,.3012-.6543A1.3253,1.3253,0,0,1,162.9336,90.251Z"/><path class="cls-8" d="M171.9976,87.8018V91.56a5.3838,5.3838,0,0,1,.9414-.8809,3.3928,3.3928,0,0,1,1.0161-.4873,4.25,4.25,0,0,1,1.1968-.1631,3.52,3.52,0,0,1,1.7119.4082,3.17,3.17,0,0,1,1.5351,2.2041,8.0508,8.0508,0,0,1,.0928,1.294v4.8515a1.6787,1.6787,0,0,1-.3477,1.15,1.1791,1.1791,0,0,1-.9233.3906q-1.2525,0-1.2524-1.541V94.51a3.9172,3.9172,0,0,0-.3619-1.8692,1.4266,1.4266,0,0,0-1.373-.6543,2.0647,2.0647,0,0,0-1.22.3848,2.3215,2.3215,0,0,0-.8115,1.0537,6.7255,6.7255,0,0,0-.2041,2.0127v3.3486a1.71,1.71,0,0,1-.3389,1.1465,1.1751,1.1751,0,0,1-.9414.3945q-1.2525,0-1.2525-1.541V87.8018a1.7375,1.7375,0,0,1,.33-1.1543,1.1472,1.1472,0,0,1,.9229-.3848,1.18,1.18,0,0,1,.9414.3887A1.7074,1.7074,0,0,1,171.9976,87.8018Z"/><path class="cls-8" d="M182.2769,88.8506a1.3409,1.3409,0,0,1-.9048-.3242,1.1519,1.1519,0,0,1-.3755-.919,1.14,1.14,0,0,1,.3852-.8857,1.29,1.29,0,0,1,.8951-.3477,1.3288,1.3288,0,0,1,.872.3145,1.1269,1.1269,0,0,1,.38.9189,1.16,1.16,0,0,1-.3711.9141A1.2837,1.2837,0,0,1,182.2769,88.8506Zm1.2524,2.6162v7.3193a1.6336,1.6336,0,0,1-.3618,1.15,1.2,1.2,0,0,1-.9185.3906,1.1438,1.1438,0,0,1-.9043-.3994,1.6819,1.6819,0,0,1-.3481-1.1416V91.541a1.6241,1.6241,0,0,1,.3481-1.1318,1.1672,1.1672,0,0,1,.9043-.3809,1.2123,1.2123,0,0,1,.9185.3809A1.4737,1.4737,0,0,1,183.5293,91.4668Z"/><path class="cls-8" d="M194.3,97.0146a2.9379,2.9379,0,0,1-2.0176,2.9268,6.7549,6.7549,0,0,1-2.4263.3857,5.9167,5.9167,0,0,1-2.3378-.4179,3.399,3.399,0,0,1-1.438-1.044,2.0984,2.0984,0,0,1-.4639-1.2568.9739.9739,0,0,1,.2969-.7148,1.02,1.02,0,0,1,.7514-.2969.8778.8778,0,0,1,.6123.1953,2.144,2.144,0,0,1,.4082.5469,2.7761,2.7761,0,0,0,.9322,1.0117,2.8139,2.8139,0,0,0,1.48.334,2.1307,2.1307,0,0,0,1.2475-.3389.9507.9507,0,0,0,.4873-.7744,1.0555,1.0555,0,0,0-.5058-.9746,6.29,6.29,0,0,0-1.6651-.584,13.8156,13.8156,0,0,1-2.1289-.6816,3.5147,3.5147,0,0,1-1.313-.9415,2.1587,2.1587,0,0,1-.4917-1.4384,2.5387,2.5387,0,0,1,.4546-1.4385,3.1156,3.1156,0,0,1,1.34-1.08,5.1288,5.1288,0,0,1,2.1387-.4043,7,7,0,0,1,1.7676.2051,4.4,4.4,0,0,1,1.3076.5469,2.6923,2.6923,0,0,1,.7979.7607,1.4884,1.4884,0,0,1,.2739.8164.94.94,0,0,1-.2925.7139,1.1564,1.1564,0,0,1-.83.2793,1.0161,1.0161,0,0,1-.6631-.2227,4.3563,4.3563,0,0,1-.6264-.6679,2.2809,2.2809,0,0,0-.6773-.5938,2.1343,2.1343,0,0,0-1.0576-.2226,2.0654,2.0654,0,0,0-1.1411.2919.8514.8514,0,0,0-.4546.7276.7876.7876,0,0,0,.334.6543,2.7565,2.7565,0,0,0,.9.4219q.5655.1669,1.5586.4082a8.33,8.33,0,0,1,1.9253.6875,3.1954,3.1954,0,0,1,1.1318.9414A2.0872,2.0872,0,0,1,194.3,97.0146Z"/><path class="cls-8" d="M42.0825,111.65a1.3412,1.3412,0,0,1-.9048-.3242,1.1519,1.1519,0,0,1-.3755-.919,1.14,1.14,0,0,1,.3853-.8857,1.29,1.29,0,0,1,.895-.3477,1.3288,1.3288,0,0,1,.8721.3145,1.1269,1.1269,0,0,1,.38.9189,1.16,1.16,0,0,1-.3711.9141A1.2838,1.2838,0,0,1,42.0825,111.65Zm1.2525,2.6162v7.3193a1.6329,1.6329,0,0,1-.3619,1.15,1.1994,1.1994,0,0,1-.9184.3907,1.1437,1.1437,0,0,1-.9043-.3995,1.6817,1.6817,0,0,1-.3482-1.1416v-7.2451a1.6242,1.6242,0,0,1,.3482-1.1318,1.1671,1.1671,0,0,1,.9043-.3809,1.2121,1.2121,0,0,1,.9184.3809A1.4733,1.4733,0,0,1,43.335,114.2666Z"/><path class="cls-8" d="M48.252,114.23v.3057a4.4361,4.4361,0,0,1,1.4614-1.294,3.8993,3.8993,0,0,1,1.8227-.4131,3.6354,3.6354,0,0,1,1.7906.4365,2.7768,2.7768,0,0,1,1.1782,1.2334A2.9462,2.9462,0,0,1,54.83,115.5a10.42,10.42,0,0,1,.0742,1.373v4.7129a1.679,1.679,0,0,1-.3476,1.15,1.2494,1.2494,0,0,1-1.8233-.0088,1.6678,1.6678,0,0,1-.3525-1.1416v-4.2207a4.2265,4.2265,0,0,0-.3477-1.916,1.4193,1.4193,0,0,0-1.3872-.6631,2.0563,2.0563,0,0,0-1.2339.4034,2.3184,2.3184,0,0,0-.8164,1.1093,7.92,7.92,0,0,0-.1855,2.1153v3.1718a1.6434,1.6434,0,0,1-.3575,1.1553,1.2014,1.2014,0,0,1-.9228.3858,1.1481,1.1481,0,0,1-.9-.3995,1.6673,1.6673,0,0,1-.3525-1.1416v-7.3193a1.5939,1.5939,0,0,1,.3154-1.0811,1.0937,1.0937,0,0,1,.8628-.3574,1.1689,1.1689,0,0,1,.603.1582,1.131,1.131,0,0,1,.4312.4727A1.67,1.67,0,0,1,48.252,114.23Z"/><path class="cls-8" d="M64.3667,121.68v-.251a6.4525,6.4525,0,0,1-1.0063.9512,3.8054,3.8054,0,0,1-1.0762.5566,4.0687,4.0687,0,0,1-1.2666.1905,3.7264,3.7264,0,0,1-1.6836-.3858,3.9214,3.9214,0,0,1-1.3408-1.0986,5.0208,5.0208,0,0,1-.8584-1.68,7.1863,7.1863,0,0,1-.292-2.0879,5.4389,5.4389,0,0,1,1.16-3.7012,3.8562,3.8562,0,0,1,3.0523-1.3261,4.108,4.108,0,0,1,1.8462.375,5.1605,5.1605,0,0,1,1.4658,1.1552v-3.7392a1.8884,1.8884,0,0,1,.311-1.1778,1.0568,1.0568,0,0,1,.8858-.3984,1.0974,1.0974,0,0,1,.8857.3662A1.6309,1.6309,0,0,1,66.76,110.51v11.17a1.55,1.55,0,0,1-.334,1.0849,1.121,1.121,0,0,1-.8628.3624,1.1073,1.1073,0,0,1-.8584-.376A1.5493,1.5493,0,0,1,64.3667,121.68Zm-4.9819-3.7207a4.3151,4.3151,0,0,0,.32,1.7539,2.4375,2.4375,0,0,0,.8764,1.09,2.1658,2.1658,0,0,0,1.2154.3662,2.2448,2.2448,0,0,0,1.22-.3476,2.3952,2.3952,0,0,0,.8818-1.0674,4.3094,4.3094,0,0,0,.3291-1.7949,4.2013,4.2013,0,0,0-.3291-1.7393,2.6193,2.6193,0,0,0-.8906-1.1133,2.1289,2.1289,0,0,0-1.23-.3857,2.0747,2.0747,0,0,0-1.2431.3945,2.5335,2.5335,0,0,0-.8487,1.1319A4.5,4.5,0,0,0,59.3848,117.959Z"/><path class="cls-8" d="M70.5825,111.65a1.3412,1.3412,0,0,1-.9048-.3242,1.1519,1.1519,0,0,1-.3755-.919,1.14,1.14,0,0,1,.3853-.8857,1.29,1.29,0,0,1,.895-.3477,1.3288,1.3288,0,0,1,.8721.3145,1.1269,1.1269,0,0,1,.38.9189,1.16,1.16,0,0,1-.3711.9141A1.2838,1.2838,0,0,1,70.5825,111.65Zm1.2525,2.6162v7.3193a1.6329,1.6329,0,0,1-.3619,1.15,1.1994,1.1994,0,0,1-.9184.3907,1.1437,1.1437,0,0,1-.9043-.3995,1.6817,1.6817,0,0,1-.3482-1.1416v-7.2451a1.6242,1.6242,0,0,1,.3482-1.1318,1.1671,1.1671,0,0,1,.9043-.3809,1.2121,1.2121,0,0,1,.9184.3809A1.4733,1.4733,0,0,1,71.835,114.2666Z"/><path class="cls-8" d="M83.5337,119.99a2.179,2.179,0,0,1-.2832,1.0118,3.4861,3.4861,0,0,1-.8623,1.0253,4.4571,4.4571,0,0,1-1.4614.7832,6.1915,6.1915,0,0,1-1.9854.2969,4.8439,4.8439,0,0,1-3.6645-1.3681A5.0654,5.0654,0,0,1,73.96,118.07a6.0438,6.0438,0,0,1,.603-2.7558,4.3359,4.3359,0,0,1,1.7441-1.8506,5.9364,5.9364,0,0,1,4.5318-.3662,4.7021,4.7021,0,0,1,1.3916.7421,3.5357,3.5357,0,0,1,.8721.97,1.9174,1.9174,0,0,1,.3017.96,1.0105,1.0105,0,0,1-.3389.77,1.1587,1.1587,0,0,1-.8208.3164.8256.8256,0,0,1-.5239-.1631,2.5031,2.5031,0,0,1-.4687-.5244,3.8261,3.8261,0,0,0-.97-1.0567,2.3794,2.3794,0,0,0-3.0937.5235,3.7926,3.7926,0,0,0-.6865,2.3984,4.6226,4.6226,0,0,0,.1762,1.3125,2.9708,2.9708,0,0,0,.51,1.0205,2.1788,2.1788,0,0,0,.8071.6406,2.45,2.45,0,0,0,1.0391.2178,2.3369,2.3369,0,0,0,1.3032-.3525,3.0839,3.0839,0,0,0,.96-1.0762,2.4711,2.4711,0,0,1,.5009-.668.95.95,0,0,1,.6587-.2412.9759.9759,0,0,1,.77.3526A1.1291,1.1291,0,0,1,83.5337,119.99Z"/><path class="cls-8" d="M92.1431,121.6973a7.8424,7.8424,0,0,1-1.7769,1.0722,4.98,4.98,0,0,1-1.9248.3575,3.6482,3.6482,0,0,1-1.7119-.3858,2.81,2.81,0,0,1-1.1362-1.0439,2.7028,2.7028,0,0,1-.399-1.4278,2.556,2.556,0,0,1,.6587-1.7724,3.2944,3.2944,0,0,1,1.8091-.9834q.2411-.0556,1.1968-.25.955-.1963,1.6372-.3575t1.48-.3945a2.645,2.645,0,0,0-.4038-1.4707,1.8066,1.8066,0,0,0-1.48-.4687,3.08,3.08,0,0,0-1.4522.27,2.3689,2.3689,0,0,0-.8349.8066,8.428,8.428,0,0,1-.4912.71.8047.8047,0,0,1-.6172.1719,1.0765,1.0765,0,0,1-.7373-.2735.89.89,0,0,1-.3111-.7,2.14,2.14,0,0,1,.4732-1.2988,3.3744,3.3744,0,0,1,1.4751-1.039,6.6371,6.6371,0,0,1,2.4956-.4083,7.0691,7.0691,0,0,1,2.6255.3936,2.4455,2.4455,0,0,1,1.35,1.248,5.46,5.46,0,0,1,.394,2.2637q0,.8907-.0044,1.5127t-.0142,1.3819a5.0781,5.0781,0,0,0,.2369,1.4892,4.7279,4.7279,0,0,1,.2363.9971.9347.9347,0,0,1-.3662.71,1.2322,1.2322,0,0,1-.8306.32,1.1215,1.1215,0,0,1-.77-.3672A5.3815,5.3815,0,0,1,92.1431,121.6973Zm-.167-3.6641a12.7732,12.7732,0,0,1-1.6187.4316q-1.0628.2271-1.4707.334a2.0012,2.0012,0,0,0-.7793.417,1.0719,1.0719,0,0,0-.3711.8682,1.2845,1.2845,0,0,0,.4361.9785,1.6144,1.6144,0,0,0,1.1411.4033,2.9651,2.9651,0,0,0,1.3867-.3291,2.2,2.2,0,0,0,.9326-.85,3.8781,3.8781,0,0,0,.3433-1.8926Z"/><path class="cls-8" d="M96.6982,113.0508h.2784v-1.5215c0-.4082.0107-.7275.0322-.96a1.4291,1.4291,0,0,1,.1811-.5986,1.1434,1.1434,0,0,1,.4268-.4219,1.2183,1.2183,0,0,1,.6216-.1621,1.2553,1.2553,0,0,1,.8721.3613,1.0726,1.0726,0,0,1,.3291.59,5.3034,5.3034,0,0,1,.07.9883v1.7246h.9277a1.1877,1.1877,0,0,1,.8208.2558.84.84,0,0,1,.2832.6543.7322.7322,0,0,1-.4033.7139,2.6269,2.6269,0,0,1-1.1553.2041h-.4731v4.6572a7.6742,7.6742,0,0,0,.0415.9141.938.938,0,0,0,.2226.52.763.763,0,0,0,.5894.1992,3.1387,3.1387,0,0,0,.603-.0791,3.1862,3.1862,0,0,1,.5938-.0781.7644.7644,0,0,1,.5517.2451.8253.8253,0,0,1,.2461.6084,1.0166,1.0166,0,0,1-.6679.9366,4.5089,4.5089,0,0,1-1.92.3252,3.3189,3.3189,0,0,1-1.8-.3995,1.8476,1.8476,0,0,1-.8022-1.1045,7.4735,7.4735,0,0,1-.19-1.8828v-4.8613h-.334a1.206,1.206,0,0,1-.835-.26.8471.8471,0,0,1-.2876-.6582.8184.8184,0,0,1,.3013-.6543A1.3252,1.3252,0,0,1,96.6982,113.0508Z"/><path class="cls-8" d="M112.7666,117.9775a5.9875,5.9875,0,0,1-.3525,2.087,4.6144,4.6144,0,0,1-1.02,1.6425,4.5039,4.5039,0,0,1-1.5957,1.0528,5.6474,5.6474,0,0,1-2.0875.3672,5.4878,5.4878,0,0,1-2.0688-.3711,4.5664,4.5664,0,0,1-2.6118-2.6954,6.4407,6.4407,0,0,1,.0049-4.1894,4.5825,4.5825,0,0,1,1.0112-1.6328,4.4548,4.4548,0,0,1,1.5957-1.043,6.0341,6.0341,0,0,1,4.1563.0039,4.4937,4.4937,0,0,1,2.6206,2.6914A5.9955,5.9955,0,0,1,112.7666,117.9775Zm-2.542,0a3.7971,3.7971,0,0,0-.6821-2.4121,2.2134,2.2134,0,0,0-1.8321-.8623,2.2672,2.2672,0,0,0-1.3081.3848,2.4352,2.4352,0,0,0-.872,1.1367,5.1554,5.1554,0,0,0-.0044,3.4883,2.4865,2.4865,0,0,0,.8623,1.1357,2.2363,2.2363,0,0,0,1.3222.3946,2.21,2.21,0,0,0,1.8321-.8672A3.7855,3.7855,0,0,0,110.2246,117.9775Z"/><path class="cls-8" d="M117.2754,119.4707v2.1152a1.63,1.63,0,0,1-.3618,1.1553,1.206,1.206,0,0,1-.9185.3858,1.16,1.16,0,0,1-.9-.3907,1.66,1.66,0,0,1-.3525-1.15v-7.0507q0-1.7066,1.2339-1.7071a1.031,1.031,0,0,1,.9091.3994,2.2019,2.2019,0,0,1,.3062,1.1787,4.4293,4.4293,0,0,1,.9321-1.1787,1.9293,1.9293,0,0,1,1.2759-.3994,3.27,3.27,0,0,1,1.5493.3994,1.1909,1.1909,0,0,1,.7515,1.0577,1.0078,1.0078,0,0,1-.32.7656.9934.9934,0,0,1-.6914.3008,3.1833,3.1833,0,0,1-.6729-.1709,3.131,3.131,0,0,0-.9414-.1719,1.3793,1.3793,0,0,0-.9092.292,1.8773,1.8773,0,0,0-.5473.8672,6.0485,6.0485,0,0,0-.2691,1.3691Q117.2749,118.33,117.2754,119.4707Z"/><path class="cls-8" d="M136.9155,119.99a2.179,2.179,0,0,1-.2832,1.0118,3.4861,3.4861,0,0,1-.8623,1.0253,4.4571,4.4571,0,0,1-1.4614.7832,6.191,6.191,0,0,1-1.9854.2969,4.8439,4.8439,0,0,1-3.6645-1.3681,5.0659,5.0659,0,0,1-1.3174-3.669,6.0438,6.0438,0,0,1,.603-2.7558,4.3356,4.3356,0,0,1,1.7442-1.8506,5.9361,5.9361,0,0,1,4.5317-.3662,4.7009,4.7009,0,0,1,1.3916.7421,3.534,3.534,0,0,1,.8721.97,1.9164,1.9164,0,0,1,.3017.96,1.01,1.01,0,0,1-.3388.77,1.1588,1.1588,0,0,1-.8208.3164.8252.8252,0,0,1-.5239-.1631,2.5031,2.5031,0,0,1-.4688-.5244,3.8259,3.8259,0,0,0-.97-1.0567,2.38,2.38,0,0,0-3.0938.5235,3.7926,3.7926,0,0,0-.6865,2.3984,4.6189,4.6189,0,0,0,.1763,1.3125,2.9724,2.9724,0,0,0,.51,1.0205,2.1791,2.1791,0,0,0,.8072.6406,2.45,2.45,0,0,0,1.039.2178,2.3367,2.3367,0,0,0,1.3032-.3525,3.083,3.083,0,0,0,.96-1.0762,2.4733,2.4733,0,0,1,.501-.668.95.95,0,0,1,.6587-.2412.976.976,0,0,1,.77.3526A1.129,1.129,0,0,1,136.9155,119.99Z"/><path class="cls-8" d="M148.605,117.9775a5.9852,5.9852,0,0,1-.3526,2.087,4.613,4.613,0,0,1-1.02,1.6425,4.5021,4.5021,0,0,1-1.5957,1.0528,5.6465,5.6465,0,0,1-2.0874.3672,5.4874,5.4874,0,0,1-2.0688-.3711,4.5664,4.5664,0,0,1-2.6118-2.6954,5.9816,5.9816,0,0,1-.3477-2.083,6.043,6.043,0,0,1,.3525-2.1064,4.5841,4.5841,0,0,1,1.0113-1.6328,4.4539,4.4539,0,0,1,1.5957-1.043,6.0338,6.0338,0,0,1,4.1562.0039,4.493,4.493,0,0,1,2.6206,2.6914A5.9931,5.9931,0,0,1,148.605,117.9775Zm-2.542,0a3.7977,3.7977,0,0,0-.6821-2.4121,2.2135,2.2135,0,0,0-1.8321-.8623,2.2672,2.2672,0,0,0-1.3081.3848,2.4352,2.4352,0,0,0-.872,1.1367,5.1554,5.1554,0,0,0-.0044,3.4883,2.4852,2.4852,0,0,0,.8623,1.1357,2.2363,2.2363,0,0,0,1.3222.3946,2.21,2.21,0,0,0,1.8321-.8672A3.7861,3.7861,0,0,0,146.063,117.9775Z"/><path class="cls-8" d="M153.1138,119.4707v2.1152a1.63,1.63,0,0,1-.3618,1.1553,1.2062,1.2062,0,0,1-.9185.3858,1.16,1.16,0,0,1-.9-.3907,1.66,1.66,0,0,1-.3525-1.15v-7.0507q0-1.7066,1.2338-1.7071a1.0311,1.0311,0,0,1,.9092.3994,2.2019,2.2019,0,0,1,.3062,1.1787,4.4273,4.4273,0,0,1,.9321-1.1787,1.9291,1.9291,0,0,1,1.2759-.3994,3.27,3.27,0,0,1,1.5493.3994,1.1909,1.1909,0,0,1,.7515,1.0577,1.0079,1.0079,0,0,1-.32.7656.9931.9931,0,0,1-.6914.3008,3.183,3.183,0,0,1-.6728-.1709,3.1315,3.1315,0,0,0-.9414-.1719,1.3793,1.3793,0,0,0-.9092.292,1.8774,1.8774,0,0,0-.5474.8672,6.0488,6.0488,0,0,0-.269,1.3691Q153.1133,118.33,153.1138,119.4707Z"/><path class="cls-8" d="M161.1851,119.4707v2.1152a1.63,1.63,0,0,1-.3619,1.1553,1.2058,1.2058,0,0,1-.9184.3858,1.16,1.16,0,0,1-.9-.3907,1.66,1.66,0,0,1-.3526-1.15v-7.0507q0-1.7066,1.2339-1.7071a1.0312,1.0312,0,0,1,.9092.3994,2.2019,2.2019,0,0,1,.3062,1.1787,4.4273,4.4273,0,0,1,.9321-1.1787,1.9289,1.9289,0,0,1,1.2759-.3994,3.27,3.27,0,0,1,1.5493.3994,1.1909,1.1909,0,0,1,.7515,1.0577,1.0079,1.0079,0,0,1-.32.7656.9931.9931,0,0,1-.6914.3008,3.1816,3.1816,0,0,1-.6728-.1709,3.1315,3.1315,0,0,0-.9414-.1719,1.3791,1.3791,0,0,0-.9092.292,1.8774,1.8774,0,0,0-.5474.8672,6.0488,6.0488,0,0,0-.269,1.3691Q161.1846,118.33,161.1851,119.4707Z"/><path class="cls-8" d="M173.5889,118.6h-4.9541a3.3581,3.3581,0,0,0,.3481,1.5215,2.3274,2.3274,0,0,0,2.1382,1.3262,3.0342,3.0342,0,0,0,.8306-.1065,2.7245,2.7245,0,0,0,.728-.334,5.5965,5.5965,0,0,0,.6494-.4873q.2967-.2592.77-.705a.8309.8309,0,0,1,.5567-.167.9164.9164,0,0,1,.6308.2138.7612.7612,0,0,1,.2412.6026,1.6522,1.6522,0,0,1-.269.8027,3.1873,3.1873,0,0,1-.812.8809,4.6035,4.6035,0,0,1-1.3633.7,5.88,5.88,0,0,1-1.8882.2793,5.0507,5.0507,0,0,1-3.7944-1.3926,5.1793,5.1793,0,0,1-1.3545-3.7754,6.3023,6.3023,0,0,1,.334-2.083,4.596,4.596,0,0,1,.9741-1.6465,4.214,4.214,0,0,1,1.5771-1.0527,5.6634,5.6634,0,0,1,2.0782-.3663,4.9237,4.9237,0,0,1,2.5464.626,4.1186,4.1186,0,0,1,1.5913,1.6182,4.2588,4.2588,0,0,1,.5288,2.0234q0,.955-.5474,1.2383A3.4137,3.4137,0,0,1,173.5889,118.6Zm-4.9541-1.4385h4.5923a3.08,3.08,0,0,0-.7-1.9433,2.099,2.099,0,0,0-1.6006-.6455,2.0276,2.0276,0,0,0-1.5537.6543A3.2531,3.2531,0,0,0,168.6348,117.1611Z"/><path class="cls-8" d="M181.1406,119.0723H178.209a1.4776,1.4776,0,0,1-1.0156-.3106,1.0247,1.0247,0,0,1-.3482-.8027,1.05,1.05,0,0,1,.3384-.8115,1.4741,1.4741,0,0,1,1.0254-.3116h2.9316a1.475,1.475,0,0,1,1.0254.3116,1.1369,1.1369,0,0,1,.0044,1.6142A1.47,1.47,0,0,1,181.1406,119.0723Z"/><path class="cls-8" d="M56.2812,142.6143a2.9377,2.9377,0,0,1-2.0175,2.9267,6.7529,6.7529,0,0,1-2.4263.3858,5.9168,5.9168,0,0,1-2.3379-.418,3.4,3.4,0,0,1-1.438-1.044,2.0987,2.0987,0,0,1-.4638-1.2568.9742.9742,0,0,1,.2968-.7148,1.02,1.02,0,0,1,.7515-.2969.8781.8781,0,0,1,.6123.1953,2.1463,2.1463,0,0,1,.4082.5469,2.7768,2.7768,0,0,0,.9321,1.0117,2.8129,2.8129,0,0,0,1.48.334,2.131,2.131,0,0,0,1.2476-.3389.9507.9507,0,0,0,.4873-.7744,1.0556,1.0556,0,0,0-.5059-.9746,6.293,6.293,0,0,0-1.665-.584,13.8084,13.8084,0,0,1-2.1289-.6816,3.514,3.514,0,0,1-1.313-.9414,2.1592,2.1592,0,0,1-.4917-1.4385,2.539,2.539,0,0,1,.4546-1.4385,3.115,3.115,0,0,1,1.34-1.08,5.1281,5.1281,0,0,1,2.1387-.4043,7,7,0,0,1,1.7676.2051,4.4041,4.4041,0,0,1,1.3076.5469,2.6906,2.6906,0,0,1,.7978.7607,1.4886,1.4886,0,0,1,.274.8164.94.94,0,0,1-.2925.7139,1.1566,1.1566,0,0,1-.83.2793,1.0157,1.0157,0,0,1-.6631-.2227,4.3612,4.3612,0,0,1-.6265-.6679,2.282,2.282,0,0,0-.6772-.5938,2.1346,2.1346,0,0,0-1.0576-.2226,2.0646,2.0646,0,0,0-1.1411.292.851.851,0,0,0-.4546.7275.7876.7876,0,0,0,.334.6543,2.7545,2.7545,0,0,0,.9.4219q.5653.167,1.5586.4082a8.3338,8.3338,0,0,1,1.9252.6875,3.1958,3.1958,0,0,1,1.1319.9414A2.0878,2.0878,0,0,1,56.2812,142.6143Z"/><path class="cls-8" d="M60.7622,137.0479v.3066a4.9973,4.9973,0,0,1,1.4844-1.2949,3.6411,3.6411,0,0,1,1.7441-.4121,4.0372,4.0372,0,0,1,2.1524.6025,4.1611,4.1611,0,0,1,1.5542,1.7627,6.1662,6.1662,0,0,1,.57,2.7461,6.7063,6.7063,0,0,1-.3291,2.1474,4.82,4.82,0,0,1-.9048,1.6426,3.95,3.95,0,0,1-1.3589,1.02,4.029,4.029,0,0,1-1.6841.3575,3.5231,3.5231,0,0,1-1.8227-.4366,5.2133,5.2133,0,0,1-1.4058-1.28v3.8037q0,1.67-1.2153,1.67a.9732.9732,0,0,1-.9463-.4316,2.7107,2.7107,0,0,1-.2319-1.2569V137.0664a1.5935,1.5935,0,0,1,.3154-1.081,1.0934,1.0934,0,0,1,.8628-.3575,1.1417,1.1417,0,0,1,.8769.3672A1.4959,1.4959,0,0,1,60.7622,137.0479Zm4.9634,3.6835a4.3831,4.3831,0,0,0-.3062-1.7216,2.5248,2.5248,0,0,0-.8491-1.1036,2.028,2.028,0,0,0-1.2012-.3857,2.254,2.254,0,0,0-1.7675.8262,3.6057,3.6057,0,0,0-.7188,2.4306,3.5187,3.5187,0,0,0,.7144,2.3516,2.2328,2.2328,0,0,0,1.7719.84,2.0365,2.0365,0,0,0,1.169-.3663,2.5257,2.5257,0,0,0,.8628-1.1A4.36,4.36,0,0,0,65.7256,140.7314Z"/><path class="cls-8" d="M79.7808,140.7773a5.9852,5.9852,0,0,1-.3526,2.087,4.6121,4.6121,0,0,1-1.02,1.6425A4.5021,4.5021,0,0,1,76.812,145.56a5.6465,5.6465,0,0,1-2.0874.3672,5.4874,5.4874,0,0,1-2.0688-.3711,4.5671,4.5671,0,0,1-2.6119-2.6953,6.4427,6.4427,0,0,1,.0049-4.19,4.5841,4.5841,0,0,1,1.0113-1.6328,4.4539,4.4539,0,0,1,1.5957-1.043,6.0338,6.0338,0,0,1,4.1562.0039,4.493,4.493,0,0,1,2.6206,2.6914A5.9955,5.9955,0,0,1,79.7808,140.7773Zm-2.542,0a3.7971,3.7971,0,0,0-.6822-2.4121,2.2133,2.2133,0,0,0-1.832-.8623,2.2672,2.2672,0,0,0-1.3081.3848,2.4354,2.4354,0,0,0-.8721,1.1367,5.157,5.157,0,0,0-.0044,3.4883,2.4865,2.4865,0,0,0,.8623,1.1357,2.2368,2.2368,0,0,0,1.3223.3946,2.21,2.21,0,0,0,1.832-.8672A3.7853,3.7853,0,0,0,77.2388,140.7773Z"/><path class="cls-8" d="M84.0762,137.0293v.3057a4.4361,4.4361,0,0,1,1.4614-1.294,3.9,3.9,0,0,1,1.8228-.4131,3.6343,3.6343,0,0,1,1.79.4366,2.7757,2.7757,0,0,1,1.1782,1.2334,2.9449,2.9449,0,0,1,.3247,1.0019,10.42,10.42,0,0,1,.0742,1.3731v4.7128a1.679,1.679,0,0,1-.3476,1.15,1.2494,1.2494,0,0,1-1.8233-.0088,1.6678,1.6678,0,0,1-.3525-1.1416V140.165a4.2265,4.2265,0,0,0-.3477-1.916,1.4193,1.4193,0,0,0-1.3872-.6631,2.0565,2.0565,0,0,0-1.2339.4034,2.3184,2.3184,0,0,0-.8164,1.1093,7.92,7.92,0,0,0-.1855,2.1153v3.1718a1.6439,1.6439,0,0,1-.3574,1.1553,1.2013,1.2013,0,0,1-.9229.3858,1.1481,1.1481,0,0,1-.9-.3995,1.6678,1.6678,0,0,1-.3525-1.1416v-7.3193a1.594,1.594,0,0,1,.3154-1.081,1.0937,1.0937,0,0,1,.8628-.3575,1.1686,1.1686,0,0,1,.603.1582,1.13,1.13,0,0,1,.4312.4727A1.67,1.67,0,0,1,84.0762,137.0293Z"/><path class="cls-8" d="M100.1909,144.48v-.251a6.4525,6.4525,0,0,1-1.0063.9512,3.8054,3.8054,0,0,1-1.0762.5566,4.0687,4.0687,0,0,1-1.2666.19,3.7254,3.7254,0,0,1-1.6836-.3858,3.9214,3.9214,0,0,1-1.3408-1.0986,5.0208,5.0208,0,0,1-.8584-1.68,7.1863,7.1863,0,0,1-.292-2.0879,5.4385,5.4385,0,0,1,1.16-3.7012,3.8558,3.8558,0,0,1,3.0522-1.3261,4.108,4.108,0,0,1,1.8462.375,5.1592,5.1592,0,0,1,1.4658,1.1552v-3.7392a1.8878,1.8878,0,0,1,.3111-1.1778,1.0564,1.0564,0,0,1,.8857-.3984,1.0974,1.0974,0,0,1,.8857.3662,1.63,1.63,0,0,1,.3111,1.0811v11.17a1.5508,1.5508,0,0,1-.334,1.085,1.1213,1.1213,0,0,1-.8628.3623,1.1073,1.1073,0,0,1-.8584-.376A1.5493,1.5493,0,0,1,100.1909,144.48Zm-4.9819-3.7207a4.3151,4.3151,0,0,0,.32,1.7539,2.4376,2.4376,0,0,0,.8765,1.09,2.1656,2.1656,0,0,0,1.2153.3663,2.2448,2.2448,0,0,0,1.22-.3477,2.3961,2.3961,0,0,0,.8819-1.0674,4.311,4.311,0,0,0,.3291-1.7949,4.2029,4.2029,0,0,0-.3291-1.7393,2.62,2.62,0,0,0-.8907-1.1133,2.1287,2.1287,0,0,0-1.2295-.3857,2.0747,2.0747,0,0,0-1.2431.3945,2.5335,2.5335,0,0,0-.8487,1.1319A4.5,4.5,0,0,0,95.209,140.7588Z"/><path class="cls-8" d="M113.2812,142.6143a2.9377,2.9377,0,0,1-2.0175,2.9267,6.7529,6.7529,0,0,1-2.4263.3858,5.9168,5.9168,0,0,1-2.3379-.418,3.4,3.4,0,0,1-1.438-1.044,2.0987,2.0987,0,0,1-.4638-1.2568.9742.9742,0,0,1,.2968-.7148,1.02,1.02,0,0,1,.7515-.2969.8781.8781,0,0,1,.6123.1953,2.1463,2.1463,0,0,1,.4082.5469,2.7768,2.7768,0,0,0,.9321,1.0117,2.8129,2.8129,0,0,0,1.48.334,2.131,2.131,0,0,0,1.2476-.3389.9507.9507,0,0,0,.4873-.7744,1.0556,1.0556,0,0,0-.5059-.9746,6.293,6.293,0,0,0-1.665-.584,13.8084,13.8084,0,0,1-2.1289-.6816,3.514,3.514,0,0,1-1.313-.9414,2.1592,2.1592,0,0,1-.4917-1.4385,2.539,2.539,0,0,1,.4546-1.4385,3.115,3.115,0,0,1,1.34-1.08,5.1281,5.1281,0,0,1,2.1387-.4043,7,7,0,0,1,1.7676.2051,4.4041,4.4041,0,0,1,1.3076.5469,2.6906,2.6906,0,0,1,.7978.7607,1.4886,1.4886,0,0,1,.274.8164.94.94,0,0,1-.2925.7139,1.1566,1.1566,0,0,1-.83.2793,1.0157,1.0157,0,0,1-.6631-.2227,4.3612,4.3612,0,0,1-.6265-.6679,2.282,2.282,0,0,0-.6772-.5938,2.1346,2.1346,0,0,0-1.0576-.2226,2.0646,2.0646,0,0,0-1.1411.292.851.851,0,0,0-.4546.7275.7876.7876,0,0,0,.334.6543,2.7545,2.7545,0,0,0,.9.4219q.5654.167,1.5586.4082a8.3338,8.3338,0,0,1,1.9252.6875,3.1958,3.1958,0,0,1,1.1319.9414A2.0878,2.0878,0,0,1,113.2812,142.6143Z"/><path class="cls-8" d="M121.7515,137.2061l1.6513,5.6582,1.503-5.26q.2409-.8262.3569-1.127a1.4684,1.4684,0,0,1,.4365-.5752,1.3035,1.3035,0,0,1,.8765-.2744,1.3221,1.3221,0,0,1,.8862.2744,1.5688,1.5688,0,0,1,.45.5938q.13.3193.3618,1.1084l1.503,5.26,1.67-5.6582q.1669-.6123.269-.8868a1.184,1.184,0,0,1,.3433-.4824,1.0351,1.0351,0,0,1,.6958-.209,1.1094,1.1094,0,0,1,.7886.3164.9878.9878,0,0,1,.334.7422,3.87,3.87,0,0,1-.2876,1.1778l-2.0689,6.0673q-.27.7706-.4175,1.1133a1.6709,1.6709,0,0,1-.4682.6123,1.5623,1.5623,0,0,1-1.7813-.0185,1.73,1.73,0,0,1-.4873-.7051q-.1582-.4175-.3433-1.085l-1.4472-4.9355-1.4009,4.9355a6.0762,6.0762,0,0,1-.603,1.5537,1.2363,1.2363,0,0,1-1.1411.5245,1.4423,1.4423,0,0,1-.71-.1631,1.3632,1.3632,0,0,1-.4868-.4639,3.4479,3.4479,0,0,1-.3433-.7139q-.1487-.4131-.2319-.6543l-2.05-6.0673a4.3025,4.3025,0,0,1-.3062-1.1778,1.0118,1.0118,0,0,1,.3248-.7334,1.0834,1.0834,0,0,1,.7978-.3252.9288.9288,0,0,1,.8535.3575A5.2816,5.2816,0,0,1,121.7515,137.2061Z"/><path class="cls-8" d="M136.9014,134.45a1.3411,1.3411,0,0,1-.9048-.3242,1.1519,1.1519,0,0,1-.3755-.919,1.14,1.14,0,0,1,.3852-.8857,1.29,1.29,0,0,1,.8951-.3477,1.3288,1.3288,0,0,1,.872.3145,1.1266,1.1266,0,0,1,.38.9189,1.16,1.16,0,0,1-.3711.9141A1.2835,1.2835,0,0,1,136.9014,134.45Zm1.2524,2.6162v7.3193a1.6334,1.6334,0,0,1-.3618,1.15,1.2,1.2,0,0,1-.9185.3907,1.1439,1.1439,0,0,1-.9043-.3995,1.6817,1.6817,0,0,1-.3481-1.1416v-7.2451a1.6241,1.6241,0,0,1,.3481-1.1318,1.1672,1.1672,0,0,1,.9043-.3809,1.2123,1.2123,0,0,1,.9185.3809A1.4737,1.4737,0,0,1,138.1538,137.0664Z"/><path class="cls-8" d="M140.9092,135.8506h.2783v-1.5215c0-.4082.0107-.7275.0322-.96a1.4291,1.4291,0,0,1,.1812-.5986,1.1424,1.1424,0,0,1,.4267-.4219,1.2186,1.2186,0,0,1,.6216-.1621,1.255,1.255,0,0,1,.8721.3614,1.0719,1.0719,0,0,1,.3291.59,5.2947,5.2947,0,0,1,.07.9883v1.7246h.9277a1.188,1.188,0,0,1,.8209.2558.84.84,0,0,1,.2832.6543.7321.7321,0,0,1-.4034.7139,2.6252,2.6252,0,0,1-1.1552.2041H143.72v4.6572a7.6957,7.6957,0,0,0,.0415.9141.9381.9381,0,0,0,.2227.5195.7629.7629,0,0,0,.5893.1993,3.14,3.14,0,0,0,.6031-.0792,3.1853,3.1853,0,0,1,.5937-.0781.7648.7648,0,0,1,.5518.2451.8259.8259,0,0,1,.2461.6084,1.0167,1.0167,0,0,1-.668.9366,4.5084,4.5084,0,0,1-1.92.3252,3.3187,3.3187,0,0,1-1.8-.3995,1.8479,1.8479,0,0,1-.8023-1.1044,7.48,7.48,0,0,1-.19-1.8829v-4.8613h-.334a1.2059,1.2059,0,0,1-.8349-.26.8471.8471,0,0,1-.2876-.6582.8183.8183,0,0,1,.3012-.6543A1.3253,1.3253,0,0,1,140.9092,135.8506Z"/><path class="cls-8" d="M149.9731,133.4014v3.7578a5.3876,5.3876,0,0,1,.9415-.8809,3.3928,3.3928,0,0,1,1.0161-.4873,4.25,4.25,0,0,1,1.1967-.1631,3.52,3.52,0,0,1,1.712.4082,3.17,3.17,0,0,1,1.5351,2.2041,8.0516,8.0516,0,0,1,.0928,1.294v4.8515a1.6785,1.6785,0,0,1-.3477,1.15,1.1791,1.1791,0,0,1-.9233.3907q-1.2525,0-1.2525-1.5411v-4.2763a3.9185,3.9185,0,0,0-.3618-1.8692,1.4266,1.4266,0,0,0-1.373-.6543,2.0647,2.0647,0,0,0-1.22.3848,2.321,2.321,0,0,0-.8116,1.0537,6.7289,6.7289,0,0,0-.2041,2.0127v3.3486a1.71,1.71,0,0,1-.3388,1.1465,1.1751,1.1751,0,0,1-.9414.3946q-1.2525,0-1.2525-1.5411V133.4014a1.7375,1.7375,0,0,1,.33-1.1543,1.1472,1.1472,0,0,1,.9229-.3848,1.18,1.18,0,0,1,.9414.3887A1.7074,1.7074,0,0,1,149.9731,133.4014Z"/><path class="cls-8" d="M160.6514,145.9268a1.4456,1.4456,0,0,1-.9927-.3711,1.319,1.319,0,0,1-.4175-1.0391,1.3453,1.3453,0,0,1,.3989-.9746,1.3192,1.3192,0,0,1,.9834-.4082,1.3775,1.3775,0,0,1,.9976.4033,1.4341,1.4341,0,0,1,0,2.0137A1.3971,1.3971,0,0,1,160.6514,145.9268Z"/><path class="cls-8" d="M166.5981,145.9268a1.4455,1.4455,0,0,1-.9926-.3711,1.3187,1.3187,0,0,1-.4175-1.0391,1.3453,1.3453,0,0,1,.3989-.9746,1.319,1.319,0,0,1,.9834-.4082,1.3775,1.3775,0,0,1,.9976.4033,1.4341,1.4341,0,0,1,0,2.0137A1.3974,1.3974,0,0,1,166.5981,145.9268Z"/><path class="cls-8" d="M172.5449,145.9268a1.4458,1.4458,0,0,1-.9927-.3711,1.3189,1.3189,0,0,1-.4174-1.0391,1.3453,1.3453,0,0,1,.3989-.9746,1.3189,1.3189,0,0,1,.9834-.4082,1.3773,1.3773,0,0,1,.9975.4033,1.4341,1.4341,0,0,1,0,2.0137A1.397,1.397,0,0,1,172.5449,145.9268Z"/><text class="cls-4" transform="translate(137.0733 206.1962)"><tspan class="cls-7">T</tspan><tspan x="11.6245" y="0">he</tspan><tspan class="cls-6" x="34.3911" y="0">r</tspan><tspan x="42.2397" y="0">e should be </tspan><tspan x="-1.2432" y="22.7998">a timer function, </tspan><tspan x="21.4399" y="45.5996">whe</tspan><tspan class="cls-6" x="59.6533" y="45.5996">r</tspan><tspan x="67.502" y="45.5996">e is it?</tspan></text><text class="cls-4" transform="translate(348.8428 95.6353)">Slightly ann<tspan class="cls-9" x="107.4873" y="0">oy</tspan><tspan x="128.7607" y="0">ed the n</tspan><tspan class="cls-10" x="202.3965" y="0">e</tspan><tspan x="213.4365" y="0">w </tspan><tspan class="cls-9" x="11.792" y="26">w</tspan><tspan x="26.9893" y="26">ashing ma</tspan><tspan class="cls-11" x="121.4053" y="26">c</tspan><tspan x="132.2227" y="26">hines a</tspan><tspan class="cls-11" x="197.9531" y="26">r</tspan><tspan x="205.8018" y="26">e </tspan><tspan x="1.9072" y="52">not as simple as those in </tspan><tspan x="36.5391" y="78">the </tspan><tspan class="cls-12" x="70.7822" y="78">g</tspan><tspan x="82.1846" y="78">ood ol’ d</tspan><tspan class="cls-10" x="160.96" y="78">ay</tspan><tspan class="cls-13" x="182.0479" y="78">s </tspan></text><rect class="cls-3" x="322.4037" y="492.1838" width="209.8333" height="120.6207"/><text class="cls-4" transform="translate(333.5035 519.7754)">P<tspan class="cls-6" x="12.6729" y="0">r</tspan><tspan x="20.5215" y="0">esses the “TEMP” </tspan><tspan class="cls-7" x="22.4839" y="26">b</tspan><tspan x="34.1084" y="26">utton until the </tspan><tspan x="19.1855" y="52">“H</tspan><tspan class="cls-5" x="42.3232" y="52">O</tspan><tspan x="56.6475" y="52">T” indic</tspan><tspan class="cls-6" x="126.9141" y="52">a</tspan><tspan x="137.7314" y="52">tor </tspan><tspan x="52.334" y="78">lights up</tspan></text><rect class="cls-3" x="21.5898" y="266.5787" width="184.4924" height="116.4213"/><text class="cls-4" transform="translate(39.8768 306.6366)">My <tspan class="cls-6" x="30.875" y="0">c</tspan><tspan x="41.6924" y="0">lothes </tspan><tspan class="cls-7" x="102.8579" y="0">m</tspan><tspan x="119.418" y="0">ust </tspan><tspan x="8.8462" y="22.7998">be </tspan><tspan class="cls-6" x="36.7617" y="22.7998">c</tspan><tspan x="47.5791" y="22.7998">lean, I will </tspan><tspan x="15.9297" y="45.5996">ta</tspan><tspan class="cls-5" x="33.9463" y="45.5996">k</tspan><tspan x="44.1143" y="45.5996">e my time</tspan></text><rect class="cls-2" x="171.7181" y="452.8691" width="128.1383" height="126.1716"/><text class="cls-4" transform="translate(187.8941 497.6093)"><tspan class="cls-14">“</tspan><tspan x="8.2104" y="0">AHA, th</tspan><tspan class="cls-6" x="78.876" y="0">a</tspan><tspan x="89.6934" y="0">t </tspan><tspan x="18.2808" y="22.7998">ma</tspan><tspan class="cls-5" x="46.3818" y="22.7998">k</tspan><tspan x="56.5498" y="22.7998">es </tspan><tspan x="13.3682" y="45.5996">sense!”</tspan></text><rect class="cls-2" x="336.2803" y="198.4209" width="223.9039" height="83.9262"/><text class="cls-4" transform="translate(353.1398 225.0421)">Curious <tspan class="cls-7" x="77.0112" y="0">a</tspan><tspan x="88.0513" y="0">bout all the </tspan><tspan x="10.7197" y="22.7998">l</tspan><tspan class="cls-7" x="15.8687" y="22.7998">a</tspan><tspan x="26.9087" y="22.7998">bels and </tspan><tspan class="cls-7" x="109.6626" y="22.7998">b</tspan><tspan x="121.2871" y="22.7998">uttons</tspan></text><rect class="cls-2" x="32.2694" y="554.446" width="128.1383" height="126.1716"/><text class="cls-4" transform="translate(54.7028 592.638)">“<tspan class="cls-6" x="8.7021" y="0">W</tspan><tspan x="26.0508" y="0">ait, let </tspan><tspan x="-1.9854" y="22.7998">me </tspan><tspan class="cls-15" x="30.8657" y="22.7998">f</tspan><tspan x="37.4248" y="22.7998">igu</tspan><tspan class="cls-6" x="65.9248" y="22.7998">r</tspan><tspan x="73.7734" y="22.7998">e </tspan><tspan x="-5.835" y="45.5996">this out </tspan><tspan class="cls-7" x="66.9922" y="45.5996">b</tspan><tspan x="78.6167" y="45.5996">y </tspan><tspan x="6.7539" y="68.4004">m</tspan><tspan class="cls-7" x="23.5645" y="68.4004">y</tspan><tspan x="33.6118" y="68.4004">sel</tspan><tspan class="cls-16" x="60.3491" y="68.4004">f</tspan><tspan x="67.6226" y="68.4004">”</tspan></text><rect class="cls-2" x="172.0345" y="592.5582" width="128.1383" height="126.1716"/><text class="cls-4" transform="translate(201.7589 637.4839)">“I know <tspan x="-9.6626" y="22.7998">wh</tspan><tspan class="cls-6" x="17.2603" y="22.7998">a</tspan><tspan x="28.0776" y="22.7998">t I am </tspan><tspan x="4.0679" y="45.5996">doing”</tspan></text><rect class="cls-2" x="327.5761" y="622.8477" width="148.0703" height="115.5398"/><text class="cls-4" transform="translate(344.098 649.6033)"><tspan class="cls-6">R</tspan><tspan x="13.1924" y="0">eco</tspan><tspan class="cls-14" x="47.2495" y="0">r</tspan><tspan x="55.0796" y="0">ds the </tspan><tspan x="6.0723" y="22.7998">time on his </tspan><tspan x="-5.353" y="45.5996">phone be</tspan><tspan class="cls-7" x="80.1563" y="45.5996">f</tspan><tspan x="86.2329" y="45.5996">o</tspan><tspan class="cls-6" x="97.709" y="45.5996">r</tspan><tspan x="105.5576" y="45.5996">e </tspan><tspan x="22.7202" y="68.4004">le</tspan><tspan class="cls-6" x="39.1597" y="68.4004">a</tspan><tspan x="49.9771" y="68.4004">ving</tspan></text><rect class="cls-3" x="410.9545" y="265.0724" width="182.443" height="115.5398"/><path class="cls-8" d="M435.1709,298.6636a3.6342,3.6342,0,0,1-.32,1.4052,5.0731,5.0731,0,0,1-1.0068,1.4844,5.1366,5.1366,0,0,1-1.753,1.1826,6.31,6.31,0,0,1-2.4863.4551,8.6482,8.6482,0,0,1-1.958-.2051,5.5009,5.5009,0,0,1-1.6006-.6347,5.42,5.42,0,0,1-1.3213-1.1367,6.7317,6.7317,0,0,1-.9189-1.4336,7.4476,7.4476,0,0,1-.57-1.6934,9.2043,9.2043,0,0,1-.1905-1.91,8.4814,8.4814,0,0,1,.4776-2.9414,6.28,6.28,0,0,1,1.3691-2.2216,5.9641,5.9641,0,0,1,2.0869-1.4053,6.7475,6.7475,0,0,1,2.5518-.4824,6.3673,6.3673,0,0,1,2.94.6582,5.34,5.34,0,0,1,1.9766,1.6279,3.2194,3.2194,0,0,1,.6865,1.833,1.1918,1.1918,0,0,1-.334.834,1.057,1.057,0,0,1-.8076.3623,1.1088,1.1088,0,0,1-.793-.251,3.4167,3.4167,0,0,1-.5888-.8623,4.1636,4.1636,0,0,0-1.2666-1.5127,3.0915,3.0915,0,0,0-1.795-.5,3.256,3.256,0,0,0-2.705,1.2891,5.8389,5.8389,0,0,0-1.0059,3.664,6.8,6.8,0,0,0,.4453,2.64,3.3312,3.3312,0,0,0,1.2617,1.5732,3.4863,3.4863,0,0,0,1.9112.52,3.3473,3.3473,0,0,0,2.0078-.59,3.552,3.552,0,0,0,1.2392-1.73,2.9323,2.9323,0,0,1,.4356-.876.9854.9854,0,0,1,.8349-.3389,1.1666,1.1666,0,0,1,.8448.3438A1.1442,1.1442,0,0,1,435.1709,298.6636Z"/><path class="cls-8" d="M443.873,301.7612a7.8413,7.8413,0,0,1-1.7773,1.0723,4.9787,4.9787,0,0,1-1.9248.3574,3.6481,3.6481,0,0,1-1.7119-.3857,2.81,2.81,0,0,1-1.1358-1.044,2.699,2.699,0,0,1-.3994-1.4277,2.5565,2.5565,0,0,1,.6592-1.7725,3.2936,3.2936,0,0,1,1.8086-.9834q.2417-.0557,1.1973-.25.955-.1962,1.6367-.3574t1.4805-.3945a2.6444,2.6444,0,0,0-.4043-1.4707,1.8059,1.8059,0,0,0-1.48-.4688,3.08,3.08,0,0,0-1.4522.27,2.368,2.368,0,0,0-.8349.8066,8.4212,8.4212,0,0,1-.4913.71.8037.8037,0,0,1-.6171.1718,1.0778,1.0778,0,0,1-.7373-.2734.8917.8917,0,0,1-.3106-.7,2.14,2.14,0,0,1,.4727-1.2988,3.3774,3.3774,0,0,1,1.4755-1.0391,6.6374,6.6374,0,0,1,2.4952-.4082,7.0735,7.0735,0,0,1,2.6259.3936,2.4424,2.4424,0,0,1,1.35,1.248,5.4608,5.4608,0,0,1,.3945,2.2637q0,.8905-.0049,1.5127t-.0137,1.3818a5.077,5.077,0,0,0,.2364,1.4893,4.7289,4.7289,0,0,1,.2363.997.9349.9349,0,0,1-.3662.71,1.2311,1.2311,0,0,1-.83.32,1.1231,1.1231,0,0,1-.77-.3672A5.38,5.38,0,0,1,443.873,301.7612Zm-.1669-3.664a12.8024,12.8024,0,0,1-1.6192.4316q-1.062.2271-1.4707.334a2.0012,2.0012,0,0,0-.7793.417,1.073,1.073,0,0,0-.3711.8681,1.2854,1.2854,0,0,0,.4365.9786,1.6139,1.6139,0,0,0,1.1407.4033,2.9643,2.9643,0,0,0,1.3867-.3291,2.2,2.2,0,0,0,.9326-.85,3.8771,3.8771,0,0,0,.3438-1.8926Z"/><path class="cls-8" d="M448.7617,301.65V290.6655a1.71,1.71,0,0,1,.3389-1.15,1.1482,1.1482,0,0,1,.914-.3886,1.1991,1.1991,0,0,1,.9278.3847,1.6624,1.6624,0,0,1,.3525,1.1543V301.65a1.6436,1.6436,0,0,1-.3574,1.1553,1.2023,1.2023,0,0,1-.9229.3857,1.1439,1.1439,0,0,1-.9042-.3994A1.6815,1.6815,0,0,1,448.7617,301.65Z"/><path class="cls-8" d="M462.335,298.2271v3.3681a1.73,1.73,0,0,1-.3623,1.1963,1.2293,1.2293,0,0,1-.9551.3994,1.1941,1.1941,0,0,1-.9326-.3994,1.7442,1.7442,0,0,1-.3575-1.1963v-4.0361a13.053,13.053,0,0,0-.0644-1.4844,1.6147,1.6147,0,0,0-.3526-.8672,1.1307,1.1307,0,0,0-.9091-.3388,1.615,1.615,0,0,0-1.6377.8535,6.0252,6.0252,0,0,0-.3946,2.4492v3.4238a1.7456,1.7456,0,0,1-.3574,1.1914,1.1936,1.1936,0,0,1-.9414.4043,1.2119,1.2119,0,0,1-.9414-.4043,1.7177,1.7177,0,0,1-.3662-1.1914v-7.2461a1.5886,1.5886,0,0,1,.3291-1.0859,1.105,1.105,0,0,1,.8672-.3711,1.1742,1.1742,0,0,1,.8672.3486,1.295,1.295,0,0,1,.3486.96v.2412a4.3975,4.3975,0,0,1,1.41-1.1592,3.7113,3.7113,0,0,1,1.67-.3711,3.3354,3.3354,0,0,1,1.6416.38,2.9751,2.9751,0,0,1,1.1318,1.15,4.4144,4.4144,0,0,1,1.3731-1.1553,3.5123,3.5123,0,0,1,1.624-.375,3.6945,3.6945,0,0,1,1.79.4082,2.5987,2.5987,0,0,1,1.1231,1.168,5.3737,5.3737,0,0,1,.3242,2.1621v4.9453a1.73,1.73,0,0,1-.3613,1.1963,1.2313,1.2313,0,0,1-.9561.3994,1.2119,1.2119,0,0,1-.9414-.4043,1.7177,1.7177,0,0,1-.3662-1.1914v-4.2588a9.641,9.641,0,0,0-.07-1.3076,1.4969,1.4969,0,0,0-.375-.8262,1.1987,1.1987,0,0,0-.9278-.3339,1.6965,1.6965,0,0,0-.9511.2968,2.0194,2.0194,0,0,0-.7.7979A6.3374,6.3374,0,0,0,462.335,298.2271Z"/><path class="cls-8" d="M481.873,301.7612a7.8413,7.8413,0,0,1-1.7773,1.0723,4.9787,4.9787,0,0,1-1.9248.3574,3.6481,3.6481,0,0,1-1.7119-.3857,2.81,2.81,0,0,1-1.1358-1.044,2.699,2.699,0,0,1-.3994-1.4277,2.5565,2.5565,0,0,1,.6592-1.7725,3.2936,3.2936,0,0,1,1.8086-.9834q.2417-.0557,1.1973-.25.955-.1962,1.6367-.3574t1.4805-.3945a2.6444,2.6444,0,0,0-.4043-1.4707,1.8059,1.8059,0,0,0-1.48-.4688,3.08,3.08,0,0,0-1.4522.27,2.368,2.368,0,0,0-.8349.8066,8.4212,8.4212,0,0,1-.4913.71.8037.8037,0,0,1-.6171.1718,1.0778,1.0778,0,0,1-.7373-.2734.8917.8917,0,0,1-.3106-.7,2.14,2.14,0,0,1,.4727-1.2988,3.3774,3.3774,0,0,1,1.4755-1.0391,6.6374,6.6374,0,0,1,2.4952-.4082,7.0735,7.0735,0,0,1,2.6259.3936,2.4424,2.4424,0,0,1,1.35,1.248,5.4608,5.4608,0,0,1,.3945,2.2637q0,.8905-.0049,1.5127t-.0137,1.3818a5.077,5.077,0,0,0,.2364,1.4893,4.7289,4.7289,0,0,1,.2363.997.9349.9349,0,0,1-.3662.71,1.2311,1.2311,0,0,1-.83.32,1.1231,1.1231,0,0,1-.77-.3672A5.38,5.38,0,0,1,481.873,301.7612Zm-.1669-3.664a12.8024,12.8024,0,0,1-1.6192.4316q-1.062.2271-1.4707.334a2.0012,2.0012,0,0,0-.7793.417,1.073,1.073,0,0,0-.3711.8681,1.2854,1.2854,0,0,0,.4365.9786,1.6139,1.6139,0,0,0,1.1407.4033,2.9643,2.9643,0,0,0,1.3867-.3291,2.2,2.2,0,0,0,.9326-.85,3.8771,3.8771,0,0,0,.3438-1.8926Z"/><path class="cls-8" d="M489.0625,294.2935v.3056a4.4382,4.4382,0,0,1,1.4619-1.2939,3.8977,3.8977,0,0,1,1.8223-.4131,3.6386,3.6386,0,0,1,1.791.4365,2.7746,2.7746,0,0,1,1.1777,1.2334,2.9469,2.9469,0,0,1,.3252,1.002,10.4884,10.4884,0,0,1,.0742,1.373V301.65a1.6793,1.6793,0,0,1-.3476,1.15,1.25,1.25,0,0,1-1.8233-.0088,1.668,1.668,0,0,1-.3525-1.1416v-4.2207a4.2277,4.2277,0,0,0-.3476-1.916,1.42,1.42,0,0,0-1.3877-.6631,2.0565,2.0565,0,0,0-1.2334.4033,2.3189,2.3189,0,0,0-.8165,1.1094,7.9182,7.9182,0,0,0-.1855,2.1152V301.65a1.6436,1.6436,0,0,1-.3574,1.1553,1.2023,1.2023,0,0,1-.9229.3857,1.15,1.15,0,0,1-.9-.3994,1.668,1.668,0,0,1-.3525-1.1416v-7.3193a1.5969,1.5969,0,0,1,.3154-1.0811,1.095,1.095,0,0,1,.8633-.3574,1.1662,1.1662,0,0,1,.6026.1582,1.1321,1.1321,0,0,1,.4316.4726A1.6707,1.6707,0,0,1,489.0625,294.2935Z"/><path class="cls-8" d="M505.1777,301.7437v-.251a6.4488,6.4488,0,0,1-1.0068.9511,3.7991,3.7991,0,0,1-1.0762.5567,4.0664,4.0664,0,0,1-1.2666.19,3.7281,3.7281,0,0,1-1.6836-.3857,3.9238,3.9238,0,0,1-1.3408-1.0987,5.03,5.03,0,0,1-.8584-1.68,7.19,7.19,0,0,1-.292-2.0879,5.4386,5.4386,0,0,1,1.16-3.7012,3.8539,3.8539,0,0,1,3.0517-1.3262,4.11,4.11,0,0,1,1.8467.375,5.1614,5.1614,0,0,1,1.4658,1.1553v-3.7393a1.8908,1.8908,0,0,1,.3106-1.1777,1.0564,1.0564,0,0,1,.8857-.3984,1.0967,1.0967,0,0,1,.8858.3662,1.6279,1.6279,0,0,1,.3115,1.081v11.17a1.55,1.55,0,0,1-.334,1.0849,1.1222,1.1222,0,0,1-.8633.3623,1.1081,1.1081,0,0,1-.8584-.376A1.5489,1.5489,0,0,1,505.1777,301.7437Zm-4.9824-3.7208a4.3173,4.3173,0,0,0,.32,1.754,2.4385,2.4385,0,0,0,.877,1.09,2.1649,2.1649,0,0,0,1.2148.3662,2.2433,2.2433,0,0,0,1.22-.3476,2.396,2.396,0,0,0,.8819-1.0674,4.3035,4.3035,0,0,0,.3291-1.795,4.1941,4.1941,0,0,0-.3291-1.7392,2.6181,2.6181,0,0,0-.8906-1.1133,2.128,2.128,0,0,0-1.2295-.3857,2.0758,2.0758,0,0,0-1.2432.3945,2.5366,2.5366,0,0,0-.8486,1.1318A4.4984,4.4984,0,0,0,500.1953,298.0229Z"/><path class="cls-8" d="M523.9453,300.0542a2.1727,2.1727,0,0,1-.2832,1.0117,3.4787,3.4787,0,0,1-.8623,1.0254,4.4633,4.4633,0,0,1-1.4609.7832,6.1932,6.1932,0,0,1-1.9854.2969,4.844,4.844,0,0,1-3.665-1.3682,5.0671,5.0671,0,0,1-1.3174-3.6689,6.0444,6.0444,0,0,1,.6035-2.7559,4.3332,4.3332,0,0,1,1.7442-1.8506,5.9361,5.9361,0,0,1,4.5312-.3662,4.701,4.701,0,0,1,1.3916.7422,3.5257,3.5257,0,0,1,.8721.97,1.9177,1.9177,0,0,1,.3017.96,1.0089,1.0089,0,0,1-.3388.7695,1.1575,1.1575,0,0,1-.82.3164.8261.8261,0,0,1-.5244-.1631,2.5031,2.5031,0,0,1-.4687-.5244,3.8207,3.8207,0,0,0-.97-1.0566,2.38,2.38,0,0,0-3.0938.5234,3.793,3.793,0,0,0-.6865,2.3985,4.6054,4.6054,0,0,0,.1767,1.3125,2.9728,2.9728,0,0,0,.51,1.0205,2.1812,2.1812,0,0,0,.8076.6406,2.4487,2.4487,0,0,0,1.0391.2178,2.3345,2.3345,0,0,0,1.3027-.3526,3.0836,3.0836,0,0,0,.961-1.0761,2.4716,2.4716,0,0,1,.5009-.668.9476.9476,0,0,1,.6582-.2412.9764.9764,0,0,1,.77.3525A1.1284,1.1284,0,0,1,523.9453,300.0542Z"/><path class="cls-8" d="M535.6348,298.0415a5.9727,5.9727,0,0,1-.3526,2.0869,4.6126,4.6126,0,0,1-1.02,1.6426,4.5006,4.5006,0,0,1-1.5957,1.0527,5.6418,5.6418,0,0,1-2.0869.3672,5.4863,5.4863,0,0,1-2.0693-.3711,4.5674,4.5674,0,0,1-2.6114-2.6953,6.4424,6.4424,0,0,1,.0049-4.1894,4.5764,4.5764,0,0,1,1.0108-1.6329,4.4581,4.4581,0,0,1,1.5957-1.0429,6.0339,6.0339,0,0,1,4.1562.0039,4.492,4.492,0,0,1,2.6211,2.6914A5.9951,5.9951,0,0,1,535.6348,298.0415Zm-2.542,0a3.797,3.797,0,0,0-.6817-2.4121,2.2133,2.2133,0,0,0-1.832-.8623,2.268,2.268,0,0,0-1.3086.3848,2.4381,2.4381,0,0,0-.8721,1.1367,5.161,5.161,0,0,0-.0039,3.4883,2.4832,2.4832,0,0,0,.8623,1.1357,2.2346,2.2346,0,0,0,1.3223.3945,2.2093,2.2093,0,0,0,1.832-.8672A3.7852,3.7852,0,0,0,533.0928,298.0415Z"/><path class="cls-8" d="M537.63,301.65V290.6655a1.71,1.71,0,0,1,.3379-1.15,1.1493,1.1493,0,0,1,.914-.3886,1.1978,1.1978,0,0,1,.9278.3847,1.658,1.658,0,0,1,.3525,1.1543V301.65a1.6436,1.6436,0,0,1-.3574,1.1553,1.2008,1.2008,0,0,1-.9229.3857,1.1441,1.1441,0,0,1-.9043-.3994A1.6818,1.6818,0,0,1,537.63,301.65Z"/><path class="cls-8" d="M542.7783,301.65V290.6655a1.71,1.71,0,0,1,.3389-1.15,1.1482,1.1482,0,0,1,.914-.3886,1.1991,1.1991,0,0,1,.9278.3847,1.6624,1.6624,0,0,1,.3525,1.1543V301.65a1.6436,1.6436,0,0,1-.3574,1.1553,1.2023,1.2023,0,0,1-.9229.3857,1.1439,1.1439,0,0,1-.9042-.3994A1.6815,1.6815,0,0,1,542.7783,301.65Z"/><path class="cls-8" d="M554.9971,298.6636H550.043a3.3645,3.3645,0,0,0,.3476,1.5215,2.3276,2.3276,0,0,0,2.1387,1.3261,3.0306,3.0306,0,0,0,.83-.1064,2.7274,2.7274,0,0,0,.7285-.334,5.6627,5.6627,0,0,0,.6494-.4873q.296-.2594.7695-.7051a.8314.8314,0,0,1,.5567-.167.916.916,0,0,1,.6308.2139.76.76,0,0,1,.2412.6025,1.6567,1.6567,0,0,1-.2685.8028,3.19,3.19,0,0,1-.8125.8808,4.5976,4.5976,0,0,1-1.3633.7,5.8728,5.8728,0,0,1-1.8877.2793,5.0522,5.0522,0,0,1-3.7949-1.3926,5.179,5.179,0,0,1-1.3545-3.7754,6.3031,6.3031,0,0,1,.334-2.083,4.5974,4.5974,0,0,1,.9746-1.6464,4.215,4.215,0,0,1,1.5771-1.0528,5.6636,5.6636,0,0,1,2.0782-.3662,4.9206,4.9206,0,0,1,2.5459.626,4.1153,4.1153,0,0,1,1.5918,1.6182,4.2581,4.2581,0,0,1,.5283,2.0234q0,.955-.5469,1.2383A3.4165,3.4165,0,0,1,554.9971,298.6636Zm-4.9541-1.4385h4.5918a3.0744,3.0744,0,0,0-.7-1.9434,2.0986,2.0986,0,0,0-1.6006-.6455,2.0287,2.0287,0,0,0-1.5537.6543A3.25,3.25,0,0,0,550.043,297.2251Z"/><path class="cls-8" d="M568.3008,300.0542a2.1846,2.1846,0,0,1-.2832,1.0117,3.494,3.494,0,0,1-.8623,1.0254,4.46,4.46,0,0,1-1.4619.7832,6.1893,6.1893,0,0,1-1.9854.2969,4.8436,4.8436,0,0,1-3.6641-1.3682,5.0633,5.0633,0,0,1-1.3173-3.6689,6.0441,6.0441,0,0,1,.6025-2.7559,4.3389,4.3389,0,0,1,1.7441-1.8506,5.9389,5.9389,0,0,1,4.5323-.3662,4.7023,4.7023,0,0,1,1.3916.7422,3.5414,3.5414,0,0,1,.872.97,1.917,1.917,0,0,1,.3018.96,1.0121,1.0121,0,0,1-.3389.7695,1.16,1.16,0,0,1-.8213.3164.8251.8251,0,0,1-.5234-.1631,2.5031,2.5031,0,0,1-.4687-.5244,3.8346,3.8346,0,0,0-.97-1.0566,2.38,2.38,0,0,0-3.0937.5234,3.793,3.793,0,0,0-.6865,2.3985,4.6383,4.6383,0,0,0,.1757,1.3125,2.9724,2.9724,0,0,0,.5108,1.0205,2.1772,2.1772,0,0,0,.8066.6406,2.4513,2.4513,0,0,0,1.0391.2178,2.3379,2.3379,0,0,0,1.3037-.3526,3.0817,3.0817,0,0,0,.96-1.0761,2.4716,2.4716,0,0,1,.5009-.668.9516.9516,0,0,1,.6592-.2412.9758.9758,0,0,1,.7695.3525A1.13,1.13,0,0,1,568.3008,300.0542Z"/><path class="cls-8" d="M570.6475,293.1147h.2783v-1.5214c0-.4082.0107-.7276.0322-.96a1.4288,1.4288,0,0,1,.1816-.5986,1.1427,1.1427,0,0,1,.4268-.4219,1.2181,1.2181,0,0,1,.6211-.1621,1.2553,1.2553,0,0,1,.8721.3613,1.0719,1.0719,0,0,1,.3291.59,5.2949,5.2949,0,0,1,.07.9882v1.7246h.9277a1.1862,1.1862,0,0,1,.82.2559.8377.8377,0,0,1,.2832.6543.7323.7323,0,0,1-.4033.7139,2.6269,2.6269,0,0,1-1.1553.2041h-.4726V299.6a7.7166,7.7166,0,0,0,.041.9141.9374.9374,0,0,0,.2227.5195.7639.7639,0,0,0,.59.1992,3.1425,3.1425,0,0,0,.6025-.0791,3.1912,3.1912,0,0,1,.5938-.0781.7632.7632,0,0,1,.5517.2451.8253.8253,0,0,1,.2461.6084,1.0165,1.0165,0,0,1-.6679.9365,4.5059,4.5059,0,0,1-1.92.3252,3.32,3.32,0,0,1-1.8-.3994,1.8507,1.8507,0,0,1-.8027-1.1045,7.4781,7.4781,0,0,1-.19-1.8828v-4.8613h-.334a1.2062,1.2062,0,0,1-.835-.26.8485.8485,0,0,1-.2871-.6582.8193.8193,0,0,1,.3008-.6543A1.3253,1.3253,0,0,1,570.6475,293.1147Z"/><path class="cls-8" d="M580.5645,299.1362h-2.9317a1.4781,1.4781,0,0,1-1.0156-.31,1.0247,1.0247,0,0,1-.3477-.8028,1.05,1.05,0,0,1,.3379-.8115,1.4755,1.4755,0,0,1,1.0254-.3115h2.9317a1.4733,1.4733,0,0,1,1.0253.3115,1.1364,1.1364,0,0,1,.0049,1.6143A1.4721,1.4721,0,0,1,580.5645,299.1362Z"/><path class="cls-8" d="M441.9805,321.4634h-4.9541a3.3645,3.3645,0,0,0,.3476,1.5215,2.3271,2.3271,0,0,0,2.1387,1.3261,3.0306,3.0306,0,0,0,.83-.1064,2.7274,2.7274,0,0,0,.7285-.334,5.6511,5.6511,0,0,0,.6494-.4873q.296-.2594.7695-.7051a.8314.8314,0,0,1,.5567-.167.916.916,0,0,1,.6308.2139.76.76,0,0,1,.2412.6025,1.6564,1.6564,0,0,1-.2685.8028,3.19,3.19,0,0,1-.8125.8808,4.5976,4.5976,0,0,1-1.3633.7,5.8728,5.8728,0,0,1-1.8877.2793,5.0522,5.0522,0,0,1-3.7949-1.3926,5.1789,5.1789,0,0,1-1.3545-3.7753,6.3033,6.3033,0,0,1,.334-2.0831,4.5974,4.5974,0,0,1,.9746-1.6464,4.2162,4.2162,0,0,1,1.5771-1.0528,5.6636,5.6636,0,0,1,2.0782-.3662,4.9206,4.9206,0,0,1,2.5459.626,4.116,4.116,0,0,1,1.5918,1.6182,4.2581,4.2581,0,0,1,.5283,2.0234q0,.9551-.5469,1.2383A3.4152,3.4152,0,0,1,441.9805,321.4634Zm-4.9541-1.4385h4.5918a3.0744,3.0744,0,0,0-.7-1.9434,2.0986,2.0986,0,0,0-1.6006-.6455,2.0287,2.0287,0,0,0-1.5537.6543A3.25,3.25,0,0,0,437.0264,320.0249Z"/><path class="cls-8" d="M453.1406,324.5435v-.251a6.4556,6.4556,0,0,1-1.0058.9512,3.8147,3.8147,0,0,1-1.0762.5566,4.071,4.071,0,0,1-1.2666.19,3.7248,3.7248,0,0,1-1.6836-.3857,3.9229,3.9229,0,0,1-1.3408-1.0987,5.01,5.01,0,0,1-.8584-1.68,7.1863,7.1863,0,0,1-.292-2.0879,5.4383,5.4383,0,0,1,1.1592-3.7012,3.8573,3.8573,0,0,1,3.0527-1.3262,4.1058,4.1058,0,0,1,1.8457.375,5.1614,5.1614,0,0,1,1.4658,1.1553v-3.7393a1.8848,1.8848,0,0,1,.3115-1.1777,1.0568,1.0568,0,0,1,.8858-.3984,1.0977,1.0977,0,0,1,.8857.3662,1.6328,1.6328,0,0,1,.3106,1.081v11.17a1.55,1.55,0,0,1-.334,1.0849,1.12,1.12,0,0,1-.8623.3623,1.1066,1.1066,0,0,1-.8584-.376A1.5492,1.5492,0,0,1,453.1406,324.5435Zm-4.9814-3.7207a4.3154,4.3154,0,0,0,.32,1.7539,2.4368,2.4368,0,0,0,.876,1.09,2.1679,2.1679,0,0,0,1.2158.3662,2.2457,2.2457,0,0,0,1.22-.3476,2.3966,2.3966,0,0,0,.8819-1.0674,4.3193,4.3193,0,0,0,.3291-1.7949,4.21,4.21,0,0,0-.3291-1.7393,2.62,2.62,0,0,0-.8907-1.1133,2.13,2.13,0,0,0-1.2295-.3857,2.0736,2.0736,0,0,0-1.2431.3945,2.53,2.53,0,0,0-.8487,1.1318A4.5006,4.5006,0,0,0,448.1592,320.8228Z"/><path class="cls-8" d="M462.6221,315.9146h.6035v-.76a4.8686,4.8686,0,0,1,.3017-1.8887,1.9155,1.9155,0,0,1,1.0206-1.02,4.9531,4.9531,0,0,1,1.9707-.3193q2.2178,0,2.2177,1.0849a.8547.8547,0,0,1-.2324.6026.719.719,0,0,1-.5469.2509,3.9029,3.9029,0,0,1-.5107-.0556,4.1376,4.1376,0,0,0-.6123-.0557q-.687,0-.8809.4033a2.73,2.73,0,0,0-.1953,1.1553v.6026h.6221q1.4472,0,1.4472.873c0,.4141-.1289.6768-.3847.7881a2.7382,2.7382,0,0,1-1.0625.167h-.6221v6.707a1.6555,1.6555,0,0,1-.3564,1.1465,1.1914,1.1914,0,0,1-.9239.3945,1.1557,1.1557,0,0,1-.8945-.3945,1.6508,1.6508,0,0,1-.3574-1.1465v-6.707h-.6963a1.3286,1.3286,0,0,1-.8721-.2549.8225.8225,0,0,1-.3056-.6631Q461.3516,315.9151,462.6221,315.9146Z"/><path class="cls-8" d="M471.668,322.3345V324.45a1.6307,1.6307,0,0,1-.3623,1.1553,1.2049,1.2049,0,0,1-.918.3857,1.1615,1.1615,0,0,1-.9-.3906,1.6605,1.6605,0,0,1-.3525-1.15v-7.0508q0-1.7066,1.2343-1.707a1.0316,1.0316,0,0,1,.9092.3994,2.2019,2.2019,0,0,1,.3057,1.1787,4.4262,4.4262,0,0,1,.9326-1.1787,1.927,1.927,0,0,1,1.2754-.3994,3.2709,3.2709,0,0,1,1.55.3994,1.19,1.19,0,0,1,.751,1.0576,1.0076,1.0076,0,0,1-.3194.7657.9934.9934,0,0,1-.6914.3007,3.169,3.169,0,0,1-.6728-.1709,3.1363,3.1363,0,0,0-.9414-.1718,1.3784,1.3784,0,0,0-.9092.292,1.8777,1.8777,0,0,0-.5479.8671,6.03,6.03,0,0,0-.2685,1.3692Q471.6675,321.1934,471.668,322.3345Z"/><path class="cls-8" d="M486.2334,320.8413a5.9981,5.9981,0,0,1-.3525,2.0869,4.614,4.614,0,0,1-1.02,1.6426,4.5019,4.5019,0,0,1-1.5958,1.0527,5.647,5.647,0,0,1-2.0878.3672,5.4852,5.4852,0,0,1-2.0684-.3711,4.5655,4.5655,0,0,1-2.6123-2.6953,6.4407,6.4407,0,0,1,.0049-4.1894,4.59,4.59,0,0,1,1.0117-1.6328,4.4491,4.4491,0,0,1,1.5957-1.043,6.0338,6.0338,0,0,1,4.1562.0039,4.4944,4.4944,0,0,1,2.62,2.6914A5.9954,5.9954,0,0,1,486.2334,320.8413Zm-2.542,0a3.7971,3.7971,0,0,0-.6826-2.4121,2.2133,2.2133,0,0,0-1.832-.8623,2.2649,2.2649,0,0,0-1.3077.3848,2.4316,2.4316,0,0,0-.872,1.1367,5.1515,5.1515,0,0,0-.0049,3.4883,2.49,2.49,0,0,0,.8623,1.1357,2.2384,2.2384,0,0,0,1.3223.3945,2.2093,2.2093,0,0,0,1.832-.8672A3.7853,3.7853,0,0,0,483.6914,320.8413Z"/><path class="cls-8" d="M496.6514,321.0269v3.3681a1.73,1.73,0,0,1-.3614,1.1963,1.2311,1.2311,0,0,1-.956.3994,1.1909,1.1909,0,0,1-.9317-.3994,1.7447,1.7447,0,0,1-.3574-1.1963v-4.0361a13.0105,13.0105,0,0,0-.0654-1.4844,1.6077,1.6077,0,0,0-.3525-.8672,1.13,1.13,0,0,0-.9092-.3388,1.6135,1.6135,0,0,0-1.6367.8535,6.0081,6.0081,0,0,0-.3946,2.4492v3.4238a1.7456,1.7456,0,0,1-.3574,1.1914,1.1952,1.1952,0,0,1-.9414.4043,1.2119,1.2119,0,0,1-.9414-.4043,1.713,1.713,0,0,1-.3672-1.1914v-7.2461a1.5887,1.5887,0,0,1,.33-1.0859,1.1021,1.1021,0,0,1,.8672-.3711,1.1758,1.1758,0,0,1,.8672.3486,1.2945,1.2945,0,0,1,.3476.96v.2412a4.4081,4.4081,0,0,1,1.41-1.1592,3.7113,3.7113,0,0,1,1.67-.3711,3.3393,3.3393,0,0,1,1.6426.38,2.9819,2.9819,0,0,1,1.1318,1.15,4.4032,4.4032,0,0,1,1.3731-1.1553,3.5082,3.5082,0,0,1,1.623-.375,3.6988,3.6988,0,0,1,1.791.4082,2.5914,2.5914,0,0,1,1.1221,1.168,5.3529,5.3529,0,0,1,.3252,2.1621v4.9453a1.73,1.73,0,0,1-.3623,1.1963,1.2292,1.2292,0,0,1-.9551.3994,1.2119,1.2119,0,0,1-.9414-.4043,1.713,1.713,0,0,1-.3672-1.1914v-4.2588a9.6836,9.6836,0,0,0-.0693-1.3076,1.498,1.498,0,0,0-.376-.8262,1.1986,1.1986,0,0,0-.9277-.3339,1.6935,1.6935,0,0,0-.95.2968,2.0141,2.0141,0,0,0-.7012.7979A6.3374,6.3374,0,0,0,496.6514,321.0269Z"/><path class="cls-8" d="M516.1895,324.561a7.8391,7.8391,0,0,1-1.7764,1.0723,4.9822,4.9822,0,0,1-1.9248.3574,3.6481,3.6481,0,0,1-1.7119-.3857,2.8124,2.8124,0,0,1-1.1368-1.044,2.7071,2.7071,0,0,1-.3984-1.4277,2.5557,2.5557,0,0,1,.6582-1.7725,3.2965,3.2965,0,0,1,1.81-.9834q.24-.0557,1.1963-.25.9551-.1962,1.6377-.3574t1.48-.3945a2.6441,2.6441,0,0,0-.4034-1.4707,1.807,1.807,0,0,0-1.48-.4688,3.08,3.08,0,0,0-1.4521.27,2.37,2.37,0,0,0-.835.8066,8.4034,8.4034,0,0,1-.4912.71.8053.8053,0,0,1-.6172.1718,1.0764,1.0764,0,0,1-.7373-.2734.89.89,0,0,1-.3115-.7,2.1417,2.1417,0,0,1,.4736-1.2988,3.3745,3.3745,0,0,1,1.4747-1.0391,6.6418,6.6418,0,0,1,2.496-.4082,7.0644,7.0644,0,0,1,2.625.3936,2.4471,2.4471,0,0,1,1.3506,1.248,5.4608,5.4608,0,0,1,.3936,2.2637q0,.8905-.0039,1.5127-.0059.621-.0147,1.3818a5.0792,5.0792,0,0,0,.2373,1.4893,4.7249,4.7249,0,0,1,.2364.997.9349.9349,0,0,1-.3662.71,1.2335,1.2335,0,0,1-.8311.32,1.1192,1.1192,0,0,1-.7695-.3672A5.3751,5.3751,0,0,1,516.1895,324.561Zm-.167-3.664a12.7783,12.7783,0,0,1-1.6182.4316q-1.0635.2271-1.4707.334a2.0005,2.0005,0,0,0-.7793.417,1.07,1.07,0,0,0-.3711.8682,1.2841,1.2841,0,0,0,.4356.9785,1.616,1.616,0,0,0,1.1416.4033,2.9672,2.9672,0,0,0,1.3867-.3291,2.2,2.2,0,0,0,.9326-.85,3.879,3.879,0,0,0,.3428-1.8926Z"/><path class="cls-8" d="M535.1436,317.5474v7.3574a7.6977,7.6977,0,0,1-.27,2.1709,3.4769,3.4769,0,0,1-.8623,1.5029,3.62,3.62,0,0,1-1.5547.8809,8.4222,8.4222,0,0,1-2.3886.2881,6.95,6.95,0,0,1-2.3379-.3663,4.0534,4.0534,0,0,1-1.586-.9462,1.7268,1.7268,0,0,1-.5566-1.1924.98.98,0,0,1,.3154-.7559,1.0777,1.0777,0,0,1,.7608-.293,1.246,1.246,0,0,1,.9736.4922c.1357.167.2773.335.4219.5059a2.4687,2.4687,0,0,0,.4824.4355,1.9036,1.9036,0,0,0,.6357.27,3.7241,3.7241,0,0,0,.8535.0879,3.4682,3.4682,0,0,0,1.5264-.2735,1.5653,1.5653,0,0,0,.7608-.7656,3.0668,3.0668,0,0,0,.2548-1.0527q.0367-.5611.0557-1.8047a4.1639,4.1639,0,0,1-1.35,1.2431,3.6923,3.6923,0,0,1-1.8232.4268,3.8444,3.8444,0,0,1-2.2217-.6494,4.1449,4.1449,0,0,1-1.461-1.8184,6.6832,6.6832,0,0,1-.5107-2.7,6.4017,6.4017,0,0,1,.3105-2.0586,4.3256,4.3256,0,0,1,.8868-1.55,3.7877,3.7877,0,0,1,1.3261-.9511,4.1809,4.1809,0,0,1,1.6514-.3194,3.9813,3.9813,0,0,1,1.8652.4121,4.55,4.55,0,0,1,1.4659,1.295v-.3438a1.4734,1.4734,0,0,1,.3242-1.0205,1.0722,1.0722,0,0,1,.8349-.3623.986.986,0,0,1,.9746.4785A3.1409,3.1409,0,0,1,535.1436,317.5474Zm-7.3389,3.2109a3.5038,3.5038,0,0,0,.6728,2.3281,2.1815,2.1815,0,0,0,1.7393.7891,2.2716,2.2716,0,0,0,1.1924-.3389,2.49,2.49,0,0,0,.914-1.0205,3.5807,3.5807,0,0,0,.3526-1.6562,3.7975,3.7975,0,0,0-.6826-2.4121,2.1765,2.1765,0,0,0-1.795-.8633,2.1061,2.1061,0,0,0-1.7392.8261A3.7,3.7,0,0,0,527.8047,320.7583Z"/><path class="cls-8" d="M546.7119,320.8413a5.975,5.975,0,0,1-.3525,2.0869,4.614,4.614,0,0,1-1.0205,1.6426,4.5015,4.5015,0,0,1-1.5957,1.0527,5.6427,5.6427,0,0,1-2.087.3672,5.4867,5.4867,0,0,1-2.0693-.3711,4.5676,4.5676,0,0,1-2.6113-2.6953,6.4407,6.4407,0,0,1,.0049-4.1894,4.5749,4.5749,0,0,1,1.0107-1.6328,4.4578,4.4578,0,0,1,1.5957-1.043,6.0341,6.0341,0,0,1,4.1563.0039,4.4927,4.4927,0,0,1,2.6211,2.6914A5.9955,5.9955,0,0,1,546.7119,320.8413Zm-2.542,0a3.797,3.797,0,0,0-.6816-2.4121,2.2134,2.2134,0,0,0-1.8321-.8623,2.2675,2.2675,0,0,0-1.3085.3848,2.4375,2.4375,0,0,0-.8721,1.1367,5.1594,5.1594,0,0,0-.0039,3.4883,2.4832,2.4832,0,0,0,.8623,1.1357,2.234,2.234,0,0,0,1.3222.3945,2.2094,2.2094,0,0,0,1.8321-.8672A3.7851,3.7851,0,0,0,544.17,320.8413Z"/><path class="cls-8" d="M558.1885,320.8413a5.9958,5.9958,0,0,1-.3526,2.0869,4.6126,4.6126,0,0,1-1.0205,1.6426,4.5006,4.5006,0,0,1-1.5957,1.0527,5.6472,5.6472,0,0,1-2.0879.3672,5.4847,5.4847,0,0,1-2.0683-.3711,4.5655,4.5655,0,0,1-2.6123-2.6953,6.4407,6.4407,0,0,1,.0049-4.1894,4.59,4.59,0,0,1,1.0117-1.6328,4.4483,4.4483,0,0,1,1.5957-1.043,6.0338,6.0338,0,0,1,4.1562.0039,4.4939,4.4939,0,0,1,2.62,2.6914A5.9931,5.9931,0,0,1,558.1885,320.8413Zm-2.542,0a3.7977,3.7977,0,0,0-.6826-2.4121,2.2135,2.2135,0,0,0-1.8321-.8623,2.2648,2.2648,0,0,0-1.3076.3848,2.4317,2.4317,0,0,0-.8721,1.1367,5.1523,5.1523,0,0,0-.0048,3.4883,2.4886,2.4886,0,0,0,.8623,1.1357,2.2384,2.2384,0,0,0,1.3222.3945,2.21,2.21,0,0,0,1.8321-.8672A3.7859,3.7859,0,0,0,555.6465,320.8413Z"/><path class="cls-8" d="M567.1221,324.5435v-.251a6.4559,6.4559,0,0,1-1.0059.9512,3.812,3.812,0,0,1-1.0762.5566,4.0705,4.0705,0,0,1-1.2666.19,3.7254,3.7254,0,0,1-1.6836-.3857,3.9238,3.9238,0,0,1-1.3408-1.0987,5.0121,5.0121,0,0,1-.8584-1.68,7.19,7.19,0,0,1-.292-2.0879,5.4388,5.4388,0,0,1,1.1592-3.7012,3.8573,3.8573,0,0,1,3.0527-1.3262,4.1055,4.1055,0,0,1,1.8457.375,5.1631,5.1631,0,0,1,1.4659,1.1553v-3.7393a1.8848,1.8848,0,0,1,.3115-1.1777,1.0564,1.0564,0,0,1,.8857-.3984,1.0981,1.0981,0,0,1,.8858.3662,1.6334,1.6334,0,0,1,.31,1.081v11.17a1.55,1.55,0,0,1-.334,1.0849,1.12,1.12,0,0,1-.8623.3623,1.1067,1.1067,0,0,1-.8584-.376A1.55,1.55,0,0,1,567.1221,324.5435Zm-4.9815-3.7207a4.3171,4.3171,0,0,0,.32,1.7539,2.4368,2.4368,0,0,0,.876,1.09,2.1681,2.1681,0,0,0,1.2158.3662,2.2463,2.2463,0,0,0,1.22-.3476,2.3964,2.3964,0,0,0,.8818-1.0674,4.3193,4.3193,0,0,0,.3291-1.7949,4.21,4.21,0,0,0-.3291-1.7393,2.6187,2.6187,0,0,0-.8906-1.1133,2.13,2.13,0,0,0-1.2295-.3857,2.0739,2.0739,0,0,0-1.2432.3945,2.53,2.53,0,0,0-.8486,1.1318A4.4986,4.4986,0,0,0,562.1406,320.8228Z"/><path class="cls-8" d="M441.98,345.478a2.9365,2.9365,0,0,1-2.0176,2.9268,6.752,6.752,0,0,1-2.4258.3857,5.9175,5.9175,0,0,1-2.3379-.4179,3.4051,3.4051,0,0,1-1.4384-1.044,2.0984,2.0984,0,0,1-.4639-1.2568.9743.9743,0,0,1,.2969-.7149,1.0216,1.0216,0,0,1,.7519-.2968.8778.8778,0,0,1,.6123.1953,2.1567,2.1567,0,0,1,.4082.5468,2.7746,2.7746,0,0,0,.9317,1.0118,2.8155,2.8155,0,0,0,1.48.3339,2.13,2.13,0,0,0,1.2471-.3388.9507.9507,0,0,0,.4873-.7744,1.0545,1.0545,0,0,0-.5058-.9746,6.28,6.28,0,0,0-1.6651-.584,13.8036,13.8036,0,0,1-2.1289-.6817,3.5074,3.5074,0,0,1-1.3125-.9414,2.1591,2.1591,0,0,1-.4922-1.4384,2.5355,2.5355,0,0,1,.4551-1.4385,3.1164,3.1164,0,0,1,1.34-1.08,5.1288,5.1288,0,0,1,2.1387-.4043,6.9973,6.9973,0,0,1,1.7676.2051,4.3921,4.3921,0,0,1,1.3076.5469,2.6862,2.6862,0,0,1,.7979.7607,1.4892,1.4892,0,0,1,.2744.8164.94.94,0,0,1-.293.7139,1.1564,1.1564,0,0,1-.83.2793,1.0176,1.0176,0,0,1-.6631-.2227,4.3292,4.3292,0,0,1-.6259-.668,2.29,2.29,0,0,0-.6778-.5937,2.1342,2.1342,0,0,0-1.0576-.2227,2.0637,2.0637,0,0,0-1.1406.292.8509.8509,0,0,0-.4551.7276.7878.7878,0,0,0,.334.6543,2.7526,2.7526,0,0,0,.9.4218q.5654.1671,1.5586.4082a8.3316,8.3316,0,0,1,1.9248.6875,3.192,3.192,0,0,1,1.1318.9414A2.0842,2.0842,0,0,1,441.98,345.478Z"/><path class="cls-8" d="M444.123,347.25V336.2651a1.7108,1.7108,0,0,1,.3379-1.15,1.15,1.15,0,0,1,.9141-.3886,1.1975,1.1975,0,0,1,.9277.3847,1.6575,1.6575,0,0,1,.3526,1.1543V347.25a1.6441,1.6441,0,0,1-.3574,1.1553,1.201,1.201,0,0,1-.9229.3857,1.1439,1.1439,0,0,1-.9043-.3994A1.6818,1.6818,0,0,1,444.123,347.25Z"/><path class="cls-8" d="M456.3408,344.2632h-4.9541a3.3531,3.3531,0,0,0,.3487,1.5215,2.3271,2.3271,0,0,0,2.1376,1.3261,3.0375,3.0375,0,0,0,.8311-.1064,2.72,2.72,0,0,0,.7275-.334,5.5751,5.5751,0,0,0,.6495-.4873q.2973-.2592.7705-.7051a.831.831,0,0,1,.5566-.167.9162.9162,0,0,1,.6309.2139.7631.7631,0,0,1,.2412.6025,1.649,1.649,0,0,1-.27.8028,3.1831,3.1831,0,0,1-.8115.8808,4.5976,4.5976,0,0,1-1.3633.7,5.879,5.879,0,0,1-1.8886.2793,5.0486,5.0486,0,0,1-3.794-1.3926,5.1789,5.1789,0,0,1-1.3545-3.7753,6.3049,6.3049,0,0,1,.334-2.083,4.5978,4.5978,0,0,1,.9736-1.6465,4.2166,4.2166,0,0,1,1.5772-1.0528,5.6668,5.6668,0,0,1,2.0781-.3662,4.9241,4.9241,0,0,1,2.5469.626,4.1186,4.1186,0,0,1,1.5908,1.6182,4.2584,4.2584,0,0,1,.5293,2.0234q0,.9551-.5478,1.2383A3.413,3.413,0,0,1,456.3408,344.2632Zm-4.9541-1.4385H455.98a3.0847,3.0847,0,0,0-.7-1.9434,2.1,2.1,0,0,0-1.6006-.6455,2.0275,2.0275,0,0,0-1.5537.6543A3.257,3.257,0,0,0,451.3867,342.8247Z"/><path class="cls-8" d="M467.6318,344.2632h-4.9541a3.3658,3.3658,0,0,0,.3477,1.5215,2.3271,2.3271,0,0,0,2.1387,1.3261,3.0294,3.0294,0,0,0,.83-.1064,2.728,2.728,0,0,0,.7286-.334,5.6686,5.6686,0,0,0,.6494-.4873q.2958-.2592.7695-.7051a.8311.8311,0,0,1,.5566-.167.9161.9161,0,0,1,.6309.2139.76.76,0,0,1,.2412.6025,1.6564,1.6564,0,0,1-.2685.8028,3.19,3.19,0,0,1-.8125.8808,4.5988,4.5988,0,0,1-1.3633.7,5.8737,5.8737,0,0,1-1.8877.2793,5.0521,5.0521,0,0,1-3.7949-1.3926,5.1785,5.1785,0,0,1-1.3545-3.7753,6.3023,6.3023,0,0,1,.334-2.083,4.597,4.597,0,0,1,.9746-1.6465,4.2154,4.2154,0,0,1,1.5771-1.0528,5.663,5.663,0,0,1,2.0781-.3662,4.92,4.92,0,0,1,2.5459.626,4.1146,4.1146,0,0,1,1.5918,1.6182,4.2571,4.2571,0,0,1,.5284,2.0234,1.2629,1.2629,0,0,1-.5469,1.2383A3.4157,3.4157,0,0,1,467.6318,344.2632Zm-4.9541-1.4385H467.27a3.0732,3.0732,0,0,0-.7-1.9434,2.0982,2.0982,0,0,0-1.6005-.6455,2.029,2.029,0,0,0-1.5538.6543A3.2517,3.2517,0,0,0,462.6777,342.8247Z"/><path class="cls-8" d="M473.94,339.9116v.3067a4.9917,4.9917,0,0,1,1.4844-1.295,3.64,3.64,0,0,1,1.7441-.4121,4.0376,4.0376,0,0,1,2.1524.6026,4.1588,4.1588,0,0,1,1.5537,1.7627,6.1645,6.1645,0,0,1,.57,2.7461,6.6924,6.6924,0,0,1-.3291,2.1474,4.8289,4.8289,0,0,1-.9043,1.6426,3.9534,3.9534,0,0,1-1.3594,1.0205,4.0247,4.0247,0,0,1-1.6836.3574,3.525,3.525,0,0,1-1.8232-.4365,5.2124,5.2124,0,0,1-1.4053-1.28v3.8037q0,1.67-1.2158,1.67a.973.973,0,0,1-.9463-.4317,2.7171,2.7171,0,0,1-.2314-1.2568V339.93a1.5919,1.5919,0,0,1,.3154-1.0811,1.0929,1.0929,0,0,1,.8623-.3574,1.141,1.141,0,0,1,.877.3672A1.4962,1.4962,0,0,1,473.94,339.9116Zm4.9629,3.6836a4.3836,4.3836,0,0,0-.3056-1.7217,2.5254,2.5254,0,0,0-.85-1.1035,2.0269,2.0269,0,0,0-1.2011-.3857,2.2544,2.2544,0,0,0-1.7676.8261,3.6086,3.6086,0,0,0-.7188,2.4307,3.5189,3.5189,0,0,0,.7149,2.3516,2.2315,2.2315,0,0,0,1.7715.84,2.0347,2.0347,0,0,0,1.1689-.3662,2.5265,2.5265,0,0,0,.8633-1.1A4.3689,4.3689,0,0,0,478.9033,343.5952Z"/><path class="cls-8" d="M488.2275,347.25V336.2651a1.71,1.71,0,0,1,.3379-1.15,1.15,1.15,0,0,1,.9141-.3886,1.1975,1.1975,0,0,1,.9277.3847,1.6575,1.6575,0,0,1,.3526,1.1543V347.25a1.6436,1.6436,0,0,1-.3575,1.1553,1.2007,1.2007,0,0,1-.9228.3857,1.1439,1.1439,0,0,1-.9043-.3994A1.6818,1.6818,0,0,1,488.2275,347.25Z"/><path class="cls-8" d="M499.7773,347.3608a7.8387,7.8387,0,0,1-1.7763,1.0723,4.9822,4.9822,0,0,1-1.9248.3574,3.6479,3.6479,0,0,1-1.7119-.3857,2.8118,2.8118,0,0,1-1.1368-1.044,2.7071,2.7071,0,0,1-.3984-1.4277,2.5557,2.5557,0,0,1,.6582-1.7725,3.2965,3.2965,0,0,1,1.81-.9834q.24-.0557,1.1963-.25.9551-.1962,1.6377-.3574t1.48-.3945a2.6441,2.6441,0,0,0-.4034-1.4707,1.807,1.807,0,0,0-1.4795-.4688,3.08,3.08,0,0,0-1.4521.27,2.37,2.37,0,0,0-.835.8066,8.4034,8.4034,0,0,1-.4912.71.8053.8053,0,0,1-.6172.1718,1.0764,1.0764,0,0,1-.7373-.2734.89.89,0,0,1-.3115-.7,2.1417,2.1417,0,0,1,.4736-1.2988,3.3747,3.3747,0,0,1,1.4746-1.0391,6.6423,6.6423,0,0,1,2.4961-.4082,7.0644,7.0644,0,0,1,2.625.3936,2.4471,2.4471,0,0,1,1.3506,1.248,5.4608,5.4608,0,0,1,.3936,2.2637q0,.8906-.0039,1.5127-.0059.6211-.0147,1.3818a5.0792,5.0792,0,0,0,.2373,1.4893,4.7239,4.7239,0,0,1,.2364.9971.9347.9347,0,0,1-.3663.71,1.2331,1.2331,0,0,1-.831.32,1.1192,1.1192,0,0,1-.7695-.3672A5.3789,5.3789,0,0,1,499.7773,347.3608Zm-.1669-3.664a12.7612,12.7612,0,0,1-1.6182.4316q-1.0635.2271-1.4707.334a2.0005,2.0005,0,0,0-.7793.417,1.07,1.07,0,0,0-.3711.8682,1.2844,1.2844,0,0,0,.4355.9785,1.6163,1.6163,0,0,0,1.1416.4033,2.9673,2.9673,0,0,0,1.3868-.3291,2.2,2.2,0,0,0,.9326-.85,3.879,3.879,0,0,0,.3428-1.8926Z"/><path class="cls-8" d="M512.8213,345.478a2.9365,2.9365,0,0,1-2.0176,2.9268,6.752,6.752,0,0,1-2.4258.3857,5.9175,5.9175,0,0,1-2.3379-.4179,3.4051,3.4051,0,0,1-1.4384-1.044,2.0984,2.0984,0,0,1-.4639-1.2568.9743.9743,0,0,1,.2969-.7149,1.0216,1.0216,0,0,1,.7519-.2968.8781.8781,0,0,1,.6123.1953,2.1591,2.1591,0,0,1,.4082.5468,2.7746,2.7746,0,0,0,.9317,1.0118,2.8155,2.8155,0,0,0,1.48.3339,2.13,2.13,0,0,0,1.2471-.3388.9507.9507,0,0,0,.4873-.7744,1.0547,1.0547,0,0,0-.5058-.9746,6.28,6.28,0,0,0-1.6651-.584,13.8,13.8,0,0,1-2.1289-.6817,3.5074,3.5074,0,0,1-1.3125-.9414,2.1591,2.1591,0,0,1-.4922-1.4384,2.5355,2.5355,0,0,1,.4551-1.4385,3.1164,3.1164,0,0,1,1.34-1.08,5.1288,5.1288,0,0,1,2.1387-.4043,6.9973,6.9973,0,0,1,1.7676.2051,4.3921,4.3921,0,0,1,1.3076.5469,2.6862,2.6862,0,0,1,.7979.7607,1.4892,1.4892,0,0,1,.2744.8164.94.94,0,0,1-.293.7139,1.1564,1.1564,0,0,1-.83.2793,1.0176,1.0176,0,0,1-.6631-.2227,4.3292,4.3292,0,0,1-.6259-.668,2.29,2.29,0,0,0-.6778-.5937,2.1342,2.1342,0,0,0-1.0576-.2227,2.0637,2.0637,0,0,0-1.1406.292.8509.8509,0,0,0-.4551.7276.7878.7878,0,0,0,.334.6543,2.7526,2.7526,0,0,0,.9.4218q.5653.1671,1.5586.4082a8.3316,8.3316,0,0,1,1.9248.6875,3.192,3.192,0,0,1,1.1318.9414A2.0842,2.0842,0,0,1,512.8213,345.478Z"/><path class="cls-8" d="M515.1035,338.7144h.2783v-1.5215c0-.4082.0108-.7276.0323-.96a1.4274,1.4274,0,0,1,.1816-.5986,1.1412,1.1412,0,0,1,.4268-.4219,1.2176,1.2176,0,0,1,.6211-.1621,1.2551,1.2551,0,0,1,.872.3613,1.0716,1.0716,0,0,1,.3291.59,5.2863,5.2863,0,0,1,.07.9882v1.7247h.9278a1.1863,1.1863,0,0,1,.82.2558.838.838,0,0,1,.2832.6543.7323.7323,0,0,1-.4033.7139,2.6272,2.6272,0,0,1-1.1553.2041h-.4727V345.2a7.6908,7.6908,0,0,0,.0411.9141.938.938,0,0,0,.2226.5195.7642.7642,0,0,0,.59.1992,3.1345,3.1345,0,0,0,.6025-.0791,3.1913,3.1913,0,0,1,.5937-.0781.7636.7636,0,0,1,.5518.2451.8253.8253,0,0,1,.2461.6084,1.0166,1.0166,0,0,1-.668.9365,4.5056,4.5056,0,0,1-1.92.3252,3.32,3.32,0,0,1-1.8-.3994,1.85,1.85,0,0,1-.8027-1.1045,7.4728,7.4728,0,0,1-.1905-1.8828v-4.8613h-.3339a1.206,1.206,0,0,1-.835-.26.8485.8485,0,0,1-.2871-.6582.8193.8193,0,0,1,.3008-.6543A1.3248,1.3248,0,0,1,515.1035,338.7144Z"/><path class="cls-8" d="M528.7412,339.8931v.3056a4.4382,4.4382,0,0,1,1.4619-1.2939,3.8977,3.8977,0,0,1,1.8223-.4131,3.6383,3.6383,0,0,1,1.791.4365,2.7746,2.7746,0,0,1,1.1777,1.2334,2.9469,2.9469,0,0,1,.3252,1.002,10.486,10.486,0,0,1,.0743,1.373V347.25a1.6793,1.6793,0,0,1-.3477,1.15,1.2495,1.2495,0,0,1-1.8232-.0088,1.6675,1.6675,0,0,1-.3526-1.1416v-4.2207a4.2277,4.2277,0,0,0-.3476-1.916,1.42,1.42,0,0,0-1.3877-.6631,2.0565,2.0565,0,0,0-1.2334.4033,2.3185,2.3185,0,0,0-.8164,1.1094,7.9132,7.9132,0,0,0-.1856,2.1152V347.25a1.6436,1.6436,0,0,1-.3574,1.1553,1.2023,1.2023,0,0,1-.9229.3857,1.15,1.15,0,0,1-.9-.3994,1.6675,1.6675,0,0,1-.3526-1.1416V339.93a1.5971,1.5971,0,0,1,.3154-1.0811,1.095,1.095,0,0,1,.8633-.3574,1.1662,1.1662,0,0,1,.6026.1582,1.1318,1.1318,0,0,1,.4316.4727A1.67,1.67,0,0,1,528.7412,339.8931Z"/><path class="cls-8" d="M539.1973,337.314a1.3419,1.3419,0,0,1-.9053-.3243,1.1514,1.1514,0,0,1-.375-.9189,1.14,1.14,0,0,1,.3848-.8857,1.2908,1.2908,0,0,1,.8955-.3477,1.33,1.33,0,0,1,.872.3145,1.1278,1.1278,0,0,1,.38.9189,1.16,1.16,0,0,1-.3711.9141A1.2814,1.2814,0,0,1,539.1973,337.314Zm1.2519,2.6162V347.25a1.6336,1.6336,0,0,1-.3613,1.15,1.2006,1.2006,0,0,1-.919.3906,1.1442,1.1442,0,0,1-.9043-.3994,1.6818,1.6818,0,0,1-.3476-1.1416v-7.2451a1.6241,1.6241,0,0,1,.3476-1.1318,1.1674,1.1674,0,0,1,.9043-.3809,1.2134,1.2134,0,0,1,.919.3809A1.4734,1.4734,0,0,1,540.4492,339.93Z"/><path class="cls-8" d="M552.38,340.3472v7.3574a7.7369,7.7369,0,0,1-.2686,2.1709,3.4774,3.4774,0,0,1-.8633,1.5029,3.6107,3.6107,0,0,1-1.5537.8809,8.4222,8.4222,0,0,1-2.3886.2881,6.9526,6.9526,0,0,1-2.3379-.3662,4.0587,4.0587,0,0,1-1.5869-.9463,1.7269,1.7269,0,0,1-.5567-1.1924.9835.9835,0,0,1,.3154-.7559,1.0777,1.0777,0,0,1,.7608-.2929,1.2477,1.2477,0,0,1,.9746.4921c.1357.167.2764.335.4219.5059a2.4687,2.4687,0,0,0,.4824.4355,1.8948,1.8948,0,0,0,.6357.27,3.7183,3.7183,0,0,0,.8536.0879,3.468,3.468,0,0,0,1.5263-.2735,1.5653,1.5653,0,0,0,.7608-.7656,3.1108,3.1108,0,0,0,.2548-1.0527q.0367-.5611.0557-1.8047a4.1639,4.1639,0,0,1-1.35,1.2431,3.6923,3.6923,0,0,1-1.8232.4268,3.8444,3.8444,0,0,1-2.2217-.6494A4.1391,4.1391,0,0,1,543.01,346.09a6.6985,6.6985,0,0,1-.51-2.7,6.4017,6.4017,0,0,1,.3105-2.0586,4.3106,4.3106,0,0,1,.8858-1.55,3.8,3.8,0,0,1,1.3271-.9511,4.1774,4.1774,0,0,1,1.6514-.3194,3.9778,3.9778,0,0,1,1.8643.4121,4.5392,4.5392,0,0,1,1.4658,1.295v-.3438a1.4737,1.4737,0,0,1,.3252-1.0205,1.0693,1.0693,0,0,1,.8349-.3623.9846.9846,0,0,1,.9737.4785A3.128,3.128,0,0,1,552.38,340.3472Zm-7.3379,3.2109a3.4983,3.4983,0,0,0,.6728,2.3281,2.18,2.18,0,0,0,1.7393.7891,2.2768,2.2768,0,0,0,1.1924-.3389,2.4886,2.4886,0,0,0,.9131-1.0205,3.5694,3.5694,0,0,0,.3525-1.6562,3.7976,3.7976,0,0,0-.6816-2.4121,2.1765,2.1765,0,0,0-1.795-.8633,2.1061,2.1061,0,0,0-1.7392.8261A3.7,3.7,0,0,0,545.042,343.5581Z"/><path class="cls-8" d="M557.418,336.2651v3.7578a5.39,5.39,0,0,1,.9414-.8808,3.39,3.39,0,0,1,1.0156-.4873,4.2539,4.2539,0,0,1,1.1973-.1631,3.5214,3.5214,0,0,1,1.7119.4082,3.1745,3.1745,0,0,1,1.5351,2.2041,8.0388,8.0388,0,0,1,.0928,1.2939V347.25a1.6793,1.6793,0,0,1-.3476,1.15,1.18,1.18,0,0,1-.9239.3906q-1.2523,0-1.2519-1.541v-4.2764a3.9177,3.9177,0,0,0-.3623-1.8691,1.4268,1.4268,0,0,0-1.3731-.6543,2.0643,2.0643,0,0,0-1.22.3848,2.3182,2.3182,0,0,0-.8115,1.0537,6.7111,6.7111,0,0,0-.2041,2.0127V347.25a1.7129,1.7129,0,0,1-.3389,1.1465,1.1756,1.1756,0,0,1-.9414.3945q-1.2525,0-1.2529-1.541V336.2651a1.7377,1.7377,0,0,1,.33-1.1543,1.1461,1.1461,0,0,1,.9229-.3847,1.1811,1.1811,0,0,1,.9414.3886A1.71,1.71,0,0,1,557.418,336.2651Z"/><path class="cls-8" d="M566.5557,338.7144h.2783v-1.5215c0-.4082.0107-.7276.0322-.96a1.4274,1.4274,0,0,1,.1817-.5986,1.1417,1.1417,0,0,1,.4267-.4219,1.2181,1.2181,0,0,1,.6211-.1621,1.2553,1.2553,0,0,1,.8721.3613,1.0722,1.0722,0,0,1,.3291.59,5.2863,5.2863,0,0,1,.07.9882v1.7247h.9277a1.1861,1.1861,0,0,1,.82.2558.8377.8377,0,0,1,.2832.6543.7322.7322,0,0,1-.4033.7139,2.6269,2.6269,0,0,1-1.1553.2041h-.4726V345.2a7.7166,7.7166,0,0,0,.041.9141.9374.9374,0,0,0,.2227.5195.7639.7639,0,0,0,.59.1992,3.1345,3.1345,0,0,0,.6025-.0791,3.1912,3.1912,0,0,1,.5938-.0781.7636.7636,0,0,1,.5518.2451.8256.8256,0,0,1,.246.6084,1.0165,1.0165,0,0,1-.6679.9365,4.5059,4.5059,0,0,1-1.92.3252,3.32,3.32,0,0,1-1.8-.3994,1.8507,1.8507,0,0,1-.8027-1.1045,7.4781,7.4781,0,0,1-.19-1.8828v-4.8613H566.5a1.2062,1.2062,0,0,1-.835-.26.8485.8485,0,0,1-.2871-.6582.8193.8193,0,0,1,.3008-.6543A1.3253,1.3253,0,0,1,566.5557,338.7144Z"/></g><g id="Layer_1" data-name="Layer 1"><line class="cls-17" x1="311.1667" y1="33.9444" x2="311.1667" y2="720.5562"/><line class="cls-17" x1="39.3333" y1="389.5" x2="572.6667" y2="389.5"/><circle class="cls-18" cx="311.1667" cy="389.5" r="79.8245"/><text class="cls-19" transform="translate(265.5283 413.4716)">Curious <tspan x="3.6445" y="28.7998">Cha</tspan><tspan class="cls-7" x="50.168" y="28.7998">r</tspan><tspan x="60.3633" y="28.7998">lie</tspan></text><text class="cls-20" transform="translate(42.2588 56.8955)"><tspan class="cls-7">T</tspan><tspan x="20.8018" y="0">hin</tspan><tspan class="cls-6" x="71.0879" y="0">k</tspan><tspan x="89.7314" y="0">s</tspan></text><text class="cls-20" transform="translate(485.7361 56.8955)"><tspan class="cls-5">F</tspan><tspan x="19.2412" y="0">eels</tspan></text><text class="cls-20" transform="translate(48.3892 719.0078)">S<tspan class="cls-7" x="22.6777" y="0">ay</tspan><tspan x="60.4131" y="0">s</tspan></text><text class="cls-20" transform="translate(487.2136 719.0078)">Does</text><path class="cls-21" d="M295.6709,354.6537a32.6875,32.6875,0,0,0-14.2128,19.7917,55.9591,55.9591,0,0,0,28.6831,8.5454l1.0254.0092,12.307-13.67L310.141,354.6539h-14.47Z"/><path class="cls-22" d="M326.6624,354.6537H311.1666V383a55.936,55.936,0,0,0,29.7086-8.5546A32.6882,32.6882,0,0,0,326.6624,354.6537Z"/><path class="cls-23" d="M327.5761,380.53a56.2236,56.2236,0,0,0,6.2256-2.334,25.0975,25.0975,0,0,0-6.2256-12.4936Z"/><path class="cls-24" d="M288.5316,378.1962a56.1077,56.1077,0,0,0,6.2257,2.334V365.7024A25.102,25.102,0,0,0,288.5316,378.1962Z"/><path class="cls-23" d="M321.4858,364.5377l-.9178-.9787L311.1666,353.2l-3.3333,13.3961,3.3333,13.67,10.3192-11.0032A3.5,3.5,0,0,0,321.4858,364.5377Z"/><path class="cls-24" d="M301.7651,363.5588c-.2261.2483-.9178.9787-.9178.9787a3.5,3.5,0,0,0,0,4.7255l10.3193,11.0032V353.2S304.1521,360.9378,301.7651,363.5588Z"/><path class="cls-25" d="M311.1666,358.3949l-5.0037-5.3353a3.057,3.057,0,0,0-5.2523,2.32V361.41a3.057,3.057,0,0,0,5.2523,2.32Z"/><path class="cls-26" d="M311.1666,358.3949,316.17,353.06a3.057,3.057,0,0,1,5.2523,2.32V361.41a3.057,3.057,0,0,1-5.2523,2.32Z"/><ellipse class="cls-27" cx="311.1666" cy="358.3949" rx="3.846" ry="4.1009"/><path class="cls-28" d="M362.4386,319.6686c-.2093-6.2416-4.8739-11.3916-10.7174-11.8215a10.9021,10.9021,0,0,0-6.0364,1.3041,50.3017,50.3017,0,0,0-10.4831-20.4688c-6.3631-7.3893-14.7906-12.305-24.0351-12.305-10.0749,0-19.1791,5.839-25.6984,14.3557a50.25,50.25,0,0,0-6.8758,12.2963v6.2581l.0015-.0011-.9976,30.8469c.9612,4.1779,2.2278,7.7224,3.8151,9.3595,5.8469,6.0306,19.7981,8.9018,29.8176,8.9018s23.8456-2.8715,29.6925-8.9018c2.6379-2.7205,4.3914-10.7051,5.3263-18.1186a10.887,10.887,0,0,0,4.66,1.0484C357.4212,332.4226,362.6735,326.6691,362.4386,319.6686Z"/><path class="cls-29" d="M337.701,316.0527a16.3739,16.3739,0,0,1-6.4213-1.3272c-4.4457-1.89-9.8831-5.5541-14.7717-9.3465-2.745-2.1294-5.3177-4.2992-7.4424-6.218a11.9591,11.9591,0,0,0-10.668-2.4777c-5.1015,1.3385-9.3875,6.2218-12.3948,14.1218a3.7686,3.7686,0,0,1-5.01,2.2577,4.1089,4.1089,0,0,1-2.3987-3.7764l-.0015.0011v-6.2581a50.5055,50.5055,0,0,0-1.9443,6.122,10.9092,10.9092,0,0,0-5.2232-1.3339c-6.3723,0-11.5379,5.508-11.5379,12.3025s5.1656,12.3026,11.5379,12.3026a10.8864,10.8864,0,0,0,4.66-1.0484c.3723,2.9522.8752,5.9942,1.5112,8.7589,6.8659,4.0233,17.7219,5.9592,25.9409,5.9592,10.0195,0,23.8456-2.8715,29.6924-8.9018,3.0079-3.1023,4.8662-13.0489,5.6724-21.1887C338.5021,316.0321,338.1019,316.0527,337.701,316.0527Z"/><ellipse class="cls-30" cx="350.9085" cy="320.12" rx="3.846" ry="4.1009"/><ellipse class="cls-28" cx="271.4249" cy="320.12" rx="3.846" ry="4.1009"/><path class="cls-28" d="M298.3467,328.3217a2.0547,2.0547,0,0,1,0-4.101,3.9841,3.9841,0,0,0,3.846-4.1009,1.927,1.927,0,1,1,3.8461,0A7.9684,7.9684,0,0,1,298.3467,328.3217Z"/><path class="cls-28" d="M323.9866,328.3217a7.9682,7.9682,0,0,1-7.6919-8.2017,1.927,1.927,0,1,1,3.8461,0,3.9842,3.9842,0,0,0,3.846,4.101,2.0546,2.0546,0,0,1,0,4.1007Z"/><path class="cls-31" d="M271.97,301.2353a39.3065,39.3065,0,0,1,4.3261-12.447,39.8625,39.8625,0,0,1,43.7252-19.6249l2.7892,1.2566a31.3241,31.3241,0,0,1,9.9655,7.1543l3.9918,4.2563a13.5064,13.5064,0,0,1,0,18.2356h0a11.5358,11.5358,0,0,1-15.0056,1.7865l-10.3413-6.96a19.0465,19.0465,0,0,0-19.1453-1.3518h0a20.8589,20.8589,0,0,0-9.21,9.0448h0a4.92,4.92,0,0,1-7.5987,1.5961Z"/><path class="cls-32" d="M320.0228,269.1652a37.4513,37.4513,0,0,1,10.827,8.8637,9.9308,9.9308,0,0,1-.35,13.0023h0a11.587,11.587,0,0,1-16.0048,1.0908h0a20.0144,20.0144,0,0,0-18.3084-4.3994c-5.1315,1.3455-12.1209,5.4059-17.2312,16.9291-.2063-.1146-.4148-.2242-.6228-.3274q-.2631-.1308-.5323-.2525c-.9677-.4378-3.2717-1.55-5.8341-2.8a7.0175,7.0175,0,0,0,3.9571,7.5187q.1884.0855.3736.1774.393.1955.7693.4214l.0333.02q.3715.2241.726.4748l.0078.0049a5.0818,5.0818,0,0,0,1.6889.81,2.0958,2.0958,0,0,0,2.7854-1.4367c8.0847-21.264,23.0478-18.6831,29.0783-13.2314,4.9006,4.43,14.1882,11.9193,21.1,14.8607a12.6738,12.6738,0,0,0,4.9715,1.0164,13.8518,13.8518,0,0,0,4.7145-.784c5.8254-2.0951,8.8762-8.953,6.9246-15.1694A39.7726,39.7726,0,0,0,320.0228,269.1652Z"/><path class="cls-32" d="M322.9577,310.4768a12.6449,12.6449,0,0,1-4.1563-.7075,2.0822,2.0822,0,0,1-1.2333-2.5845,1.9,1.9,0,0,1,2.424-1.3151,8.9779,8.9779,0,0,0,5.9388-.0011,1.9007,1.9007,0,0,1,2.4229,1.3164,2.0817,2.0817,0,0,1-1.2346,2.5836A12.6741,12.6741,0,0,1,322.9577,310.4768Z"/><path class="cls-32" d="M297.3178,310.4768a12.6449,12.6449,0,0,1-4.1563-.7075,2.0822,2.0822,0,0,1-1.2333-2.5845,1.9009,1.9009,0,0,1,2.424-1.3151,8.9779,8.9779,0,0,0,5.9388-.0011,1.9006,1.9006,0,0,1,2.4229,1.3164,2.0817,2.0817,0,0,1-1.2346,2.5836A12.6741,12.6741,0,0,1,297.3178,310.4768Z"/><path class="cls-32" d="M312.9615,323.469a1.933,1.933,0,0,0-1.8065,1.3532,1.9283,1.9283,0,0,0-1.783-1.285,7.9681,7.9681,0,0,0-7.6918,8.2016,1.99,1.99,0,0,0,1.923,2.05,7.86,7.86,0,0,0,7.57-6.7538,7.8548,7.8548,0,0,0,7.558,6.6856,1.99,1.99,0,0,0,1.9231-2.05A7.9688,7.9688,0,0,0,312.9615,323.469Z"/><ellipse class="cls-33" cx="298.3467" cy="320.12" rx="3.846" ry="4.1009"/><ellipse class="cls-33" cx="323.9866" cy="320.12" rx="3.846" ry="4.1009"/></g></svg>