<svg xmlns="http://www.w3.org/2000/svg" width="612" height="792" viewBox="0 0 612 792"><defs><style>.cls-1,.cls-11,.cls-12{fill:#fff;}.cls-2{fill:#f4ead7;stroke:#fff;}.cls-11,.cls-12,.cls-2{stroke-miterlimit:10;}.cls-3{font-size:19px;}.cls-10,.cls-3,.cls-9{fill:#040404;}.cls-10,.cls-13,.cls-3,.cls-35{font-family:ArialRoundedMTBold, Arial Rounded MT Bold;}.cls-4{letter-spacing:-0.0132em;}.cls-5{letter-spacing:-0.0249em;}.cls-6{letter-spacing:-0.0381em;}.cls-7{letter-spacing:0.0122em;}.cls-8{letter-spacing:-0.0498em;}.cls-10{font-size:20.9202px;}.cls-11{stroke:#494742;}.cls-11,.cls-12{stroke-width:2px;}.cls-12{stroke:#96878b;}.cls-13{font-size:34px;fill:#494742;}.cls-14{fill:#d9d6c1;}.cls-15{fill:#b4b29f;}.cls-16{fill:#a4a191;}.cls-17{fill:#b3b19e;}.cls-18{fill:#ab5034;}.cls-19{fill:#6f3e28;}.cls-20{fill:#8e482f;}.cls-21{fill:#dac69c;}.cls-22{fill:#e6d8b4;}.cls-23{fill:#c9ad80;}.cls-24{fill:#a4a39d;}.cls-25{fill:#91938f;}.cls-26{fill:#484742;}.cls-27{fill:#937ea3;}.cls-28{fill:#7a6194;}.cls-29{fill:#e8c6b4;}.cls-30{fill:#694d78;}.cls-31{fill:#dfb296;}.cls-32{fill:#cf9277;}.cls-33{fill:#9e742b;}.cls-34{fill:#bb9430;}.cls-35{font-size:24px;fill:#030302;}</style></defs><g id="Layer_3" data-name="Layer 3"><rect class="cls-1" width="612" height="792"/></g><g id="Layer_6" data-name="Layer 6"><rect class="cls-2" x="405.1183" y="266.5784" width="184.4924" height="102.9818"/><rect class="cls-2" x="102.9609" y="63.9674" width="184.4924" height="102.9818"/><text/><text class="cls-3" transform="translate(119.7546 108.1361)">I <tspan class="cls-4" x="10.6968" y="0">w</tspan><tspan x="25.8931" y="0">ant to </tspan><tspan class="cls-5" x="83.0879" y="0">g</tspan><tspan x="94.4897" y="0">et this </tspan><tspan class="cls-4" x="24.3154" y="22.7998">ov</tspan><tspan x="45.5884" y="22.7998">er with...</tspan></text><rect class="cls-2" x="391.7442" y="70.8886" width="184.4924" height="102.9818"/><text/><text class="cls-3" transform="translate(409.8476 100.0813)">I<tspan class="cls-4" x="5.9468" y="0">r</tspan><tspan x="14.0181" y="0">rit</tspan><tspan class="cls-5" x="34.2148" y="0">a</tspan><tspan x="45.0322" y="0">ted th</tspan><tspan class="cls-5" x="97.876" y="0">a</tspan><tspan x="108.6934" y="0">t he </tspan><tspan x="12.2881" y="22.7998">has to do the </tspan><tspan x="36.5249" y="45.5996">laundry</tspan></text><rect class="cls-2" x="322.4037" y="181.2515" width="184.4924" height="102.9818"/><text/><text class="cls-3" transform="translate(351.5451 215.9317)">Imp<tspan class="cls-5" x="34.6323" y="0">a</tspan><tspan x="45.4497" y="0">tient and </tspan><tspan class="cls-4" x="-17.6357" y="22.7998">w</tspan><tspan x="-2.4395" y="22.7998">ants to </tspan><tspan class="cls-5" x="65.0532" y="22.7998">g</tspan><tspan x="76.4551" y="22.7998">et ba</tspan><tspan class="cls-6" x="122.3872" y="22.7998">c</tspan><tspan x="132.9541" y="22.7998">k </tspan><tspan x="-18.3179" y="45.5996">to his </tspan><tspan class="cls-5" x="36.3071" y="45.5996">g</tspan><tspan x="47.709" y="45.5996">ame ASAP</tspan></text><rect class="cls-2" x="397.6926" y="416.5042" width="184.4924" height="102.9818"/><text/><text class="cls-3" transform="translate(410.1833 445.6969)">Only p<tspan class="cls-5" x="58.5957" y="0">r</tspan><tspan x="66.4443" y="0">esses the </tspan><tspan x="4.1333" y="22.7998">po</tspan><tspan class="cls-4" x="27.4844" y="22.7998">w</tspan><tspan x="42.6807" y="22.7998">er and sta</tspan><tspan class="cls-7" x="134.749" y="22.7998">r</tspan><tspan x="143.3027" y="22.7998">t </tspan><tspan class="cls-4" x="42.1792" y="45.5996">b</tspan><tspan x="53.8037" y="45.5996">uttons</tspan></text><rect class="cls-2" x="322.4037" y="503.1538" width="184.4924" height="102.9818"/><text/><text class="cls-3" transform="translate(345.3205 534.8425)">Glances <tspan class="cls-5" x="80.5923" y="0">a</tspan><tspan x="91.4097" y="0">t, </tspan><tspan class="cls-4" x="108.8325" y="0">b</tspan><tspan x="120.457" y="0">ut </tspan><tspan x="-15.8369" y="22.7998">does not tou</tspan><tspan class="cls-5" x="97.959" y="22.7998">c</tspan><tspan x="108.7764" y="22.7998">h the </tspan><tspan x="-4.6758" y="45.5996">right panel </tspan><tspan class="cls-5" x="99.4531" y="45.5996">a</tspan><tspan x="110.2705" y="45.5996">t all</tspan></text><rect class="cls-2" x="427.1145" y="588.0084" width="175.3364" height="88.7079"/><text/><text class="cls-3" transform="translate(474.363 625.8828)"><tspan class="cls-8">T</tspan><tspan class="cls-4" x="10.9287" y="0">a</tspan><tspan x="21.9688" y="0">ps </tspan><tspan class="cls-4" x="48.8916" y="0">f</tspan><tspan x="54.9683" y="0">oot </tspan><tspan x="-11.8335" y="22.7998">periodically</tspan></text><rect class="cls-2" x="27.1947" y="143.2149" width="184.4924" height="102.9818"/><text/><text class="cls-3" transform="translate(42.1002 187.3836)">Why a<tspan class="cls-5" x="55.6362" y="0">r</tspan><tspan x="63.4849" y="0">e the</tspan><tspan class="cls-5" x="109.0181" y="0">r</tspan><tspan x="116.8667" y="0">e so </tspan><tspan x="-1.2104" y="22.7998">many </tspan><tspan class="cls-4" x="53.4146" y="22.7998">b</tspan><tspan x="65.0391" y="22.7998">uttons???</tspan></text><rect class="cls-2" x="13.9553" y="405.5307" width="178.0111" height="72.25"/><text/><text class="cls-3" transform="translate(36.3961 444.251)">“Oh my <tspan class="cls-5" x="71.8345" y="0">g</tspan><tspan x="83.2363" y="0">od...”</tspan></text><text/><rect class="cls-2" x="27.1947" y="256.0576" width="203.248" height="120.6795"/><path class="cls-9" d="M53.6211,299.6543V288.94a1.8057,1.8057,0,0,1,.38-1.253,1.2682,1.2682,0,0,1,.9834-.417,1.3143,1.3143,0,0,1,1.0063.4121,1.7893,1.7893,0,0,1,.3853,1.2579v10.7148a1.8064,1.8064,0,0,1-.3853,1.2617,1.3053,1.3053,0,0,1-1.0063.418,1.2681,1.2681,0,0,1-.979-.4229A1.81,1.81,0,0,1,53.6211,299.6543Z"/><path class="cls-9" d="M64.1694,291.2578h.2784v-1.5215c0-.4082.0107-.7275.0322-.96a1.4291,1.4291,0,0,1,.1811-.5987,1.1425,1.1425,0,0,1,.4268-.4218,1.2174,1.2174,0,0,1,.6216-.1621,1.2545,1.2545,0,0,1,.872.3613,1.0713,1.0713,0,0,1,.3291.59,5.2946,5.2946,0,0,1,.07.9883v1.7246h.9277a1.1877,1.1877,0,0,1,.8208.2559.8393.8393,0,0,1,.2832.6543.7322.7322,0,0,1-.4033.7138,2.6254,2.6254,0,0,1-1.1553.2041h-.4731v4.6573a7.6711,7.6711,0,0,0,.0415.914.9387.9387,0,0,0,.2226.52.763.763,0,0,0,.5894.1992,3.1468,3.1468,0,0,0,.603-.0791,3.1776,3.1776,0,0,1,.5938-.0781.7642.7642,0,0,1,.5517.2451.8252.8252,0,0,1,.2461.6084,1.0164,1.0164,0,0,1-.668.9365,4.5081,4.5081,0,0,1-1.92.3252,3.32,3.32,0,0,1-1.8-.3994,1.8478,1.8478,0,0,1-.8022-1.1045,7.474,7.474,0,0,1-.19-1.8828v-4.8614h-.334a1.2065,1.2065,0,0,1-.835-.26.8474.8474,0,0,1-.2876-.6582.8183.8183,0,0,1,.3013-.6543A1.325,1.325,0,0,1,64.1694,291.2578Z"/><path class="cls-9" d="M73.2334,288.8086v3.7578a5.3911,5.3911,0,0,1,.9414-.8809,3.3952,3.3952,0,0,1,1.0161-.4873,4.25,4.25,0,0,1,1.1968-.163,3.52,3.52,0,0,1,1.7119.4082,3.1707,3.1707,0,0,1,1.5352,2.2041,8.05,8.05,0,0,1,.0927,1.2939v4.8516a1.6793,1.6793,0,0,1-.3476,1.15,1.18,1.18,0,0,1-.9234.3906q-1.2524,0-1.2524-1.541v-4.2764a3.9181,3.9181,0,0,0-.3618-1.8691,1.4265,1.4265,0,0,0-1.3731-.6543,2.0655,2.0655,0,0,0-1.22.3847,2.3221,2.3221,0,0,0-.8115,1.0537,6.7289,6.7289,0,0,0-.2041,2.0127v3.3487a1.71,1.71,0,0,1-.3389,1.1465,1.1752,1.1752,0,0,1-.9414.3945q-1.2524,0-1.2524-1.541V288.8086a1.7369,1.7369,0,0,1,.33-1.1543,1.1472,1.1472,0,0,1,.9228-.3848,1.18,1.18,0,0,1,.9414.3887A1.7077,1.7077,0,0,1,73.2334,288.8086Z"/><path class="cls-9" d="M83.5127,289.8574a1.3412,1.3412,0,0,1-.9048-.3242,1.26,1.26,0,0,1,.01-1.8047,1.29,1.29,0,0,1,.895-.3476,1.33,1.33,0,0,1,.8721.3144,1.1269,1.1269,0,0,1,.38.919,1.16,1.16,0,0,1-.3711.914A1.2835,1.2835,0,0,1,83.5127,289.8574Zm1.2524,2.6162v7.3194a1.6337,1.6337,0,0,1-.3618,1.15,1.2,1.2,0,0,1-.9184.3906,1.1439,1.1439,0,0,1-.9043-.3994,1.6816,1.6816,0,0,1-.3482-1.1416v-7.2451a1.6239,1.6239,0,0,1,.3482-1.1319,1.167,1.167,0,0,1,.9043-.3808,1.212,1.212,0,0,1,.9184.3808A1.4738,1.4738,0,0,1,84.7651,292.4736Z"/><path class="cls-9" d="M89.6821,292.4365v.3057a4.4375,4.4375,0,0,1,1.4615-1.294,3.8993,3.8993,0,0,1,1.8227-.413,3.6348,3.6348,0,0,1,1.79.4365,2.776,2.776,0,0,1,1.1783,1.2334,2.9449,2.9449,0,0,1,.3247,1.0019,10.42,10.42,0,0,1,.0742,1.3731v4.7129a1.6788,1.6788,0,0,1-.3477,1.15,1.2495,1.2495,0,0,1-1.8232-.0088,1.6677,1.6677,0,0,1-.3526-1.1416v-4.2207a4.2282,4.2282,0,0,0-.3476-1.9161,1.4192,1.4192,0,0,0-1.3872-.663,2.0562,2.0562,0,0,0-1.2339.4033,2.3181,2.3181,0,0,0-.8164,1.1094,7.917,7.917,0,0,0-.1856,2.1152v3.1719a1.6433,1.6433,0,0,1-.3574,1.1552,1.2012,1.2012,0,0,1-.9228.3858,1.1481,1.1481,0,0,1-.9-.3994,1.6677,1.6677,0,0,1-.3526-1.1416v-7.3194a1.5937,1.5937,0,0,1,.3155-1.081,1.0937,1.0937,0,0,1,.8628-.3574,1.1679,1.1679,0,0,1,.603.1582,1.13,1.13,0,0,1,.4311.4726A1.67,1.67,0,0,1,89.6821,292.4365Z"/><path class="cls-9" d="M105.166,300.1738,102.93,296.5l-1.3731,1.2988v2.0137a1.5483,1.5483,0,0,1-.3847,1.127,1.2066,1.2066,0,0,1-.8863.3945,1.1465,1.1465,0,0,1-.9184-.3906,1.7239,1.7239,0,0,1-.334-1.15V288.9941a2.1425,2.1425,0,0,1,.3247-1.2841,1.0818,1.0818,0,0,1,.9277-.44,1.1617,1.1617,0,0,1,.9278.3985,1.762,1.762,0,0,1,.3432,1.1777v6.1426L104.4053,292a6.9511,6.9511,0,0,1,.8071-.76,1.199,1.199,0,0,1,1.4658.0967,1.0043,1.0043,0,0,1,.3155.7569q0,.5565-1.03,1.4843l-1.3452,1.2334,2.5976,4.0821q.2871.4541.4131.6914a.9677.9677,0,0,1,.125.45,1.3271,1.3271,0,0,1-.3291.95,1.1392,1.1392,0,0,1-.8677.3486.966.966,0,0,1-.7143-.251A6.0143,6.0143,0,0,1,105.166,300.1738Z"/><path class="cls-9" d="M119.2676,299.0508l-2.18-8.6641v9.3887a1.7083,1.7083,0,0,1-.3477,1.168,1.2754,1.2754,0,0,1-1.8325.0048,1.686,1.686,0,0,1-.3525-1.1728V289.0137a1.35,1.35,0,0,1,.4639-1.2022,2.2217,2.2217,0,0,1,1.2524-.3105h.8535a3.2339,3.2339,0,0,1,1.1182.14.938.938,0,0,1,.5146.5,7.871,7.871,0,0,1,.38,1.1787l1.9761,7.45,1.976-7.45a7.8241,7.8241,0,0,1,.38-1.1787.9378.9378,0,0,1,.5147-.5,3.2317,3.2317,0,0,1,1.1181-.14h.8535a2.2246,2.2246,0,0,1,1.2525.3105,1.3516,1.3516,0,0,1,.4639,1.2022v10.7617a1.7037,1.7037,0,0,1-.3482,1.168,1.1876,1.1876,0,0,1-.9321.3906,1.16,1.16,0,0,1-.9-.3906,1.689,1.689,0,0,1-.3526-1.168v-9.3887l-2.18,8.6641q-.2139.8453-.3482,1.2392a1.7084,1.7084,0,0,1-.4961.7188,1.4452,1.4452,0,0,1-1.0019.3252,1.4675,1.4675,0,0,1-1.336-.7422,3.017,3.017,0,0,1-.292-.72Q119.379,299.4781,119.2676,299.0508Z"/><path class="cls-9" d="M139.8076,296.1846a5.9865,5.9865,0,0,1-.3525,2.0869,4.614,4.614,0,0,1-1.02,1.6426,4.5015,4.5015,0,0,1-1.5957,1.0527,5.6473,5.6473,0,0,1-2.0874.3672,5.486,5.486,0,0,1-2.0689-.3711,4.5666,4.5666,0,0,1-2.6118-2.6953,6.441,6.441,0,0,1,.0049-4.19,4.5847,4.5847,0,0,1,1.0112-1.6328,4.4548,4.4548,0,0,1,1.5957-1.043,6.0357,6.0357,0,0,1,4.1563.0039,4.4935,4.4935,0,0,1,2.6206,2.6915A5.9947,5.9947,0,0,1,139.8076,296.1846Zm-2.542,0a3.7971,3.7971,0,0,0-.6821-2.4121,2.2133,2.2133,0,0,0-1.832-.8623,2.2666,2.2666,0,0,0-1.3081.3847,2.4353,2.4353,0,0,0-.8721,1.1367,5.1554,5.1554,0,0,0-.0044,3.4883,2.4863,2.4863,0,0,0,.8623,1.1358,2.237,2.237,0,0,0,1.3223.3945,2.21,2.21,0,0,0,1.832-.8672A3.7852,3.7852,0,0,0,137.2656,296.1846Z"/><path class="cls-9" d="M150.2261,296.37v3.3682a1.73,1.73,0,0,1-.3618,1.1963,1.23,1.23,0,0,1-.9556.3994,1.1925,1.1925,0,0,1-.9321-.3994,1.7446,1.7446,0,0,1-.3575-1.1963v-4.0362a13.0291,13.0291,0,0,0-.0649-1.4843,1.6112,1.6112,0,0,0-.3525-.8672,1.13,1.13,0,0,0-.9092-.3389,1.6144,1.6144,0,0,0-1.6372.8535,6.0175,6.0175,0,0,0-.3946,2.4493v3.4238a1.7458,1.7458,0,0,1-.3574,1.1914,1.1947,1.1947,0,0,1-.9414.4043,1.2122,1.2122,0,0,1-.9414-.4043,1.7155,1.7155,0,0,1-.3667-1.1914v-7.2461a1.5889,1.5889,0,0,1,.33-1.086,1.1038,1.1038,0,0,1,.8672-.371,1.175,1.175,0,0,1,.8672.3486,1.2944,1.2944,0,0,1,.3481.96v.2412a4.4028,4.4028,0,0,1,1.41-1.1592,3.71,3.71,0,0,1,1.67-.3711,3.3374,3.3374,0,0,1,1.6421.38,2.9785,2.9785,0,0,1,1.1318,1.15,4.4074,4.4074,0,0,1,1.3731-1.1553,3.5105,3.5105,0,0,1,1.6235-.375,3.6954,3.6954,0,0,1,1.79.4082,2.5945,2.5945,0,0,1,1.1226,1.168,5.3633,5.3633,0,0,1,.3247,2.1621v4.9453a1.73,1.73,0,0,1-.3618,1.1963,1.23,1.23,0,0,1-.9556.3994,1.2122,1.2122,0,0,1-.9414-.4043,1.7155,1.7155,0,0,1-.3667-1.1914V295.48a9.652,9.652,0,0,0-.07-1.3076,1.4974,1.4974,0,0,0-.3755-.8262,1.1983,1.1983,0,0,0-.9277-.334,1.6952,1.6952,0,0,0-.9507.2969,2.0165,2.0165,0,0,0-.7007.7978A6.3382,6.3382,0,0,0,150.2261,296.37Z"/><path class="cls-9" d="M172.6772,292.8906v7.3574a7.7165,7.7165,0,0,1-.269,2.1709,3.4774,3.4774,0,0,1-.8628,1.503,3.616,3.616,0,0,1-1.5542.8808,8.4225,8.4225,0,0,1-2.3887.2881,6.9509,6.9509,0,0,1-2.3379-.3662,4.0548,4.0548,0,0,1-1.5864-.9463,1.7266,1.7266,0,0,1-.5566-1.1924.9815.9815,0,0,1,.3154-.7558,1.0777,1.0777,0,0,1,.7608-.293,1.2471,1.2471,0,0,1,.9741.4922c.1357.167.2768.335.4219.5059a2.4687,2.4687,0,0,0,.4824.4355,1.8961,1.8961,0,0,0,.6357.2695,3.7211,3.7211,0,0,0,.8535.0879,3.47,3.47,0,0,0,1.5264-.2734,1.5651,1.5651,0,0,0,.7607-.7656,3.0881,3.0881,0,0,0,.2549-1.0528q.0366-.561.0557-1.8047a4.1662,4.1662,0,0,1-1.35,1.2432,3.6927,3.6927,0,0,1-1.8233.4268,3.8434,3.8434,0,0,1-2.2216-.65,4.1421,4.1421,0,0,1-1.4615-1.8183,6.6917,6.6917,0,0,1-.51-2.7,6.4008,6.4008,0,0,1,.3105-2.0586,4.3165,4.3165,0,0,1,.8863-1.55,3.7947,3.7947,0,0,1,1.3266-.9512,4.1791,4.1791,0,0,1,1.6514-.3193,3.98,3.98,0,0,1,1.8647.4121,4.5429,4.5429,0,0,1,1.4658,1.2949v-.3437a1.4734,1.4734,0,0,1,.3248-1.0205,1.07,1.07,0,0,1,.8349-.3623.985.985,0,0,1,.9741.4785A3.133,3.133,0,0,1,172.6772,292.8906Zm-7.3383,3.211a3.5012,3.5012,0,0,0,.6728,2.3281,2.1808,2.1808,0,0,0,1.7393.7891,2.2744,2.2744,0,0,0,1.1924-.3389,2.4887,2.4887,0,0,0,.9135-1.0205,3.5748,3.5748,0,0,0,.3526-1.6563,3.7971,3.7971,0,0,0-.6822-2.4121,2.1763,2.1763,0,0,0-1.7949-.8633,2.1059,2.1059,0,0,0-1.7392.8262A3.699,3.699,0,0,0,165.3389,296.1016Z"/><path class="cls-9" d="M181.166,299.9043a7.8411,7.8411,0,0,1-1.7768,1.0723,4.98,4.98,0,0,1-1.9248.3574,3.6471,3.6471,0,0,1-1.712-.3858,2.8092,2.8092,0,0,1-1.1362-1.0439,2.7033,2.7033,0,0,1-.3989-1.4277,2.5556,2.5556,0,0,1,.6587-1.7725,3.2941,3.2941,0,0,1,1.8091-.9834q.2409-.0557,1.1967-.25.9552-.1963,1.6372-.3574.6826-.1626,1.48-.3945a2.6435,2.6435,0,0,0-.4038-1.4708,1.8065,1.8065,0,0,0-1.48-.4687,3.08,3.08,0,0,0-1.4521.27,2.3694,2.3694,0,0,0-.835.8067,8.3962,8.3962,0,0,1-.4912.71.8043.8043,0,0,1-.6172.1719,1.0769,1.0769,0,0,1-.7373-.2734.8909.8909,0,0,1-.311-.7,2.1415,2.1415,0,0,1,.4731-1.2989,3.3752,3.3752,0,0,1,1.4751-1.039,6.6376,6.6376,0,0,1,2.4956-.4082,7.0693,7.0693,0,0,1,2.6255.3935,2.4453,2.4453,0,0,1,1.35,1.2481,5.46,5.46,0,0,1,.3941,2.2637q0,.8905-.0044,1.5126t-.0142,1.3819a5.0779,5.0779,0,0,0,.2368,1.4892,4.7293,4.7293,0,0,1,.2363.9971.9346.9346,0,0,1-.3662.71,1.2321,1.2321,0,0,1-.8305.32,1.1219,1.1219,0,0,1-.77-.3672A5.3823,5.3823,0,0,1,181.166,299.9043Zm-.167-3.6641a12.7678,12.7678,0,0,1-1.6186.4317q-1.0628.2269-1.4707.334a1.9972,1.9972,0,0,0-.7793.417,1.0714,1.0714,0,0,0-.3711.8681,1.2847,1.2847,0,0,0,.436.9785,1.6145,1.6145,0,0,0,1.1411.4034,2.9651,2.9651,0,0,0,1.3867-.3291,2.2006,2.2006,0,0,0,.9327-.85,3.8778,3.8778,0,0,0,.3432-1.8925Z"/><path class="cls-9" d="M187.3726,292.6133l2.05,5.7519,2.208-6.0029a3.5643,3.5643,0,0,1,.51-1.0254.9348.9348,0,0,1,.7608-.3017,1.1433,1.1433,0,0,1,.8212.3252,1.0118,1.0118,0,0,1,.3384.7509,1.5325,1.5325,0,0,1-.06.3907,3.6883,3.6883,0,0,1-.14.4169c-.0522.13-.1128.2784-.1806.4454l-2.4307,6.03q-.1026.2594-.2647.6582a3.3977,3.3977,0,0,1-.3613.6827,1.4292,1.4292,0,0,1-.4922.44,1.4709,1.4709,0,0,1-.7094.1582,1.3766,1.3766,0,0,1-.858-.2461,1.67,1.67,0,0,1-.4736-.5381q-.1524-.293-.5146-1.1553l-2.4121-5.9648q-.0836-.2228-.1719-.4453a4.0429,4.0429,0,0,1-.1485-.4551,1.6252,1.6252,0,0,1-.06-.3984.97.97,0,0,1,.1577-.5157,1.2306,1.2306,0,0,1,.436-.417,1.1747,1.1747,0,0,1,.6031-.163.9577.9577,0,0,1,.8671.3623A5.7319,5.7319,0,0,1,187.3726,292.6133Z"/><path class="cls-9" d="M202.6987,296.8066h-4.9541a3.3589,3.3589,0,0,0,.3482,1.5215,2.3274,2.3274,0,0,0,2.1382,1.3262,3.0375,3.0375,0,0,0,.8305-.1064,2.7282,2.7282,0,0,0,.7281-.334,5.6366,5.6366,0,0,0,.6494-.4873q.2965-.2594.77-.7051a.8311.8311,0,0,1,.5566-.167.9161.9161,0,0,1,.6309.2139.7613.7613,0,0,1,.2412.6025,1.6522,1.6522,0,0,1-.269.8027,3.1878,3.1878,0,0,1-.8121.8809,4.6029,4.6029,0,0,1-1.3632.7,5.88,5.88,0,0,1-1.8882.2793,5.0509,5.0509,0,0,1-3.7945-1.3926,5.179,5.179,0,0,1-1.3545-3.7754,6.3053,6.3053,0,0,1,.334-2.083,4.5985,4.5985,0,0,1,.9742-1.6465,4.214,4.214,0,0,1,1.5771-1.0527,5.6628,5.6628,0,0,1,2.0781-.3662,4.9222,4.9222,0,0,1,2.5464.626,4.1164,4.1164,0,0,1,1.5913,1.6181,4.2581,4.2581,0,0,1,.5288,2.0235q0,.9551-.5473,1.2382A3.4142,3.4142,0,0,1,202.6987,296.8066Zm-4.9541-1.4384h4.5923a3.0789,3.0789,0,0,0-.7-1.9434,2.0988,2.0988,0,0,0-1.6006-.6455,2.0279,2.0279,0,0,0-1.5537.6543A3.2538,3.2538,0,0,0,197.7446,295.3682Z"/><path class="cls-9" d="M59.5171,319.17v3.3682a1.73,1.73,0,0,1-.3618,1.1963,1.23,1.23,0,0,1-.9556.3994,1.1925,1.1925,0,0,1-.9321-.3994,1.7444,1.7444,0,0,1-.3574-1.1963V318.502a13.0255,13.0255,0,0,0-.065-1.4844,1.61,1.61,0,0,0-.3525-.8672,1.13,1.13,0,0,0-.9092-.3389,1.6144,1.6144,0,0,0-1.6372.8535,6.0178,6.0178,0,0,0-.3945,2.4493v3.4238a1.7458,1.7458,0,0,1-.3575,1.1914,1.1947,1.1947,0,0,1-.9414.4043,1.2123,1.2123,0,0,1-.9414-.4043,1.7155,1.7155,0,0,1-.3667-1.1914V315.292a1.5885,1.5885,0,0,1,.33-1.0859,1.1037,1.1037,0,0,1,.8672-.3711,1.175,1.175,0,0,1,.8672.3486,1.2946,1.2946,0,0,1,.3481.96v.2412a4.4028,4.4028,0,0,1,1.41-1.1592,3.71,3.71,0,0,1,1.67-.3711,3.3374,3.3374,0,0,1,1.6421.38,2.9778,2.9778,0,0,1,1.1318,1.15A4.4074,4.4074,0,0,1,60.584,314.23a3.5108,3.5108,0,0,1,1.6235-.375,3.6954,3.6954,0,0,1,1.79.4082,2.5945,2.5945,0,0,1,1.1226,1.168,5.3633,5.3633,0,0,1,.3247,2.1621v4.9453a1.73,1.73,0,0,1-.3618,1.1963,1.23,1.23,0,0,1-.9556.3994,1.2123,1.2123,0,0,1-.9414-.4043,1.7155,1.7155,0,0,1-.3667-1.1914v-4.2588a9.653,9.653,0,0,0-.07-1.3076,1.4974,1.4974,0,0,0-.3755-.8262,1.1986,1.1986,0,0,0-.9277-.334,1.6952,1.6952,0,0,0-.9507.2969,2.0165,2.0165,0,0,0-.7007.7978A6.3405,6.3405,0,0,0,59.5171,319.17Z"/><path class="cls-9" d="M74.9731,319.6064H70.019a3.3589,3.3589,0,0,0,.3482,1.5215,2.3274,2.3274,0,0,0,2.1382,1.3262,3.0369,3.0369,0,0,0,.8305-.1064,2.7282,2.7282,0,0,0,.7281-.334,5.6366,5.6366,0,0,0,.6494-.4873q.2966-.2594.77-.7051a.8311.8311,0,0,1,.5566-.167.9161.9161,0,0,1,.6309.2139.7613.7613,0,0,1,.2412.6025,1.6522,1.6522,0,0,1-.269.8027,3.1873,3.1873,0,0,1-.812.8809,4.6047,4.6047,0,0,1-1.3633.7,5.88,5.88,0,0,1-1.8882.2793,5.0505,5.0505,0,0,1-3.7944-1.3926,5.1786,5.1786,0,0,1-1.3545-3.7754,6.3053,6.3053,0,0,1,.3339-2.083,4.5985,4.5985,0,0,1,.9742-1.6465,4.214,4.214,0,0,1,1.5771-1.0527,5.6649,5.6649,0,0,1,2.0781-.3662,4.9222,4.9222,0,0,1,2.5464.626,4.117,4.117,0,0,1,1.5913,1.6181,4.2581,4.2581,0,0,1,.5288,2.0235q0,.9551-.5473,1.2382A3.4142,3.4142,0,0,1,74.9731,319.6064ZM70.019,318.168h4.5923a3.0789,3.0789,0,0,0-.7-1.9434,2.0987,2.0987,0,0,0-1.6006-.6455,2.0282,2.0282,0,0,0-1.5537.6543A3.2547,3.2547,0,0,0,70.019,318.168Z"/><path class="cls-9" d="M92.0991,320.8213a2.9376,2.9376,0,0,1-2.0176,2.9267,6.7524,6.7524,0,0,1-2.4262.3858,5.9168,5.9168,0,0,1-2.3379-.418,3.401,3.401,0,0,1-1.438-1.0439,2.0987,2.0987,0,0,1-.4639-1.2569.9743.9743,0,0,1,.2969-.7148,1.02,1.02,0,0,1,.7515-.2969.8786.8786,0,0,1,.6123.1953,2.1463,2.1463,0,0,1,.4082.5469,2.7743,2.7743,0,0,0,.9321,1.0117,2.8129,2.8129,0,0,0,1.48.334,2.1307,2.1307,0,0,0,1.2475-.3389.9506.9506,0,0,0,.4873-.7744,1.0555,1.0555,0,0,0-.5058-.9746,6.2926,6.2926,0,0,0-1.6651-.584,13.8047,13.8047,0,0,1-2.1289-.6816,3.5133,3.5133,0,0,1-1.3129-.9414,2.1585,2.1585,0,0,1-.4917-1.4385,2.5391,2.5391,0,0,1,.4545-1.4385,3.1152,3.1152,0,0,1,1.34-1.08,5.1264,5.1264,0,0,1,2.1386-.4043,7,7,0,0,1,1.7676.205,4.403,4.403,0,0,1,1.3076.5469,2.6888,2.6888,0,0,1,.7979.7608,1.4881,1.4881,0,0,1,.2739.8164.9393.9393,0,0,1-.2925.7138,1.1557,1.1557,0,0,1-.83.2793,1.0162,1.0162,0,0,1-.6631-.2226,4.3626,4.3626,0,0,1-.6265-.668,2.2828,2.2828,0,0,0-.6772-.5937A2.1335,2.1335,0,0,0,87.46,315.45a2.0657,2.0657,0,0,0-1.1411.292.8513.8513,0,0,0-.4546.7275.7879.7879,0,0,0,.334.6543,2.7545,2.7545,0,0,0,.9.4219q.5655.1669,1.5586.4082a8.333,8.333,0,0,1,1.9253.6875,3.1958,3.1958,0,0,1,1.1319.9414A2.0878,2.0878,0,0,1,92.0991,320.8213Z"/><path class="cls-9" d="M103.7236,318.9844a5.9842,5.9842,0,0,1-.3525,2.0869,4.614,4.614,0,0,1-1.02,1.6426,4.5015,4.5015,0,0,1-1.5957,1.0527,5.6473,5.6473,0,0,1-2.0874.3672,5.486,5.486,0,0,1-2.0689-.3711,4.5666,4.5666,0,0,1-2.6118-2.6953,6.4427,6.4427,0,0,1,.0049-4.19,4.5861,4.5861,0,0,1,1.0112-1.6328,4.4548,4.4548,0,0,1,1.5957-1.043,6.0349,6.0349,0,0,1,4.1563.004,4.4923,4.4923,0,0,1,2.6206,2.6914A5.9947,5.9947,0,0,1,103.7236,318.9844Zm-2.542,0a3.7971,3.7971,0,0,0-.6821-2.4121,2.2133,2.2133,0,0,0-1.832-.8623,2.2669,2.2669,0,0,0-1.3081.3847,2.4353,2.4353,0,0,0-.8721,1.1367,5.157,5.157,0,0,0-.0044,3.4883,2.4863,2.4863,0,0,0,.8623,1.1358,2.2372,2.2372,0,0,0,1.3223.3945,2.21,2.21,0,0,0,1.832-.8672A3.7852,3.7852,0,0,0,101.1816,318.9844Z"/><path class="cls-9" d="M114.1421,319.17v3.3682a1.73,1.73,0,0,1-.3618,1.1963,1.23,1.23,0,0,1-.9556.3994,1.1925,1.1925,0,0,1-.9321-.3994,1.7444,1.7444,0,0,1-.3574-1.1963V318.502a13.0255,13.0255,0,0,0-.065-1.4844,1.61,1.61,0,0,0-.3525-.8672,1.13,1.13,0,0,0-.9092-.3389,1.6144,1.6144,0,0,0-1.6372.8535,6.0178,6.0178,0,0,0-.3945,2.4493v3.4238a1.7458,1.7458,0,0,1-.3575,1.1914,1.1947,1.1947,0,0,1-.9414.4043,1.2123,1.2123,0,0,1-.9414-.4043,1.7155,1.7155,0,0,1-.3667-1.1914V315.292a1.5885,1.5885,0,0,1,.33-1.0859,1.1037,1.1037,0,0,1,.8672-.3711,1.175,1.175,0,0,1,.8672.3486,1.2946,1.2946,0,0,1,.3481.96v.2412a4.4028,4.4028,0,0,1,1.41-1.1592,3.71,3.71,0,0,1,1.67-.3711,3.3374,3.3374,0,0,1,1.6421.38,2.9778,2.9778,0,0,1,1.1318,1.15,4.4074,4.4074,0,0,1,1.3731-1.1553,3.5108,3.5108,0,0,1,1.6235-.375,3.6954,3.6954,0,0,1,1.7905.4082,2.5945,2.5945,0,0,1,1.1226,1.168,5.3633,5.3633,0,0,1,.3247,2.1621v4.9453a1.73,1.73,0,0,1-.3618,1.1963,1.23,1.23,0,0,1-.9556.3994,1.2123,1.2123,0,0,1-.9414-.4043,1.7155,1.7155,0,0,1-.3667-1.1914v-4.2588a9.653,9.653,0,0,0-.07-1.3076,1.4974,1.4974,0,0,0-.3755-.8262,1.1986,1.1986,0,0,0-.9277-.334,1.6952,1.6952,0,0,0-.9507.2969,2.0165,2.0165,0,0,0-.7007.7978A6.3405,6.3405,0,0,0,114.1421,319.17Z"/><path class="cls-9" d="M129.5981,319.6064H124.644a3.3589,3.3589,0,0,0,.3482,1.5215,2.3274,2.3274,0,0,0,2.1382,1.3262,3.0369,3.0369,0,0,0,.8305-.1064,2.7282,2.7282,0,0,0,.7281-.334,5.6366,5.6366,0,0,0,.6494-.4873q.2965-.2594.77-.7051a.8311.8311,0,0,1,.5566-.167.9161.9161,0,0,1,.6309.2139.7613.7613,0,0,1,.2412.6025,1.6522,1.6522,0,0,1-.269.8027,3.1873,3.1873,0,0,1-.812.8809,4.6047,4.6047,0,0,1-1.3633.7,5.88,5.88,0,0,1-1.8882.2793,5.0505,5.0505,0,0,1-3.7944-1.3926,5.1786,5.1786,0,0,1-1.3545-3.7754,6.3053,6.3053,0,0,1,.3339-2.083,4.5985,4.5985,0,0,1,.9742-1.6465,4.214,4.214,0,0,1,1.5771-1.0527,5.6649,5.6649,0,0,1,2.0781-.3662,4.9222,4.9222,0,0,1,2.5464.626,4.117,4.117,0,0,1,1.5913,1.6181,4.2581,4.2581,0,0,1,.5288,2.0235q0,.9551-.5473,1.2382A3.4142,3.4142,0,0,1,129.5981,319.6064Zm-4.9541-1.4384h4.5923a3.0789,3.0789,0,0,0-.7-1.9434,2.0987,2.0987,0,0,0-1.6006-.6455,2.0282,2.0282,0,0,0-1.5537.6543A3.2547,3.2547,0,0,0,124.644,318.168Z"/><path class="cls-9" d="M139.85,312.6572a1.3412,1.3412,0,0,1-.9048-.3242,1.26,1.26,0,0,1,.01-1.8047,1.29,1.29,0,0,1,.895-.3476,1.33,1.33,0,0,1,.8721.3144,1.1271,1.1271,0,0,1,.38.919,1.16,1.16,0,0,1-.3711.914A1.2833,1.2833,0,0,1,139.85,312.6572Zm1.2525,2.6162v7.3194a1.6337,1.6337,0,0,1-.3619,1.15,1.2,1.2,0,0,1-.9184.3906,1.1439,1.1439,0,0,1-.9043-.3994,1.6819,1.6819,0,0,1-.3482-1.1416v-7.2451a1.6244,1.6244,0,0,1,.3482-1.1319,1.167,1.167,0,0,1,.9043-.3808,1.212,1.212,0,0,1,.9184.3808A1.4739,1.4739,0,0,1,141.1021,315.2734Z"/><path class="cls-9" d="M146.019,315.2363v.3057a4.4385,4.4385,0,0,1,1.4615-1.294,3.8993,3.8993,0,0,1,1.8227-.413,3.6354,3.6354,0,0,1,1.7906.4365,2.7763,2.7763,0,0,1,1.1782,1.2334,2.9456,2.9456,0,0,1,.3247,1.0019,10.42,10.42,0,0,1,.0742,1.3731v4.7129a1.6788,1.6788,0,0,1-.3477,1.15,1.2495,1.2495,0,0,1-1.8232-.0088,1.6675,1.6675,0,0,1-.3525-1.1416v-4.2207a4.2273,4.2273,0,0,0-.3477-1.916,1.4191,1.4191,0,0,0-1.3872-.6631,2.0562,2.0562,0,0,0-1.2339.4033,2.3187,2.3187,0,0,0-.8164,1.1094,7.9182,7.9182,0,0,0-.1855,2.1152v3.1719a1.6433,1.6433,0,0,1-.3575,1.1552,1.2012,1.2012,0,0,1-.9228.3858,1.1481,1.1481,0,0,1-.9-.3994,1.6675,1.6675,0,0,1-.3526-1.1416v-7.3194a1.5937,1.5937,0,0,1,.3155-1.081,1.0937,1.0937,0,0,1,.8628-.3574,1.1679,1.1679,0,0,1,.603.1582,1.13,1.13,0,0,1,.4311.4726A1.67,1.67,0,0,1,146.019,315.2363Z"/><path class="cls-9" d="M163.3491,320.8213a2.9376,2.9376,0,0,1-2.0176,2.9267,6.7524,6.7524,0,0,1-2.4262.3858,5.9168,5.9168,0,0,1-2.3379-.418,3.401,3.401,0,0,1-1.438-1.0439,2.0987,2.0987,0,0,1-.4639-1.2569.9743.9743,0,0,1,.2969-.7148,1.02,1.02,0,0,1,.7515-.2969.8786.8786,0,0,1,.6123.1953,2.1463,2.1463,0,0,1,.4082.5469,2.7743,2.7743,0,0,0,.9321,1.0117,2.8129,2.8129,0,0,0,1.48.334,2.1307,2.1307,0,0,0,1.2475-.3389.9506.9506,0,0,0,.4873-.7744,1.0555,1.0555,0,0,0-.5058-.9746,6.2926,6.2926,0,0,0-1.6651-.584,13.8047,13.8047,0,0,1-2.1289-.6816,3.5133,3.5133,0,0,1-1.3129-.9414,2.1585,2.1585,0,0,1-.4917-1.4385,2.5391,2.5391,0,0,1,.4545-1.4385,3.1152,3.1152,0,0,1,1.34-1.08,5.1264,5.1264,0,0,1,2.1386-.4043,7,7,0,0,1,1.7676.205,4.403,4.403,0,0,1,1.3076.5469,2.6888,2.6888,0,0,1,.7979.7608,1.4881,1.4881,0,0,1,.2739.8164.9393.9393,0,0,1-.2925.7138,1.1557,1.1557,0,0,1-.83.2793,1.0162,1.0162,0,0,1-.6631-.2226,4.3626,4.3626,0,0,1-.6265-.668,2.2828,2.2828,0,0,0-.6772-.5937,2.1335,2.1335,0,0,0-1.0577-.2227,2.0657,2.0657,0,0,0-1.1411.292.8513.8513,0,0,0-.4546.7275.7879.7879,0,0,0,.334.6543,2.7545,2.7545,0,0,0,.9.4219q.5655.1669,1.5586.4082a8.333,8.333,0,0,1,1.9253.6875,3.1958,3.1958,0,0,1,1.1319.9414A2.0878,2.0878,0,0,1,163.3491,320.8213Z"/><path class="cls-9" d="M165.6313,314.0576h.2784v-1.5215c0-.4082.0107-.7275.0322-.96a1.4291,1.4291,0,0,1,.1811-.5987,1.1432,1.1432,0,0,1,.4268-.4218,1.2176,1.2176,0,0,1,.6216-.1621,1.2549,1.2549,0,0,1,.8721.3613,1.0719,1.0719,0,0,1,.3291.59,5.3049,5.3049,0,0,1,.07.9883v1.7246h.9277a1.1877,1.1877,0,0,1,.8208.2559.8393.8393,0,0,1,.2832.6543.732.732,0,0,1-.4033.7138,2.6254,2.6254,0,0,1-1.1553.2041h-.4731v4.6573a7.6711,7.6711,0,0,0,.0415.914.9384.9384,0,0,0,.2226.52.763.763,0,0,0,.5894.1992,3.1468,3.1468,0,0,0,.603-.0791,3.1776,3.1776,0,0,1,.5938-.0781.764.764,0,0,1,.5517.2451.8252.8252,0,0,1,.2461.6084,1.0165,1.0165,0,0,1-.6679.9365,4.5089,4.5089,0,0,1-1.9205.3252,3.32,3.32,0,0,1-1.8-.3994A1.8479,1.8479,0,0,1,166.1,322.63a7.474,7.474,0,0,1-.19-1.8828v-4.8614h-.334a1.2065,1.2065,0,0,1-.835-.26.8474.8474,0,0,1-.2876-.6582.8183.8183,0,0,1,.3013-.6543A1.3252,1.3252,0,0,1,165.6313,314.0576Z"/><path class="cls-9" d="M174.7324,320.4775v2.1153a1.63,1.63,0,0,1-.3618,1.1552,1.2057,1.2057,0,0,1-.9185.3858,1.16,1.16,0,0,1-.9-.3906,1.6605,1.6605,0,0,1-.3525-1.15V315.542q0-1.7065,1.2339-1.707a1.0313,1.0313,0,0,1,.9092.3994,2.2017,2.2017,0,0,1,.3061,1.1787,4.4278,4.4278,0,0,1,.9322-1.1787,1.9288,1.9288,0,0,1,1.2758-.3994,3.27,3.27,0,0,1,1.5493.3994,1.1907,1.1907,0,0,1,.7515,1.0576,1.0077,1.0077,0,0,1-.32.7656.9932.9932,0,0,1-.6914.3008,3.1766,3.1766,0,0,1-.6729-.1709,3.13,3.13,0,0,0-.9414-.1719,1.38,1.38,0,0,0-.9092.292,1.8781,1.8781,0,0,0-.5473.8672,6.054,6.054,0,0,0-.2691,1.3691Q174.7319,319.3365,174.7324,320.4775Z"/><path class="cls-9" d="M186.6445,322.7041V322.38a5.6443,5.6443,0,0,1-.9555.9648,3.5267,3.5267,0,0,1-1.0948.58,4.464,4.464,0,0,1-1.3545.19,3.5009,3.5009,0,0,1-1.6469-.38,2.7774,2.7774,0,0,1-1.127-1.0479,4.6438,4.6438,0,0,1-.4731-2.32v-5.0185a1.6391,1.6391,0,0,1,.3432-1.1368,1.1737,1.1737,0,0,1,.9092-.3759,1.2056,1.2056,0,0,1,.9278.3808,1.6136,1.6136,0,0,1,.3525,1.1319v4.0537a6.2566,6.2566,0,0,0,.1484,1.48,1.7776,1.7776,0,0,0,.5332.9366,1.5215,1.5215,0,0,0,1.044.3388,2.1224,2.1224,0,0,0,1.206-.3808,2.2187,2.2187,0,0,0,.8257-.9922,7.9868,7.9868,0,0,0,.2134-2.3565v-3.08a1.6112,1.6112,0,0,1,.3525-1.1319,1.1932,1.1932,0,0,1,.9185-.3808,1.175,1.175,0,0,1,.9092.3759,1.6416,1.6416,0,0,1,.3432,1.1368v7.3388a1.5661,1.5661,0,0,1-.3291,1.085,1.1714,1.1714,0,0,1-1.707-.0137A1.5178,1.5178,0,0,1,186.6445,322.7041Z"/><path class="cls-9" d="M200.6255,320.9971a2.18,2.18,0,0,1-.2832,1.0117,3.4864,3.4864,0,0,1-.8623,1.0254,4.4608,4.4608,0,0,1-1.4614.7832,6.1942,6.1942,0,0,1-1.9854.2969,4.8436,4.8436,0,0,1-3.6645-1.3682,5.0653,5.0653,0,0,1-1.3174-3.669,6.0441,6.0441,0,0,1,.603-2.7558,4.3359,4.3359,0,0,1,1.7441-1.8506,5.9376,5.9376,0,0,1,4.5318-.3662,4.7,4.7,0,0,1,1.3916.7422,3.5333,3.5333,0,0,1,.872.97,1.917,1.917,0,0,1,.3018.96,1.01,1.01,0,0,1-.3389.7695,1.1587,1.1587,0,0,1-.8208.3164.8256.8256,0,0,1-.5239-.1631,2.5031,2.5031,0,0,1-.4687-.5244,3.8255,3.8255,0,0,0-.97-1.0566,2.3792,2.3792,0,0,0-3.0937.5234,3.7928,3.7928,0,0,0-.6865,2.3984,4.6226,4.6226,0,0,0,.1762,1.3125,2.97,2.97,0,0,0,.51,1.02,2.1781,2.1781,0,0,0,.8071.6407,2.45,2.45,0,0,0,1.0391.2177,2.3361,2.3361,0,0,0,1.3032-.3525,3.081,3.081,0,0,0,.96-1.0762,2.4727,2.4727,0,0,1,.501-.6679.9492.9492,0,0,1,.6587-.2412.9758.9758,0,0,1,.77.3525A1.1292,1.1292,0,0,1,200.6255,320.9971Z"/><path class="cls-9" d="M206.1641,320.0791h-2.9317a1.4781,1.4781,0,0,1-1.0156-.31,1.0253,1.0253,0,0,1-.3481-.8028,1.05,1.05,0,0,1,.3383-.8115,1.4746,1.4746,0,0,1,1.0254-.3115h2.9317a1.4755,1.4755,0,0,1,1.0254.3115,1.1371,1.1371,0,0,1,.0043,1.6143A1.4707,1.4707,0,0,1,206.1641,320.0791Z"/><path class="cls-9" d="M49.46,336.8574h.2783v-1.5215c0-.4082.0107-.7275.0322-.96a1.4277,1.4277,0,0,1,.1812-.5987,1.1422,1.1422,0,0,1,.4267-.4218A1.2176,1.2176,0,0,1,51,333.1934a1.2553,1.2553,0,0,1,.8721.3613,1.0719,1.0719,0,0,1,.3291.59,5.3049,5.3049,0,0,1,.07.9883v1.7246h.9277a1.1875,1.1875,0,0,1,.8208.2559.8393.8393,0,0,1,.2832.6543.732.732,0,0,1-.4033.7138,2.6254,2.6254,0,0,1-1.1553.2041H52.271v4.6573a7.6927,7.6927,0,0,0,.0415.914.9377.9377,0,0,0,.2227.52.7627.7627,0,0,0,.5893.1992,3.1468,3.1468,0,0,0,.603-.0791,3.1786,3.1786,0,0,1,.5938-.0781.764.764,0,0,1,.5517.2451.8252.8252,0,0,1,.2461.6084,1.0165,1.0165,0,0,1-.6679.9365,4.5084,4.5084,0,0,1-1.92.3252,3.32,3.32,0,0,1-1.8-.3994,1.8481,1.8481,0,0,1-.8023-1.1045,7.4787,7.4787,0,0,1-.19-1.8828v-4.8614h-.334a1.2067,1.2067,0,0,1-.835-.26.8474.8474,0,0,1-.2876-.6582.8183.8183,0,0,1,.3013-.6543A1.3253,1.3253,0,0,1,49.46,336.8574Z"/><path class="cls-9" d="M57.3271,335.457a1.3408,1.3408,0,0,1-.9047-.3242,1.26,1.26,0,0,1,.01-1.8047,1.29,1.29,0,0,1,.895-.3476,1.3293,1.3293,0,0,1,.8721.3144,1.1271,1.1271,0,0,1,.38.919,1.16,1.16,0,0,1-.3711.914A1.2833,1.2833,0,0,1,57.3271,335.457Zm1.2525,2.6162v7.3194a1.6337,1.6337,0,0,1-.3618,1.15,1.2,1.2,0,0,1-.9185.3906,1.1441,1.1441,0,0,1-.9043-.3994,1.6819,1.6819,0,0,1-.3481-1.1416v-7.2451a1.6244,1.6244,0,0,1,.3481-1.1319,1.1671,1.1671,0,0,1,.9043-.3808,1.2122,1.2122,0,0,1,.9185.3808A1.4738,1.4738,0,0,1,58.58,338.0732Z"/><path class="cls-9" d="M70.6772,341.7842a5.9842,5.9842,0,0,1-.3525,2.0869,4.6126,4.6126,0,0,1-1.0205,1.6426,4.5006,4.5006,0,0,1-1.5957,1.0527,5.6473,5.6473,0,0,1-2.0874.3672,5.4864,5.4864,0,0,1-2.0689-.3711,4.5666,4.5666,0,0,1-2.6118-2.6953,6.4427,6.4427,0,0,1,.0049-4.19,4.5861,4.5861,0,0,1,1.0112-1.6328,4.4546,4.4546,0,0,1,1.5957-1.0429,6.0341,6.0341,0,0,1,4.1563.0039,4.493,4.493,0,0,1,2.6206,2.6914A5.9947,5.9947,0,0,1,70.6772,341.7842Zm-2.5419,0a3.7971,3.7971,0,0,0-.6822-2.4121,2.2133,2.2133,0,0,0-1.832-.8623,2.2669,2.2669,0,0,0-1.3081.3847,2.4353,2.4353,0,0,0-.8721,1.1367,5.157,5.157,0,0,0-.0044,3.4883,2.4863,2.4863,0,0,0,.8623,1.1358,2.2372,2.2372,0,0,0,1.3223.3945,2.21,2.21,0,0,0,1.832-.8672A3.7852,3.7852,0,0,0,68.1353,341.7842Z"/><path class="cls-9" d="M74.9727,338.0361v.3057a4.4357,4.4357,0,0,1,1.4614-1.2939,3.8981,3.8981,0,0,1,1.8227-.4131,3.6354,3.6354,0,0,1,1.7906.4365,2.7757,2.7757,0,0,1,1.1782,1.2334,2.9456,2.9456,0,0,1,.3247,1.0019,10.42,10.42,0,0,1,.0742,1.3731v4.7129a1.6793,1.6793,0,0,1-.3476,1.15,1.25,1.25,0,0,1-1.8233-.0088,1.668,1.668,0,0,1-.3525-1.1416v-4.2207a4.2259,4.2259,0,0,0-.3477-1.916,1.4193,1.4193,0,0,0-1.3872-.6631,2.0564,2.0564,0,0,0-1.2339.4033,2.3187,2.3187,0,0,0-.8164,1.1094,7.9182,7.9182,0,0,0-.1855,2.1152v3.1719a1.6438,1.6438,0,0,1-.3575,1.1553,1.2012,1.2012,0,0,1-.9228.3857,1.1483,1.1483,0,0,1-.9-.3994,1.6675,1.6675,0,0,1-.3525-1.1416v-7.3194a1.5937,1.5937,0,0,1,.3154-1.081,1.0937,1.0937,0,0,1,.8628-.3574,1.1679,1.1679,0,0,1,.603.1582,1.1307,1.1307,0,0,1,.4312.4726A1.67,1.67,0,0,1,74.9727,338.0361Z"/><path class="cls-9" d="M92.3027,343.6211a2.9379,2.9379,0,0,1-2.0175,2.9268,6.7556,6.7556,0,0,1-2.4263.3857,5.9168,5.9168,0,0,1-2.3379-.418,3.401,3.401,0,0,1-1.438-1.0439,2.0987,2.0987,0,0,1-.4639-1.2569.9743.9743,0,0,1,.2969-.7148,1.02,1.02,0,0,1,.7515-.2969.8786.8786,0,0,1,.6123.1953,2.1463,2.1463,0,0,1,.4082.5469,2.7752,2.7752,0,0,0,.9321,1.0117,2.8129,2.8129,0,0,0,1.48.334,2.1312,2.1312,0,0,0,1.2476-.3389.95.95,0,0,0,.4873-.7744,1.0556,1.0556,0,0,0-.5059-.9746,6.293,6.293,0,0,0-1.665-.584,13.7975,13.7975,0,0,1-2.1289-.6816,3.5129,3.5129,0,0,1-1.313-.9414,2.1583,2.1583,0,0,1-.4917-1.4385,2.5384,2.5384,0,0,1,.4546-1.4385,3.1149,3.1149,0,0,1,1.34-1.08,5.1266,5.1266,0,0,1,2.1387-.4043,7,7,0,0,1,1.7675.205,4.4048,4.4048,0,0,1,1.3077.5469,2.69,2.69,0,0,1,.7978.7608,1.4881,1.4881,0,0,1,.2739.8164.94.94,0,0,1-.2924.7138,1.1562,1.1562,0,0,1-.83.2793,1.0162,1.0162,0,0,1-.6631-.2226,4.3626,4.3626,0,0,1-.6265-.668,2.2828,2.2828,0,0,0-.6772-.5937,2.1334,2.1334,0,0,0-1.0576-.2227,2.066,2.066,0,0,0-1.1412.292.8511.8511,0,0,0-.4545.7275.7878.7878,0,0,0,.3339.6543,2.7545,2.7545,0,0,0,.9.4219q.5655.1669,1.5586.4082a8.333,8.333,0,0,1,1.9253.6875,3.1958,3.1958,0,0,1,1.1319.9414A2.0878,2.0878,0,0,1,92.3027,343.6211Z"/><path class="cls-9" d="M101.5337,334.3164v3.8682a5.88,5.88,0,0,1,1.4565-1.1367,3.8817,3.8817,0,0,1,1.8369-.3936,4.0715,4.0715,0,0,1,2.2129.5977,3.9306,3.9306,0,0,1,1.4746,1.7353,6.38,6.38,0,0,1,.5245,2.6943,7.2473,7.2473,0,0,1-.292,2.1114,5.02,5.02,0,0,1-.8492,1.665,3.826,3.826,0,0,1-1.35,1.09,3.949,3.949,0,0,1-1.7486.3857,4.1931,4.1931,0,0,1-1.0991-.14,3.2218,3.2218,0,0,1-.877-.3662,3.9538,3.9538,0,0,1-.6171-.4687q-.255-.2416-.6724-.7236v.2509a1.5273,1.5273,0,0,1-.3433,1.08,1.1444,1.1444,0,0,1-.872.3672,1.0841,1.0841,0,0,1-.8584-.3672,1.6009,1.6009,0,0,1-.32-1.08V334.4277a1.8553,1.8553,0,0,1,.3111-1.165,1.0413,1.0413,0,0,1,.8672-.3936,1.1108,1.1108,0,0,1,.9.375A1.626,1.626,0,0,1,101.5337,334.3164Zm.1206,7.5234a3.487,3.487,0,0,0,.6914,2.3243,2.2659,2.2659,0,0,0,1.8135.8115,2.08,2.08,0,0,0,1.6465-.83,3.6265,3.6265,0,0,0,.6914-2.38,4.6742,4.6742,0,0,0-.2876-1.7256,2.5131,2.5131,0,0,0-.8164-1.1181,2.01,2.01,0,0,0-1.2339-.3946,2.202,2.202,0,0,0-1.29.3946,2.6221,2.6221,0,0,0-.8906,1.1416A4.4279,4.4279,0,0,0,101.6543,341.84Z"/><path class="cls-9" d="M117.3979,345.5039V345.18a5.6407,5.6407,0,0,1-.9555.9648,3.5262,3.5262,0,0,1-1.0947.58,4.4644,4.4644,0,0,1-1.3545.19,3.5013,3.5013,0,0,1-1.647-.38,2.778,2.778,0,0,1-1.127-1.0479,4.6438,4.6438,0,0,1-.4731-2.32v-5.0185a1.6391,1.6391,0,0,1,.3433-1.1368,1.1733,1.1733,0,0,1,.9091-.3759,1.2056,1.2056,0,0,1,.9278.3808,1.6136,1.6136,0,0,1,.3525,1.1319v4.0537a6.2566,6.2566,0,0,0,.1484,1.48,1.7776,1.7776,0,0,0,.5332.9366,1.5215,1.5215,0,0,0,1.044.3388,2.1222,2.1222,0,0,0,1.206-.3808,2.2187,2.2187,0,0,0,.8257-.9922,7.9863,7.9863,0,0,0,.2134-2.3565v-3.08a1.6107,1.6107,0,0,1,.3526-1.1319,1.193,1.193,0,0,1,.9184-.3808,1.1749,1.1749,0,0,1,.9092.3759,1.6416,1.6416,0,0,1,.3432,1.1368v7.3388a1.5659,1.5659,0,0,1-.3291,1.085,1.1714,1.1714,0,0,1-1.707-.0137A1.5176,1.5176,0,0,1,117.3979,345.5039Z"/><path class="cls-9" d="M122.4355,336.8574h.2784v-1.5215c0-.4082.0107-.7275.0322-.96a1.4291,1.4291,0,0,1,.1811-.5987,1.1432,1.1432,0,0,1,.4268-.4218,1.2176,1.2176,0,0,1,.6216-.1621,1.2553,1.2553,0,0,1,.8721.3613,1.0719,1.0719,0,0,1,.3291.59,5.3049,5.3049,0,0,1,.07.9883v1.7246h.9277a1.1877,1.1877,0,0,1,.8208.2559.8393.8393,0,0,1,.2832.6543.732.732,0,0,1-.4033.7138,2.6254,2.6254,0,0,1-1.1553.2041h-.4731v4.6573a7.6711,7.6711,0,0,0,.0415.914.9384.9384,0,0,0,.2226.52.763.763,0,0,0,.5894.1992,3.1468,3.1468,0,0,0,.603-.0791,3.1776,3.1776,0,0,1,.5938-.0781.764.764,0,0,1,.5517.2451.8252.8252,0,0,1,.2461.6084,1.0165,1.0165,0,0,1-.6679.9365,4.5089,4.5089,0,0,1-1.9205.3252,3.32,3.32,0,0,1-1.8-.3994,1.8479,1.8479,0,0,1-.8022-1.1045,7.474,7.474,0,0,1-.19-1.8828v-4.8614h-.334a1.2065,1.2065,0,0,1-.835-.26.8474.8474,0,0,1-.2876-.6582.8183.8183,0,0,1,.3013-.6543A1.3252,1.3252,0,0,1,122.4355,336.8574Z"/><path class="cls-9" d="M134.06,345.2539V334.5391a1.8059,1.8059,0,0,1,.38-1.253,1.2684,1.2684,0,0,1,.9834-.417,1.3146,1.3146,0,0,1,1.0064.4121,1.7893,1.7893,0,0,1,.3852,1.2579v10.7148a1.8064,1.8064,0,0,1-.3852,1.2617,1.3055,1.3055,0,0,1-1.0064.418,1.2683,1.2683,0,0,1-.979-.4229A1.81,1.81,0,0,1,134.06,345.2539Z"/><path class="cls-9" d="M153.7837,338.49v7.3575a7.7172,7.7172,0,0,1-.2691,2.1709,3.4765,3.4765,0,0,1-.8627,1.5029,3.616,3.616,0,0,1-1.5542.8808,8.4235,8.4235,0,0,1-2.3887.2881,6.95,6.95,0,0,1-2.3379-.3662,4.0548,4.0548,0,0,1-1.5864-.9463,1.7265,1.7265,0,0,1-.5567-1.1924.9813.9813,0,0,1,.3155-.7558,1.0773,1.0773,0,0,1,.7607-.293,1.2469,1.2469,0,0,1,.9741.4922c.1358.167.2769.335.4219.5059a2.4687,2.4687,0,0,0,.4824.4355,1.8967,1.8967,0,0,0,.6358.27,3.72,3.72,0,0,0,.8535.0879,3.47,3.47,0,0,0,1.5263-.2734,1.5649,1.5649,0,0,0,.7608-.7656,3.09,3.09,0,0,0,.2549-1.0528q.0366-.561.0556-1.8047a4.1642,4.1642,0,0,1-1.35,1.2432,3.692,3.692,0,0,1-1.8232.4268,3.8444,3.8444,0,0,1-2.2217-.6494,4.1421,4.1421,0,0,1-1.4614-1.8184,6.69,6.69,0,0,1-.51-2.7,6.398,6.398,0,0,1,.3106-2.0586,4.3163,4.3163,0,0,1,.8862-1.55,3.795,3.795,0,0,1,1.3267-.9512,4.1782,4.1782,0,0,1,1.6513-.3193,3.98,3.98,0,0,1,1.8648.4121,4.5439,4.5439,0,0,1,1.4658,1.2949v-.3437a1.4733,1.4733,0,0,1,.3247-1.0205,1.0709,1.0709,0,0,1,.835-.3623.9852.9852,0,0,1,.9741.4785A3.1345,3.1345,0,0,1,153.7837,338.49Zm-7.3384,3.211a3.5007,3.5007,0,0,0,.6729,2.3281,2.18,2.18,0,0,0,1.7392.7891,2.2742,2.2742,0,0,0,1.1924-.3389,2.49,2.49,0,0,0,.9136-1.02,3.5761,3.5761,0,0,0,.3525-1.6563,3.7971,3.7971,0,0,0-.6821-2.4121,2.1763,2.1763,0,0,0-1.7949-.8633,2.1061,2.1061,0,0,0-1.7393.8262A3.7,3.7,0,0,0,146.4453,341.7012Z"/><path class="cls-9" d="M157.6245,335.457a1.3412,1.3412,0,0,1-.9048-.3242,1.26,1.26,0,0,1,.01-1.8047,1.29,1.29,0,0,1,.895-.3476,1.33,1.33,0,0,1,.8721.3144,1.1271,1.1271,0,0,1,.38.919,1.16,1.16,0,0,1-.3711.914A1.2833,1.2833,0,0,1,157.6245,335.457Zm1.2525,2.6162v7.3194a1.6337,1.6337,0,0,1-.3619,1.15,1.2,1.2,0,0,1-.9184.3906,1.1439,1.1439,0,0,1-.9043-.3994,1.6819,1.6819,0,0,1-.3482-1.1416v-7.2451a1.6244,1.6244,0,0,1,.3482-1.1319,1.167,1.167,0,0,1,.9043-.3808,1.212,1.212,0,0,1,.9184.3808A1.4739,1.4739,0,0,1,158.877,338.0732Z"/><path class="cls-9" d="M163.2837,338.2129l2.05,5.7519,2.208-6.0029a3.5669,3.5669,0,0,1,.51-1.0254.9349.9349,0,0,1,.7608-.3017,1.1435,1.1435,0,0,1,.8213.3252,1.0121,1.0121,0,0,1,.3384.7509,1.533,1.533,0,0,1-.06.3907,3.6769,3.6769,0,0,1-.14.417q-.0783.1947-.1806.4453l-2.4307,6.03q-.1025.2593-.2646.6582a3.3927,3.3927,0,0,1-.3614.6827,1.4289,1.4289,0,0,1-.4921.44,1.47,1.47,0,0,1-.7095.1582,1.3763,1.3763,0,0,1-.8579-.2461,1.6691,1.6691,0,0,1-.4737-.5381q-.1522-.293-.5146-1.1553l-2.4121-5.9648q-.0836-.2226-.1719-.4453a4.0222,4.0222,0,0,1-.1484-.4551,1.6211,1.6211,0,0,1-.06-.3984.9711.9711,0,0,1,.1577-.5157,1.2289,1.2289,0,0,1,.4361-.4169,1.1741,1.1741,0,0,1,.603-.1631.9581.9581,0,0,1,.8672.3623A5.7352,5.7352,0,0,1,163.2837,338.2129Z"/><path class="cls-9" d="M178.61,342.4062h-4.9541a3.3575,3.3575,0,0,0,.3481,1.5215,2.3274,2.3274,0,0,0,2.1382,1.3262,3.0343,3.0343,0,0,0,.8306-.1064,2.7276,2.7276,0,0,0,.728-.334,5.628,5.628,0,0,0,.6494-.4873q.2967-.2593.77-.7051a.8312.8312,0,0,1,.5567-.167.916.916,0,0,1,.6308.2139.761.761,0,0,1,.2412.6025,1.6522,1.6522,0,0,1-.269.8027,3.1859,3.1859,0,0,1-.812.8809,4.6011,4.6011,0,0,1-1.3633.7,5.88,5.88,0,0,1-1.8882.2793,5.05,5.05,0,0,1-3.7944-1.3926,5.179,5.179,0,0,1-1.3545-3.7754,6.3027,6.3027,0,0,1,.334-2.083,4.5968,4.5968,0,0,1,.9741-1.6465,4.214,4.214,0,0,1,1.5771-1.0527,5.6651,5.6651,0,0,1,2.0782-.3662,4.9221,4.9221,0,0,1,2.5463.626,4.118,4.118,0,0,1,1.5914,1.6181,4.2592,4.2592,0,0,1,.5288,2.0235q0,.9551-.5474,1.2382A3.4137,3.4137,0,0,1,178.61,342.4062Zm-4.9541-1.4384h4.5922a3.08,3.08,0,0,0-.7-1.9434,2.099,2.099,0,0,0-1.6006-.6455,2.0279,2.0279,0,0,0-1.5537.6543A3.2534,3.2534,0,0,0,173.6558,340.9678Z"/><path class="cls-9" d="M194.1587,345.5039V345.18a5.6411,5.6411,0,0,1-.9556.9648,3.5262,3.5262,0,0,1-1.0947.58,4.4644,4.4644,0,0,1-1.3545.19,3.5016,3.5016,0,0,1-1.647-.38,2.7777,2.7777,0,0,1-1.1269-1.0479,4.6437,4.6437,0,0,1-.4732-2.32v-5.0185a1.6391,1.6391,0,0,1,.3433-1.1368,1.1734,1.1734,0,0,1,.9092-.3759,1.2052,1.2052,0,0,1,.9277.3808,1.6131,1.6131,0,0,1,.3526,1.1319v4.0537a6.2566,6.2566,0,0,0,.1484,1.48,1.7763,1.7763,0,0,0,.5332.9366,1.5212,1.5212,0,0,0,1.0439.3388,2.1225,2.1225,0,0,0,1.2061-.3808,2.22,2.22,0,0,0,.8257-.9922,7.9863,7.9863,0,0,0,.2134-2.3565v-3.08a1.6107,1.6107,0,0,1,.3525-1.1319,1.1931,1.1931,0,0,1,.9184-.3808,1.1749,1.1749,0,0,1,.9092.3759,1.6416,1.6416,0,0,1,.3433,1.1368v7.3388a1.5664,1.5664,0,0,1-.3291,1.085,1.1714,1.1714,0,0,1-1.707-.0137A1.5176,1.5176,0,0,1,194.1587,345.5039Z"/><path class="cls-9" d="M201.395,338.0547v.3066a4.9973,4.9973,0,0,1,1.4844-1.2949,3.6411,3.6411,0,0,1,1.7441-.4121,4.0372,4.0372,0,0,1,2.1524.6025A4.161,4.161,0,0,1,208.33,339.02a6.1651,6.1651,0,0,1,.57,2.7461,6.7073,6.7073,0,0,1-.3291,2.1475,4.8213,4.8213,0,0,1-.9048,1.6426,3.9529,3.9529,0,0,1-1.3589,1.02,4.0289,4.0289,0,0,1-1.6841.3574,3.5231,3.5231,0,0,1-1.8227-.4365,5.2138,5.2138,0,0,1-1.4058-1.28v3.8037q0,1.67-1.2153,1.67a.973.973,0,0,1-.9463-.4316,2.71,2.71,0,0,1-.2319-1.2568V338.0732a1.5937,1.5937,0,0,1,.3154-1.081,1.094,1.094,0,0,1,.8628-.3574,1.1413,1.1413,0,0,1,.8769.3672A1.4956,1.4956,0,0,1,201.395,338.0547Zm4.9634,3.6836a4.3832,4.3832,0,0,0-.3062-1.7217,2.5245,2.5245,0,0,0-.8491-1.1035,2.0274,2.0274,0,0,0-1.2011-.3858,2.2541,2.2541,0,0,0-1.7676.8262,3.606,3.606,0,0,0-.7188,2.4307,3.5184,3.5184,0,0,0,.7144,2.3515,2.2329,2.2329,0,0,0,1.772.84,2.037,2.037,0,0,0,1.1689-.3662,2.5268,2.5268,0,0,0,.8628-1.1A4.36,4.36,0,0,0,206.3584,341.7383Z"/><text/><text class="cls-3" transform="translate(423.0556 310.0667)">O<tspan class="cls-4" x="15.0479" y="0">v</tspan><tspan x="25.0952" y="0">erwhelmed </tspan><tspan class="cls-4" x="132.7959" y="0">b</tspan><tspan x="144.4204" y="0">y </tspan><tspan x="12.8306" y="22.7998">all the options</tspan></text><rect class="cls-2" x="15.0873" y="529.7168" width="242.0657" height="72.134"/><text class="cls-3" transform="translate(25.8916 571.7557)">“Can <tspan class="cls-4" x="50.2832" y="0">y</tspan><tspan x="60.3306" y="0">ou do it instead?”</tspan></text><rect class="cls-2" x="104.0928" y="464.1546" width="184.4924" height="72.134"/><text class="cls-3" transform="translate(136.8014 504.0282)">“<tspan class="cls-5" x="8.7021" y="0">W</tspan><tspan x="26.0508" y="0">ait wh</tspan><tspan class="cls-5" x="80.8892" y="0">a</tspan><tspan x="91.7065" y="0">t??”</tspan></text><rect class="cls-2" x="109.4422" y="589.2636" width="183.6372" height="79.5517"/><text class="cls-10" transform="translate(117.4819 631.8955) scale(0.9082 1)">“MOM, I’M DONE!”</text></g><g id="Layer_1" data-name="Layer 1"><line class="cls-11" x1="311.1667" y1="33.9444" x2="311.1667" y2="720.5562"/><line class="cls-11" x1="39.3333" y1="389.5" x2="572.6667" y2="389.5"/><circle class="cls-12" cx="311.1667" cy="389.5" r="79.8245"/><text class="cls-13" transform="translate(42.2588 56.8955)"><tspan class="cls-4">T</tspan><tspan x="20.8018" y="0">hin</tspan><tspan class="cls-5" x="71.0879" y="0">k</tspan><tspan x="89.7314" y="0">s</tspan></text><text class="cls-13" transform="translate(485.7361 56.8955)"><tspan class="cls-6">F</tspan><tspan x="19.2412" y="0">eels</tspan></text><text class="cls-13" transform="translate(48.3892 719.0078)">S<tspan class="cls-4" x="22.6777" y="0">ay</tspan><tspan x="60.4131" y="0">s</tspan></text><text class="cls-13" transform="translate(487.2136 719.0078)">Does</text><path class="cls-14" d="M295.6709,354.6537a32.6875,32.6875,0,0,0-14.2128,19.7917,55.9591,55.9591,0,0,0,28.6831,8.5454l1.0254.0092,12.307-13.67L310.141,354.6539h-14.47Z"/><path class="cls-15" d="M326.6624,354.6537H311.1666V383a55.936,55.936,0,0,0,29.7086-8.5546A32.6882,32.6882,0,0,0,326.6624,354.6537Z"/><path class="cls-16" d="M327.5761,380.53a56.2236,56.2236,0,0,0,6.2256-2.334,25.0975,25.0975,0,0,0-6.2256-12.4936Z"/><path class="cls-17" d="M288.5316,378.1962a56.1077,56.1077,0,0,0,6.2257,2.334V365.7024A25.102,25.102,0,0,0,288.5316,378.1962Z"/><path class="cls-16" d="M321.4858,364.5377l-.9178-.9787L311.1666,353.2l-3.3333,13.3961,3.3333,13.67,10.3192-11.0032A3.5,3.5,0,0,0,321.4858,364.5377Z"/><path class="cls-17" d="M301.7651,363.5588c-.2261.2483-.9178.9787-.9178.9787a3.5,3.5,0,0,0,0,4.7255l10.3193,11.0032V353.2S304.1521,360.9378,301.7651,363.5588Z"/><path class="cls-18" d="M311.1666,358.3949l-5.0037-5.3353a3.057,3.057,0,0,0-5.2523,2.32V361.41a3.057,3.057,0,0,0,5.2523,2.32Z"/><path class="cls-19" d="M311.1666,358.3949,316.17,353.06a3.057,3.057,0,0,1,5.2523,2.32V361.41a3.057,3.057,0,0,1-5.2523,2.32Z"/><ellipse class="cls-20" cx="311.1666" cy="358.3949" rx="3.846" ry="4.1009"/><path class="cls-21" d="M362.4386,319.6686c-.2093-6.2416-4.8739-11.3916-10.7174-11.8215a10.9021,10.9021,0,0,0-6.0364,1.3041,50.3017,50.3017,0,0,0-10.4831-20.4688c-6.3631-7.3893-14.7906-12.305-24.0351-12.305-10.0749,0-19.1791,5.839-25.6984,14.3557a50.25,50.25,0,0,0-6.8758,12.2963v6.2581l.0015-.0011-.9976,30.8469c.9612,4.1779,2.2278,7.7224,3.8151,9.3595,5.8469,6.0306,19.7981,8.9018,29.8176,8.9018s23.8456-2.8715,29.6925-8.9018c2.6379-2.7205,4.3914-10.7051,5.3263-18.1186a10.887,10.887,0,0,0,4.66,1.0484C357.4212,332.4226,362.6735,326.6691,362.4386,319.6686Z"/><path class="cls-22" d="M337.701,316.0527a16.3739,16.3739,0,0,1-6.4213-1.3272c-4.4457-1.89-9.8831-5.5541-14.7717-9.3465-2.745-2.1294-5.3177-4.2992-7.4424-6.218a11.9591,11.9591,0,0,0-10.668-2.4777c-5.1015,1.3385-9.3875,6.2218-12.3948,14.1218a3.7686,3.7686,0,0,1-5.01,2.2577,4.1089,4.1089,0,0,1-2.3987-3.7764l-.0015.0011v-6.2581a50.5055,50.5055,0,0,0-1.9443,6.122,10.9092,10.9092,0,0,0-5.2232-1.3339c-6.3723,0-11.5379,5.508-11.5379,12.3025s5.1656,12.3026,11.5379,12.3026a10.8864,10.8864,0,0,0,4.66-1.0484c.3723,2.9522.8752,5.9942,1.5112,8.7589,6.8659,4.0233,17.7219,5.9592,25.9409,5.9592,10.0195,0,23.8456-2.8715,29.6924-8.9018,3.0079-3.1023,4.8662-13.0489,5.6724-21.1887C338.5021,316.0321,338.1019,316.0527,337.701,316.0527Z"/><ellipse class="cls-23" cx="350.9085" cy="320.12" rx="3.846" ry="4.1009"/><ellipse class="cls-21" cx="271.4249" cy="320.12" rx="3.846" ry="4.1009"/><path class="cls-21" d="M298.3467,328.3217a2.0547,2.0547,0,0,1,0-4.101,3.9841,3.9841,0,0,0,3.846-4.1009,1.927,1.927,0,1,1,3.8461,0A7.9684,7.9684,0,0,1,298.3467,328.3217Z"/><path class="cls-21" d="M323.9866,328.3217a7.9682,7.9682,0,0,1-7.6919-8.2017,1.927,1.927,0,1,1,3.8461,0,3.9842,3.9842,0,0,0,3.846,4.101,2.0546,2.0546,0,0,1,0,4.1007Z"/><path class="cls-24" d="M271.97,301.2353a39.3065,39.3065,0,0,1,4.3261-12.447,39.8625,39.8625,0,0,1,43.7252-19.6249l2.7892,1.2566a31.3241,31.3241,0,0,1,9.9655,7.1543l3.9918,4.2563a13.5064,13.5064,0,0,1,0,18.2356h0a11.5358,11.5358,0,0,1-15.0056,1.7865l-10.3413-6.96a19.0465,19.0465,0,0,0-19.1453-1.3518h0a20.8589,20.8589,0,0,0-9.21,9.0448h0a4.92,4.92,0,0,1-7.5987,1.5961Z"/><path class="cls-25" d="M320.0228,269.1652a37.4513,37.4513,0,0,1,10.827,8.8637,9.9308,9.9308,0,0,1-.35,13.0023h0a11.587,11.587,0,0,1-16.0048,1.0908h0a20.0144,20.0144,0,0,0-18.3084-4.3994c-5.1315,1.3455-12.1209,5.4059-17.2312,16.9291-.2063-.1146-.4148-.2242-.6228-.3274q-.2631-.1308-.5323-.2525c-.9677-.4378-3.2717-1.55-5.8341-2.8a7.0175,7.0175,0,0,0,3.9571,7.5187q.1884.0855.3736.1774.393.1955.7693.4214l.0333.02q.3715.2241.726.4748l.0078.0049a5.0818,5.0818,0,0,0,1.6889.81,2.0958,2.0958,0,0,0,2.7854-1.4367c8.0847-21.264,23.0478-18.6831,29.0783-13.2314,4.9006,4.43,14.1882,11.9193,21.1,14.8607a12.6738,12.6738,0,0,0,4.9715,1.0164,13.8518,13.8518,0,0,0,4.7145-.784c5.8254-2.0951,8.8762-8.953,6.9246-15.1694A39.7726,39.7726,0,0,0,320.0228,269.1652Z"/><path class="cls-25" d="M322.9577,310.4768a12.6449,12.6449,0,0,1-4.1563-.7075,2.0822,2.0822,0,0,1-1.2333-2.5845,1.9,1.9,0,0,1,2.424-1.3151,8.9779,8.9779,0,0,0,5.9388-.0011,1.9007,1.9007,0,0,1,2.4229,1.3164,2.0817,2.0817,0,0,1-1.2346,2.5836A12.6741,12.6741,0,0,1,322.9577,310.4768Z"/><path class="cls-25" d="M297.3178,310.4768a12.6449,12.6449,0,0,1-4.1563-.7075,2.0822,2.0822,0,0,1-1.2333-2.5845,1.9009,1.9009,0,0,1,2.424-1.3151,8.9779,8.9779,0,0,0,5.9388-.0011,1.9006,1.9006,0,0,1,2.4229,1.3164,2.0817,2.0817,0,0,1-1.2346,2.5836A12.6741,12.6741,0,0,1,297.3178,310.4768Z"/><path class="cls-25" d="M312.9615,323.469a1.933,1.933,0,0,0-1.8065,1.3532,1.9283,1.9283,0,0,0-1.783-1.285,7.9681,7.9681,0,0,0-7.6918,8.2016,1.99,1.99,0,0,0,1.923,2.05,7.86,7.86,0,0,0,7.57-6.7538,7.8548,7.8548,0,0,0,7.558,6.6856,1.99,1.99,0,0,0,1.9231-2.05A7.9688,7.9688,0,0,0,312.9615,323.469Z"/><ellipse class="cls-26" cx="298.3467" cy="320.12" rx="3.846" ry="4.1009"/><ellipse class="cls-26" cx="323.9866" cy="320.12" rx="3.846" ry="4.1009"/></g><g id="Layer_4" data-name="Layer 4"><path class="cls-27" d="M293.8909,354.6661a33.6076,33.6076,0,0,0-14.5917,20.35,57.3608,57.3608,0,0,0,30.5,8.7962l13.1616-15.18L309.8,354.6661Z"/><path class="cls-28" d="M340.3,375.0165a33.75,33.75,0,0,0-13.2788-19.4846h0l-.0005,0q-.6454-.4493-1.3125-.8656H293.8909q-.6667.4164-1.313.8658a21.41,21.41,0,0,0,11.4784,8.514,8.4361,8.4361,0,0,1,5.7433,8.2077V383.813A57.3632,57.3632,0,0,0,340.3,375.0165Z"/><path class="cls-29" d="M289.6792,372.6511a32.3445,32.3445,0,0,0-6.9249-6.22,34.7726,34.7726,0,0,0-3.4553,8.63,58.9326,58.9326,0,0,0,7.2624,3.8569Z"/><path class="cls-30" d="M326.6465,366.0715v15.2022a57.5265,57.5265,0,0,0,6.3841-2.3966A25.8194,25.8194,0,0,0,326.6465,366.0715Z"/><path class="cls-28" d="M286.5685,378.8768a57.6019,57.6019,0,0,0,6.3841,2.3967V366.0712A25.8236,25.8236,0,0,0,286.5685,378.8768Z"/><path class="cls-31" d="M350.6006,306.552a11.1377,11.1377,0,0,0-1.5969.1189,11.26,11.26,0,0,0-3.7658,1.2528c-.335-1.3539-.73-2.6957-1.1757-4.0211a51.4189,51.4189,0,0,0-9.5869-17.0256c-6.5327-7.5984-15.1848-12.6528-24.6757-12.6528-15.5543,0-28.8567,13.5749-34.2655,29.6774q-.6681,1.9886-1.1729,4.0221l.9735,31.8564c.9869,4.296,2.2871,7.9406,3.9168,9.6238,6.0028,6.2007,20.3259,9.1532,30.6125,9.1532s24.4812-2.9525,30.484-9.1532c2.7081-2.7973,4.5083-11.0074,5.4683-18.63a11.1617,11.1617,0,0,0,4.7845,1.0781c6.542,0,11.8454-5.6635,11.8454-12.65S357.1428,306.552,350.6006,306.552Z"/><path class="cls-29" d="M336.1383,309.7206l-8.629-9.215a25.2866,25.2866,0,0,0-4.225-3.6183c-9.644-6.5721-22.498-5.24-31.0756,3.56-1.5766,1.6176-4.7815,4.7958-7.591,7.568a6.86,6.86,0,0,1-8.9481.7323,11.2617,11.2617,0,0,0-7.2815-2.18c-6.08.3258-10.9952,5.6443-11.2263,12.14-.2565,7.2118,5.1413,13.1436,11.8367,13.1436a11.1614,11.1614,0,0,0,4.7845-1.0781c.3824,3.0357.8983,6.1634,1.5514,9.0063,7.0488,4.1369,18.1946,6.1273,26.6324,6.1273,10.2866,0,24.4812-2.9525,30.4839-9.1532,2.9786-3.0766,4.8587-12.7,5.7308-20.8887a7.7562,7.7562,0,0,0-2.0427-6.1442Z"/><ellipse class="cls-32" cx="350.6003" cy="319.2018" rx="3.9484" ry="4.2165"/><ellipse class="cls-31" cx="268.9987" cy="319.2018" rx="3.9484" ry="4.2165"/><path class="cls-33" d="M348.2963,293.83a38.8655,38.8655,0,0,0-4.3345-11.51,49.9979,49.9979,0,0,0-28.4111-22.8563c-6.528-1.9876-12.9991,3.3468-12.9991,10.683l-30.7039,22.0156a17.5027,17.5027,0,0,0,2.39,15.7618l2.0868,1.1307a2.0069,2.0069,0,0,0,2.4416-.4155l10.5356-11.1819a27.639,27.639,0,0,1,40.0716-.76l0,0h0q.4074.4036.804.8269l10.408,11.1149a2.0072,2.0072,0,0,0,2.4416.4154l2.0868-1.1307.26-.3587A17.5,17.5,0,0,0,348.2963,293.83Z"/><path class="cls-34" d="M271.1245,300.19a8.2105,8.2105,0,0,0,10.1107-1.6032l4.5871-4.8686a32.6357,32.6357,0,0,1,25.7107-10.4392,1.7771,1.7771,0,0,0,1.1966-3.0575l-10.1782-10.0756A32.3385,32.3385,0,0,0,278.739,280.82a36.0246,36.0246,0,0,0-3.6407,4.6567,29.23,29.23,0,0,0-3.2511,6.6846,17.3376,17.3376,0,0,0-.7227,8.0283Z"/><path class="cls-34" d="M334.6811,278.771a46.3169,46.3169,0,0,0-22.4654-19.7057,10.321,10.321,0,0,0-8.7032,6.3832l6.6406,6.5735c6.8031,6.7343,13.9005,13.1131,21.0668,19.4037q1.2648,1.11,2.4473,2.3711a2.979,2.979,0,0,0,5.1259-2.2385,12.958,12.958,0,0,0-.2686-2.5751A34.4048,34.4048,0,0,0,334.6811,278.771Z"/><path class="cls-33" d="M313.3788,305.0662a1.9342,1.9342,0,0,1,1.5994.87,10.0016,10.0016,0,0,0,4.9351,3.8266,2.1418,2.1418,0,0,1,1.2662,2.6575,1.9511,1.9511,0,0,1-2.4886,1.3522,13.8146,13.8146,0,0,1-6.9083-5.36,2.2025,2.2025,0,0,1,.4386-2.9448A1.8834,1.8834,0,0,1,313.3788,305.0662Z"/><path class="cls-33" d="M306.22,305.0657a1.8819,1.8819,0,0,1,1.1581.4023,2.2027,2.2027,0,0,1,.4383,2.9448,13.8055,13.8055,0,0,1-6.9091,5.36,1.9507,1.9507,0,0,1-2.4875-1.3534,2.1413,2.1413,0,0,1,1.2674-2.6567,9.86,9.86,0,0,0,4.9332-3.8264A1.9343,1.9343,0,0,1,306.22,305.0657Z"/><ellipse class="cls-26" cx="296.6378" cy="319.2018" rx="3.9484" ry="4.2165"/><ellipse class="cls-26" cx="322.961" cy="319.2018" rx="3.9484" ry="4.2165"/><path class="cls-26" d="M309.8,329.7436a6.1406,6.1406,0,0,1-5.9226-6.325,1.9786,1.9786,0,1,1,3.9486,0,1.9786,1.9786,0,1,0,3.9486,0,1.9786,1.9786,0,1,1,3.9486,0A6.1413,6.1413,0,0,1,309.8,329.7436Z"/><path class="cls-32" d="M330.6385,371.82a26.2585,26.2585,0,0,1,2.3994,7.0984c.151-.0673.3021-.1343.4525-.203a59.0337,59.0337,0,0,0,6.81-3.6539,34.7671,34.7671,0,0,0-3.4555-8.6292A32.2244,32.2244,0,0,0,330.6385,371.82Z"/><text class="cls-35" transform="translate(254.968 412.6586)">Imp<tspan class="cls-5" x="43.7461" y="0">a</tspan><tspan x="57.4102" y="0">tient </tspan><tspan x="18.1055" y="28.7998">Ica</tspan><tspan class="cls-5" x="54.1406" y="28.7998">r</tspan><tspan x="64.0547" y="28.7998">us</tspan></text></g></svg>